Truculenta-Expanded.ufo
<glyph name="exclam" format="2">
  <advance width="336"/>
  <unicode hex="0021"/>
  <outline>
    <contour>
      <point x="138" y="238" type="curve"/>
      <point x="198" y="240" type="line"/>
      <point x="198" y="240"/>
      <point x="200" y="349"/>
      <point x="201" y="425" type="curve"/>
      <point x="203" y="500"/>
      <point x="211" y="709"/>
      <point x="211" y="709" type="curve"/>
      <point x="125" y="704" type="line"/>
      <point x="125" y="704"/>
      <point x="131" y="533"/>
      <point x="134" y="423" type="curve"/>
      <point x="136" y="315"/>
      <point x="138" y="238"/>
    </contour>
    <contour>
      <point x="210" y="0" type="line"/>
      <point x="203" y="135" type="line"/>
      <point x="133" y="133" type="line"/>
      <point x="129" y="0" type="line"/>
    </contour>
  </outline>
</glyph>
<glyph name="quotedbl" format="2">
  <advance width="488"/>
  <unicode hex="0022"/>
  <outline>
    <contour>
      <point x="279" y="493" type="curve"/>
      <point x="344" y="503" type="line"/>
      <point x="344" y="503"/>
      <point x="351" y="574"/>
      <point x="360" y="615" type="curve" smooth="yes"/>
      <point x="366" y="657"/>
      <point x="379" y="701"/>
      <point x="379" y="701" type="curve"/>
      <point x="285" y="702" type="line"/>
      <point x="285" y="702"/>
      <point x="286" y="654"/>
      <point x="283" y="604" type="curve" smooth="yes"/>
      <point x="282" y="551"/>
      <point x="279" y="493"/>
    </contour>
    <contour>
      <point x="121" y="490" type="curve"/>
      <point x="185" y="505" type="line"/>
      <point x="185" y="505"/>
      <point x="186" y="577"/>
      <point x="191" y="618" type="curve" smooth="yes"/>
      <point x="194" y="661"/>
      <point x="203" y="706"/>
      <point x="203" y="706" type="curve"/>
      <point x="109" y="698" type="line"/>
      <point x="109" y="698"/>
      <point x="114" y="651"/>
      <point x="116" y="601" type="curve" smooth="yes"/>
      <point x="119" y="548"/>
      <point x="121" y="490"/>
    </contour>
  </outline>
</glyph>
<glyph name="numbersign" format="2">
  <advance width="956"/>
  <unicode hex="0023"/>
  <outline>
    <contour>
      <point x="192" y="-1" type="line"/>
      <point x="272" y="3" type="line"/>
      <point x="354" y="374" type="line"/>
      <point x="435" y="700" type="line"/>
      <point x="357" y="696" type="line"/>
      <point x="292" y="385" type="line"/>
    </contour>
    <contour>
      <point x="93" y="170" type="line"/>
      <point x="93" y="170"/>
      <point x="351" y="175"/>
      <point x="472" y="174" type="curve" smooth="yes"/>
      <point x="597" y="173"/>
      <point x="817" y="172"/>
      <point x="817" y="172" type="curve"/>
      <point x="813" y="240" type="line"/>
      <point x="813" y="240"/>
      <point x="592" y="237"/>
      <point x="475" y="237" type="curve" smooth="yes"/>
      <point x="363" y="237"/>
      <point x="95" y="240"/>
      <point x="95" y="240" type="curve"/>
    </contour>
    <contour>
      <point x="523" y="-2" type="line"/>
      <point x="603" y="1" type="line"/>
      <point x="682" y="363" type="line"/>
      <point x="763" y="686" type="line"/>
      <point x="685" y="687" type="line"/>
      <point x="623" y="385" type="line"/>
    </contour>
    <contour>
      <point x="143" y="457" type="line"/>
      <point x="143" y="457"/>
      <point x="402" y="462"/>
      <point x="523" y="461" type="curve" smooth="yes"/>
      <point x="647" y="460"/>
      <point x="863" y="458"/>
      <point x="863" y="458" type="curve"/>
      <point x="863" y="527" type="line"/>
      <point x="863" y="527"/>
      <point x="642" y="524"/>
      <point x="525" y="524" type="curve" smooth="yes"/>
      <point x="413" y="524"/>
      <point x="135" y="527"/>
      <point x="135" y="527" type="curve"/>
    </contour>
  </outline>
</glyph>
<glyph name="ampersand" format="2">
  <advance width="693"/>
  <unicode hex="0026"/>
  <outline>
    <contour>
      <point x="285" y="-10" type="curve" smooth="yes"/>
      <point x="518" y="-10"/>
      <point x="632" y="164"/>
      <point x="615" y="391" type="curve"/>
      <point x="529" y="398" type="line"/>
      <point x="546" y="208"/>
      <point x="481" y="57"/>
      <point x="291" y="57" type="curve" smooth="yes"/>
      <point x="171" y="57"/>
      <point x="131" y="106"/>
      <point x="131" y="174" type="curve" smooth="yes"/>
      <point x="131" y="247"/>
      <point x="193" y="286"/>
      <point x="267" y="322" type="curve" smooth="yes"/>
      <point x="376" y="374"/>
      <point x="510" y="420"/>
      <point x="510" y="557" type="curve" smooth="yes"/>
      <point x="510" y="628"/>
      <point x="467" y="702"/>
      <point x="331" y="702" type="curve" smooth="yes"/>
      <point x="193" y="702"/>
      <point x="131" y="612"/>
      <point x="131" y="524" type="curve" smooth="yes"/>
      <point x="131" y="389"/>
      <point x="283" y="254"/>
      <point x="461" y="69" type="curve" smooth="yes"/>
      <point x="516" y="11"/>
      <point x="584" y="-10"/>
      <point x="659" y="-7" type="curve"/>
      <point x="668" y="53" type="line"/>
      <point x="600" y="54"/>
      <point x="547" y="83"/>
      <point x="517" y="115" type="curve" smooth="yes"/>
      <point x="324" y="322"/>
      <point x="214" y="419"/>
      <point x="214" y="528" type="curve" smooth="yes"/>
      <point x="214" y="587"/>
      <point x="244" y="635"/>
      <point x="326" y="635" type="curve" smooth="yes"/>
      <point x="398" y="635"/>
      <point x="429" y="602"/>
      <point x="429" y="547" type="curve" smooth="yes"/>
      <point x="429" y="463"/>
      <point x="330" y="429"/>
      <point x="234" y="385" type="curve" smooth="yes"/>
      <point x="140" y="342"/>
      <point x="49" y="289"/>
      <point x="49" y="172" type="curve" smooth="yes"/>
      <point x="49" y="63"/>
      <point x="123" y="-10"/>
    </contour>
  </outline>
</glyph>
<glyph name="quotesingle" format="2">
  <advance width="312"/>
  <unicode hex="0027"/>
  <outline>
    <contour>
      <point x="121" y="490" type="curve"/>
      <point x="185" y="505" type="line"/>
      <point x="185" y="505"/>
      <point x="186" y="577"/>
      <point x="191" y="618" type="curve"/>
      <point x="194" y="661"/>
      <point x="203" y="706"/>
      <point x="203" y="706" type="curve"/>
      <point x="109" y="698" type="line"/>
      <point x="109" y="698"/>
      <point x="114" y="651"/>
      <point x="116" y="601" type="curve"/>
      <point x="119" y="548"/>
      <point x="121" y="490"/>
    </contour>
  </outline>
</glyph>
<glyph name="parenleft" format="2">
  <advance width="504"/>
  <unicode hex="0028"/>
  <outline>
    <contour>
      <point x="362" y="-140" type="curve"/>
      <point x="379" y="-83" type="line"/>
      <point x="221" y="-31"/>
      <point x="195" y="136"/>
      <point x="195" y="281" type="curve" smooth="yes"/>
      <point x="195" y="427"/>
      <point x="217" y="582"/>
      <point x="379" y="646" type="curve"/>
      <point x="362" y="703" type="line"/>
      <point x="217" y="671"/>
      <point x="125" y="549"/>
      <point x="125" y="281" type="curve" smooth="yes"/>
      <point x="125" y="14"/>
      <point x="214" y="-110"/>
    </contour>
  </outline>
</glyph>
<glyph name="parenright" format="2">
  <advance width="504"/>
  <unicode hex="0029"/>
  <outline>
    <contour>
      <point x="142" y="703" type="curve"/>
      <point x="125" y="646" type="line"/>
      <point x="283" y="594"/>
      <point x="309" y="427"/>
      <point x="309" y="282" type="curve" smooth="yes"/>
      <point x="309" y="136"/>
      <point x="287" y="-19"/>
      <point x="125" y="-83" type="curve"/>
      <point x="142" y="-140" type="line"/>
      <point x="287" y="-108"/>
      <point x="379" y="14"/>
      <point x="379" y="282" type="curve" smooth="yes"/>
      <point x="379" y="549"/>
      <point x="290" y="673"/>
    </contour>
  </outline>
</glyph>
<glyph name="asterisk" format="2">
  <advance width="624"/>
  <unicode hex="002A"/>
  <outline>
    <contour>
      <point x="447" y="427" type="curve"/>
      <point x="499" y="473" type="line"/>
      <point x="499" y="473"/>
      <point x="363" y="551"/>
      <point x="316" y="578" type="curve"/>
      <point x="267" y="607"/>
      <point x="170" y="678"/>
      <point x="170" y="678" type="curve"/>
      <point x="125" y="623" type="line"/>
      <point x="125" y="623"/>
      <point x="244" y="564"/>
      <point x="297" y="533" type="curve"/>
      <point x="348" y="504"/>
      <point x="447" y="427"/>
    </contour>
    <contour>
      <point x="161" y="415" type="line"/>
      <point x="161" y="415"/>
      <point x="278" y="504"/>
      <point x="329" y="533" type="curve"/>
      <point x="382" y="564"/>
      <point x="490" y="623"/>
      <point x="490" y="623" type="curve"/>
      <point x="471" y="687" type="line"/>
      <point x="471" y="687"/>
      <point x="359" y="607"/>
      <point x="310" y="578" type="curve"/>
      <point x="263" y="551"/>
      <point x="136" y="473"/>
      <point x="136" y="473" type="curve"/>
    </contour>
    <contour>
      <point x="351" y="357" type="line"/>
      <point x="351" y="357"/>
      <point x="339" y="495"/>
      <point x="339" y="562" type="curve"/>
      <point x="339" y="631"/>
      <point x="349" y="736"/>
      <point x="349" y="736" type="curve"/>
      <point x="280" y="743" type="line"/>
      <point x="280" y="743"/>
      <point x="287" y="626"/>
      <point x="288" y="561" type="curve"/>
      <point x="290" y="499"/>
      <point x="281" y="364"/>
      <point x="281" y="364" type="curve"/>
    </contour>
  </outline>
</glyph>
<glyph name="plus" format="2">
  <advance width="580"/>
  <unicode hex="002B"/>
  <outline>
    <contour>
      <point x="325" y="88" type="line"/>
      <point x="325" y="88"/>
      <point x="316" y="235"/>
      <point x="316" y="302" type="curve"/>
      <point x="316" y="371"/>
      <point x="323" y="507"/>
      <point x="323" y="507" type="curve"/>
      <point x="254" y="503" type="line"/>
      <point x="254" y="503"/>
      <point x="258" y="366"/>
      <point x="259" y="301" type="curve"/>
      <point x="261" y="239"/>
      <point x="255" y="84"/>
      <point x="255" y="84" type="curve"/>
    </contour>
    <contour>
      <point x="75" y="258" type="line"/>
      <point x="75" y="258"/>
      <point x="242" y="264"/>
      <point x="301" y="264" type="curve"/>
      <point x="362" y="264"/>
      <point x="489" y="259"/>
      <point x="489" y="259" type="curve"/>
      <point x="505" y="324" type="line"/>
      <point x="505" y="324"/>
      <point x="357" y="321"/>
      <point x="300" y="320" type="curve"/>
      <point x="245" y="320"/>
      <point x="82" y="321"/>
      <point x="82" y="321" type="curve"/>
    </contour>
  </outline>
</glyph>
<glyph name="comma" format="2">
  <advance width="331"/>
  <unicode hex="002C"/>
  <outline>
    <contour>
      <point x="169" y="-134" type="line"/>
      <point x="192" y="-96"/>
      <point x="206" y="-50"/>
      <point x="206" y="1" type="curve" smooth="yes"/>
      <point x="206" y="125" type="line"/>
      <point x="125" y="118" type="line"/>
      <point x="127" y="0" type="line"/>
      <point x="166" y="-3" type="line"/>
      <point x="166" y="-44"/>
      <point x="156" y="-79"/>
      <point x="134" y="-117" type="curve"/>
    </contour>
  </outline>
</glyph>
<glyph name="period" format="2">
  <advance width="327"/>
  <unicode hex="002E"/>
  <outline>
    <contour>
      <point x="199" y="0" type="line"/>
      <point x="202" y="132" type="line"/>
      <point x="125" y="126" type="line"/>
      <point x="127" y="0" type="line"/>
    </contour>
  </outline>
</glyph>
<glyph name="slash" format="2">
  <advance width="412"/>
  <unicode hex="002F"/>
  <outline>
    <contour>
      <point x="28" y="-1" type="curve"/>
      <point x="110" y="0" type="line"/>
      <point x="110" y="0"/>
      <point x="185" y="197"/>
      <point x="241" y="340" type="curve"/>
      <point x="297" y="484"/>
      <point x="384" y="695"/>
      <point x="384" y="695" type="curve"/>
      <point x="298" y="697" type="line"/>
      <point x="298" y="697"/>
      <point x="227" y="485"/>
      <point x="169" y="339" type="curve"/>
      <point x="114" y="193"/>
      <point x="28" y="-1"/>
    </contour>
  </outline>
</glyph>
<glyph name="zero" format="2">
  <advance width="666"/>
  <unicode hex="0030"/>
  <outline>
    <contour>
      <point x="326" y="-10" type="curve" smooth="yes"/>
      <point x="534" y="-10"/>
      <point x="571" y="172"/>
      <point x="571" y="342" type="curve" smooth="yes"/>
      <point x="571" y="523"/>
      <point x="543" y="707"/>
      <point x="340" y="707" type="curve" smooth="yes"/>
      <point x="137" y="707"/>
      <point x="95" y="520"/>
      <point x="95" y="343" type="curve" smooth="yes"/>
      <point x="95" y="159"/>
      <point x="126" y="-10"/>
    </contour>
    <contour>
      <point x="330" y="51" type="curve" smooth="yes"/>
      <point x="201" y="51"/>
      <point x="171" y="134"/>
      <point x="171" y="338" type="curve" smooth="yes"/>
      <point x="171" y="512"/>
      <point x="202" y="643"/>
      <point x="337" y="643" type="curve" smooth="yes"/>
      <point x="471" y="643"/>
      <point x="497" y="524"/>
      <point x="497" y="353" type="curve" smooth="yes"/>
      <point x="497" y="171"/>
      <point x="465" y="51"/>
    </contour>
  </outline>
</glyph>
<glyph name="one" format="2">
  <advance width="404"/>
  <unicode hex="0031"/>
  <outline>
    <contour>
      <point x="213" y="0" type="curve"/>
      <point x="301" y="0" type="line"/>
      <point x="297" y="99"/>
      <point x="296" y="176"/>
      <point x="296" y="341" type="curve" smooth="yes"/>
      <point x="296" y="503"/>
      <point x="299" y="592"/>
      <point x="302" y="694" type="curve"/>
      <point x="267" y="694" type="line"/>
      <point x="216" y="619" type="line"/>
      <point x="218" y="543"/>
      <point x="218" y="419"/>
      <point x="218" y="342" type="curve" smooth="yes"/>
      <point x="218" y="226"/>
      <point x="216" y="100"/>
    </contour>
    <contour>
      <point x="36" y="580" type="line"/>
      <point x="94" y="580"/>
      <point x="198" y="586"/>
      <point x="261" y="601" type="curve"/>
      <point x="267" y="694" type="line"/>
      <point x="237" y="668"/>
      <point x="110" y="650"/>
      <point x="32" y="645" type="curve"/>
    </contour>
  </outline>
</glyph>
<glyph name="two" format="2">
  <advance width="621"/>
  <unicode hex="0032"/>
  <outline>
    <contour>
      <point x="132" y="40" type="line"/>
      <point x="325" y="162"/>
      <point x="528" y="292"/>
      <point x="528" y="498" type="curve" smooth="yes"/>
      <point x="528" y="639"/>
      <point x="436" y="700"/>
      <point x="308" y="700" type="curve" smooth="yes"/>
      <point x="181" y="700"/>
      <point x="83" y="625"/>
      <point x="83" y="473" type="curve" smooth="yes"/>
      <point x="83" y="454"/>
      <point x="85" y="434"/>
      <point x="88" y="413" type="curve"/>
      <point x="161" y="414" type="line"/>
      <point x="158" y="432"/>
      <point x="157" y="448"/>
      <point x="157" y="464" type="curve" smooth="yes"/>
      <point x="157" y="576"/>
      <point x="221" y="631"/>
      <point x="304" y="631" type="curve" smooth="yes"/>
      <point x="390" y="631"/>
      <point x="448" y="596"/>
      <point x="448" y="486" type="curve" smooth="yes"/>
      <point x="448" y="309"/>
      <point x="280" y="212"/>
      <point x="64" y="62" type="curve"/>
    </contour>
    <contour>
      <point x="62" y="-4" type="line"/>
      <point x="100" y="-2"/>
      <point x="254" y="-1"/>
      <point x="300" y="0" type="curve" smooth="yes"/>
      <point x="311" y="0"/>
      <point x="505" y="0"/>
      <point x="535" y="0" type="curve"/>
      <point x="534" y="69" type="line"/>
      <point x="501" y="65"/>
      <point x="354" y="64"/>
      <point x="311" y="63" type="curve" smooth="yes"/>
      <point x="266" y="62"/>
      <point x="116" y="62"/>
      <point x="64" y="62" type="curve"/>
    </contour>
  </outline>
</glyph>
<glyph name="three" format="2">
  <advance width="580"/>
  <unicode hex="0033"/>
  <outline>
    <contour>
      <point x="280" y="-10" type="curve" smooth="yes"/>
      <point x="445" y="-10"/>
      <point x="511" y="68"/>
      <point x="509" y="167" type="curve" smooth="yes"/>
      <point x="508" y="251"/>
      <point x="453" y="291"/>
      <point x="386" y="303" type="curve"/>
      <point x="477" y="347"/>
      <point x="503" y="436"/>
      <point x="503" y="493" type="curve" smooth="yes"/>
      <point x="503" y="597"/>
      <point x="459" y="697"/>
      <point x="282" y="697" type="curve" smooth="yes"/>
      <point x="131" y="697"/>
      <point x="61" y="617"/>
      <point x="63" y="504" type="curve"/>
      <point x="139" y="504" type="line"/>
      <point x="138" y="572"/>
      <point x="161" y="631"/>
      <point x="280" y="631" type="curve" smooth="yes"/>
      <point x="408" y="631"/>
      <point x="425" y="567"/>
      <point x="425" y="487" type="curve" smooth="yes"/>
      <point x="425" y="405"/>
      <point x="384" y="326"/>
      <point x="250" y="326" type="curve" smooth="yes"/>
      <point x="233" y="326"/>
      <point x="158" y="327"/>
      <point x="145" y="328" type="curve"/>
      <point x="147" y="258" type="line"/>
      <point x="160" y="260"/>
      <point x="242" y="260"/>
      <point x="255" y="260" type="curve" smooth="yes"/>
      <point x="383" y="260"/>
      <point x="431" y="250"/>
      <point x="433" y="159" type="curve" smooth="yes"/>
      <point x="434" y="108"/>
      <point x="406" y="56"/>
      <point x="283" y="56" type="curve" smooth="yes"/>
      <point x="167" y="56"/>
      <point x="138" y="107"/>
      <point x="137" y="145" type="curve"/>
      <point x="62" y="144" type="line"/>
      <point x="63" y="92"/>
      <point x="91" y="-10"/>
    </contour>
  </outline>
</glyph>
<glyph name="four" format="2">
  <advance width="630"/>
  <unicode hex="0034"/>
  <outline>
    <contour>
      <point x="112" y="177" type="line"/>
      <point x="152" y="238"/>
      <point x="208" y="324"/>
      <point x="263" y="405" type="curve" smooth="yes"/>
      <point x="322" y="495"/>
      <point x="379" y="580"/>
      <point x="409" y="624" type="curve"/>
      <point x="427" y="673"/>
      <point x="457" y="696"/>
      <point x="457" y="696" type="curve"/>
      <point x="357" y="700" type="line"/>
      <point x="300" y="608"/>
      <point x="243" y="518"/>
      <point x="188" y="434" type="curve" smooth="yes"/>
      <point x="137" y="354"/>
      <point x="87" y="280"/>
      <point x="42" y="214" type="curve"/>
    </contour>
    <contour>
      <point x="57" y="142" type="line"/>
      <point x="57" y="142"/>
      <point x="251" y="146"/>
      <point x="313" y="147" type="curve" smooth="yes"/>
      <point x="409" y="148"/>
      <point x="585" y="147"/>
      <point x="585" y="147" type="curve"/>
      <point x="585" y="221" type="line"/>
      <point x="585" y="221"/>
      <point x="412" y="215"/>
      <point x="312" y="212" type="curve" smooth="yes"/>
      <point x="245" y="210"/>
      <point x="42" y="214"/>
      <point x="42" y="214" type="curve"/>
    </contour>
    <contour>
      <point x="372" y="-3" type="curve"/>
      <point x="456" y="0" type="line"/>
      <point x="455" y="123"/>
      <point x="453" y="220"/>
      <point x="453" y="378" type="curve" smooth="yes"/>
      <point x="453" y="534"/>
      <point x="456" y="595"/>
      <point x="457" y="696" type="curve"/>
      <point x="373" y="687" type="line"/>
      <point x="373" y="576"/>
      <point x="376" y="495"/>
      <point x="376" y="380" type="curve" smooth="yes"/>
      <point x="376" y="264"/>
      <point x="372" y="102"/>
    </contour>
  </outline>
</glyph>
<glyph name="five" format="2">
  <advance width="610"/>
  <unicode hex="0035"/>
  <outline>
    <contour>
      <point x="297" y="-10" type="curve" smooth="yes"/>
      <point x="464" y="-10"/>
      <point x="548" y="90"/>
      <point x="548" y="233" type="curve" smooth="yes"/>
      <point x="548" y="329"/>
      <point x="503" y="449"/>
      <point x="320" y="449" type="curve" smooth="yes"/>
      <point x="244" y="449"/>
      <point x="184" y="427"/>
      <point x="143" y="367" type="curve"/>
      <point x="163" y="301" type="line"/>
      <point x="203" y="355"/>
      <point x="237" y="380"/>
      <point x="313" y="380" type="curve" smooth="yes"/>
      <point x="437" y="380"/>
      <point x="470" y="303"/>
      <point x="470" y="235" type="curve" smooth="yes"/>
      <point x="470" y="128"/>
      <point x="419" y="58"/>
      <point x="299" y="58" type="curve" smooth="yes"/>
      <point x="169" y="58"/>
      <point x="148" y="114"/>
      <point x="148" y="164" type="curve"/>
      <point x="71" y="160" type="line"/>
      <point x="71" y="70"/>
      <point x="132" y="-10"/>
    </contour>
    <contour>
      <point x="163" y="301" type="line"/>
      <point x="165" y="381"/>
      <point x="170" y="426"/>
      <point x="173" y="502" type="curve" smooth="yes"/>
      <point x="176" y="583"/>
      <point x="176" y="617"/>
      <point x="181" y="696" type="curve"/>
      <point x="97" y="702" type="line"/>
      <point x="97" y="702"/>
      <point x="99" y="590"/>
      <point x="97" y="505" type="curve" smooth="yes"/>
      <point x="95" y="427"/>
      <point x="89" y="363"/>
      <point x="87" y="297" type="curve"/>
    </contour>
    <contour>
      <point x="120" y="626" type="line"/>
      <point x="120" y="626"/>
      <point x="173" y="629"/>
      <point x="311" y="629" type="curve" smooth="yes"/>
      <point x="408" y="629"/>
      <point x="516" y="627"/>
      <point x="516" y="627" type="curve"/>
      <point x="520" y="697" type="line"/>
      <point x="520" y="697"/>
      <point x="411" y="699"/>
      <point x="309" y="698" type="curve" smooth="yes"/>
      <point x="217" y="697"/>
      <point x="97" y="701"/>
      <point x="97" y="701" type="curve"/>
    </contour>
  </outline>
</glyph>
<glyph name="six" format="2">
  <advance width="641"/>
  <unicode hex="0036"/>
  <outline>
    <contour>
      <point x="326" y="-10" type="curve" smooth="yes"/>
      <point x="470" y="-10"/>
      <point x="559" y="77"/>
      <point x="559" y="204" type="curve" smooth="yes"/>
      <point x="559" y="328"/>
      <point x="478" y="397"/>
      <point x="339" y="397" type="curve" smooth="yes"/>
      <point x="236" y="397"/>
      <point x="160" y="341"/>
      <point x="142" y="280" type="curve"/>
      <point x="166" y="203" type="line"/>
      <point x="169" y="285"/>
      <point x="237" y="328"/>
      <point x="337" y="328" type="curve" smooth="yes"/>
      <point x="437" y="328"/>
      <point x="482" y="286"/>
      <point x="482" y="202" type="curve" smooth="yes"/>
      <point x="482" y="122"/>
      <point x="427" y="58"/>
      <point x="329" y="58" type="curve" smooth="yes"/>
      <point x="170" y="58"/>
      <point x="164" y="181"/>
      <point x="164" y="279" type="curve" smooth="yes"/>
      <point x="164" y="496"/>
      <point x="192" y="647"/>
      <point x="341" y="647" type="curve" smooth="yes"/>
      <point x="444" y="647"/>
      <point x="474" y="578"/>
      <point x="474" y="500" type="curve" smooth="yes"/>
      <point x="474" y="485"/>
      <point x="473" y="469"/>
      <point x="471" y="454" type="curve"/>
      <point x="548" y="456" type="line"/>
      <point x="552" y="475"/>
      <point x="554" y="495"/>
      <point x="554" y="514" type="curve" smooth="yes"/>
      <point x="554" y="616"/>
      <point x="498" y="713"/>
      <point x="347" y="713" type="curve" smooth="yes"/>
      <point x="174" y="713"/>
      <point x="86" y="602"/>
      <point x="86" y="321" type="curve" smooth="yes"/>
      <point x="86" y="96"/>
      <point x="143" y="-10"/>
    </contour>
  </outline>
</glyph>
<glyph name="seven" format="2">
  <advance width="509"/>
  <unicode hex="0037"/>
  <outline>
    <contour>
      <point x="160" y="-1" type="curve"/>
      <point x="247" y="0" type="line"/>
      <point x="245" y="136"/>
      <point x="269" y="251"/>
      <point x="312" y="357" type="curve" smooth="yes"/>
      <point x="350" y="451"/>
      <point x="402" y="538"/>
      <point x="467" y="627" type="curve"/>
      <point x="467" y="700" type="line"/>
      <point x="377" y="629"/>
      <point x="301" y="521"/>
      <point x="246" y="397" type="curve" smooth="yes"/>
      <point x="191" y="271"/>
      <point x="158" y="130"/>
    </contour>
    <contour>
      <point x="34" y="624" type="line"/>
      <point x="70" y="625"/>
      <point x="185" y="626"/>
      <point x="232" y="626" type="curve" smooth="yes"/>
      <point x="278" y="626"/>
      <point x="423" y="629"/>
      <point x="460" y="628" type="curve"/>
      <point x="467" y="700" type="line"/>
      <point x="427" y="699"/>
      <point x="291" y="698"/>
      <point x="245" y="698" type="curve" smooth="yes"/>
      <point x="196" y="698"/>
      <point x="70" y="698"/>
      <point x="33" y="700" type="curve"/>
    </contour>
  </outline>
</glyph>
<glyph name="eight" format="2">
  <advance width="615"/>
  <unicode hex="0038"/>
  <outline>
    <contour>
      <point x="299" y="272" type="curve" smooth="yes"/>
      <point x="450" y="272"/>
      <point x="529" y="355"/>
      <point x="529" y="491" type="curve" smooth="yes"/>
      <point x="529" y="613"/>
      <point x="471" y="707"/>
      <point x="311" y="707" type="curve" smooth="yes"/>
      <point x="146" y="707"/>
      <point x="85" y="593"/>
      <point x="85" y="476" type="curve" smooth="yes"/>
      <point x="85" y="363"/>
      <point x="158" y="272"/>
    </contour>
    <contour>
      <point x="298" y="-10" type="curve" smooth="yes"/>
      <point x="465" y="-10"/>
      <point x="555" y="46"/>
      <point x="555" y="161" type="curve" smooth="yes"/>
      <point x="555" y="249"/>
      <point x="492" y="331"/>
      <point x="312" y="331" type="curve" smooth="yes"/>
      <point x="123" y="331"/>
      <point x="60" y="237"/>
      <point x="60" y="153" type="curve" smooth="yes"/>
      <point x="60" y="58"/>
      <point x="141" y="-10"/>
    </contour>
    <contour>
      <point x="307" y="51" type="curve" smooth="yes"/>
      <point x="184" y="51"/>
      <point x="136" y="88"/>
      <point x="136" y="160" type="curve" smooth="yes"/>
      <point x="136" y="230"/>
      <point x="192" y="269"/>
      <point x="307" y="269" type="curve" smooth="yes"/>
      <point x="422" y="269"/>
      <point x="476" y="239"/>
      <point x="479" y="154" type="curve" smooth="yes"/>
      <point x="481" y="88"/>
      <point x="435" y="51"/>
    </contour>
    <contour>
      <point x="307" y="334" type="curve" smooth="yes"/>
      <point x="200" y="334"/>
      <point x="163" y="403"/>
      <point x="163" y="488" type="curve" smooth="yes"/>
      <point x="163" y="586"/>
      <point x="208" y="640"/>
      <point x="310" y="640" type="curve" smooth="yes"/>
      <point x="413" y="640"/>
      <point x="452" y="601"/>
      <point x="452" y="486" type="curve" smooth="yes"/>
      <point x="452" y="410"/>
      <point x="414" y="334"/>
    </contour>
  </outline>
</glyph>
<glyph name="nine" format="2">
  <advance width="641"/>
  <unicode hex="0039"/>
  <outline>
    <contour>
      <point x="298" y="-10" type="curve" smooth="yes"/>
      <point x="471" y="-10"/>
      <point x="559" y="101"/>
      <point x="559" y="382" type="curve" smooth="yes"/>
      <point x="559" y="598"/>
      <point x="502" y="713"/>
      <point x="319" y="713" type="curve" smooth="yes"/>
      <point x="179" y="713"/>
      <point x="86" y="623"/>
      <point x="86" y="469" type="curve" smooth="yes"/>
      <point x="86" y="326"/>
      <point x="167" y="246"/>
      <point x="306" y="246" type="curve" smooth="yes"/>
      <point x="409" y="246"/>
      <point x="485" y="302"/>
      <point x="503" y="393" type="curve"/>
      <point x="481" y="470" type="line"/>
      <point x="478" y="358"/>
      <point x="408" y="315"/>
      <point x="308" y="315" type="curve" smooth="yes"/>
      <point x="208" y="315"/>
      <point x="163" y="368"/>
      <point x="163" y="471" type="curve" smooth="yes"/>
      <point x="163" y="578"/>
      <point x="218" y="645"/>
      <point x="316" y="645" type="curve" smooth="yes"/>
      <point x="475" y="645"/>
      <point x="481" y="516"/>
      <point x="481" y="424" type="curve" smooth="yes"/>
      <point x="481" y="207"/>
      <point x="453" y="56"/>
      <point x="304" y="56" type="curve" smooth="yes"/>
      <point x="209" y="56"/>
      <point x="172" y="103"/>
      <point x="172" y="165" type="curve" smooth="yes"/>
      <point x="172" y="173"/>
      <point x="173" y="181"/>
      <point x="174" y="189" type="curve"/>
      <point x="97" y="187" type="line"/>
      <point x="94" y="173"/>
      <point x="92" y="160"/>
      <point x="92" y="146" type="curve" smooth="yes"/>
      <point x="92" y="60"/>
      <point x="164" y="-10"/>
    </contour>
  </outline>
</glyph>
<glyph name="colon" format="2">
  <advance width="326"/>
  <unicode hex="003A"/>
  <outline>
    <contour>
      <point x="201" y="0" type="line"/>
      <point x="201" y="138" type="line"/>
      <point x="125" y="131" type="line"/>
      <point x="128" y="0" type="line"/>
    </contour>
    <contour>
      <point x="201" y="383" type="line"/>
      <point x="201" y="520" type="line"/>
      <point x="125" y="513" type="line"/>
      <point x="128" y="383" type="line"/>
    </contour>
  </outline>
</glyph>
<glyph name="less" format="2">
  <advance width="580"/>
  <unicode hex="003C"/>
  <outline>
    <contour>
      <point x="547" y="476" type="line"/>
      <point x="479" y="456"/>
      <point x="381" y="425"/>
      <point x="284" y="395" type="curve" smooth="yes"/>
      <point x="185" y="364"/>
      <point x="87" y="333"/>
      <point x="24" y="313" type="curve"/>
      <point x="15" y="246" type="line"/>
      <point x="93" y="273"/>
      <point x="207" y="305"/>
      <point x="317" y="333" type="curve" smooth="yes"/>
      <point x="408" y="357"/>
      <point x="496" y="379"/>
      <point x="561" y="395" type="curve"/>
    </contour>
    <contour>
      <point x="554" y="104" type="curve"/>
      <point x="555" y="185" type="line"/>
      <point x="475" y="204"/>
      <point x="390" y="224"/>
      <point x="308" y="244" type="curve" smooth="yes"/>
      <point x="201" y="269"/>
      <point x="99" y="294"/>
      <point x="24" y="313" type="curve"/>
      <point x="15" y="246" type="line"/>
      <point x="92" y="227"/>
      <point x="185" y="204"/>
      <point x="285" y="177" type="curve" smooth="yes"/>
      <point x="370" y="155"/>
      <point x="461" y="130"/>
    </contour>
  </outline>
</glyph>
<glyph name="greater" format="2">
  <advance width="580"/>
  <unicode hex="003E"/>
  <outline>
    <contour>
      <point x="29" y="104" type="line"/>
      <point x="97" y="124"/>
      <point x="195" y="155"/>
      <point x="292" y="185" type="curve" smooth="yes"/>
      <point x="391" y="216"/>
      <point x="489" y="247"/>
      <point x="552" y="267" type="curve"/>
      <point x="561" y="334" type="line"/>
      <point x="483" y="307"/>
      <point x="369" y="275"/>
      <point x="259" y="247" type="curve" smooth="yes"/>
      <point x="168" y="223"/>
      <point x="80" y="201"/>
      <point x="15" y="185" type="curve"/>
    </contour>
    <contour>
      <point x="22" y="476" type="curve"/>
      <point x="21" y="395" type="line"/>
      <point x="101" y="376"/>
      <point x="186" y="356"/>
      <point x="268" y="336" type="curve" smooth="yes"/>
      <point x="375" y="311"/>
      <point x="477" y="286"/>
      <point x="552" y="267" type="curve"/>
      <point x="561" y="334" type="line"/>
      <point x="484" y="353"/>
      <point x="391" y="376"/>
      <point x="291" y="403" type="curve" smooth="yes"/>
      <point x="206" y="425"/>
      <point x="115" y="450"/>
    </contour>
  </outline>
</glyph>
<glyph name="question" format="2">
  <advance width="696"/>
  <unicode hex="003F"/>
  <guideline x="539" y="767" angle="90"/>
  <guideline x="449" y="767" angle="90"/>
  <outline>
    <contour>
      <point x="387" y="215" type="line"/>
      <point x="383" y="235"/>
      <point x="380" y="251"/>
      <point x="380" y="276" type="curve" smooth="yes"/>
      <point x="380" y="323"/>
      <point x="419" y="347"/>
      <point x="462" y="376" type="curve" smooth="yes"/>
      <point x="514" y="411"/>
      <point x="571" y="453"/>
      <point x="571" y="549" type="curve" smooth="yes"/>
      <point x="571" y="649"/>
      <point x="490" y="716"/>
      <point x="356" y="716" type="curve" smooth="yes"/>
      <point x="201" y="716"/>
      <point x="125" y="632"/>
      <point x="125" y="528" type="curve" smooth="yes"/>
      <point x="125" y="504"/>
      <point x="130" y="478"/>
      <point x="138" y="452" type="curve"/>
      <point x="216" y="451" type="line"/>
      <point x="208" y="474"/>
      <point x="203" y="499"/>
      <point x="203" y="522" type="curve" smooth="yes"/>
      <point x="203" y="591"/>
      <point x="244" y="650"/>
      <point x="349" y="650" type="curve" smooth="yes"/>
      <point x="443" y="650"/>
      <point x="492" y="610"/>
      <point x="492" y="544" type="curve" smooth="yes"/>
      <point x="492" y="485"/>
      <point x="456" y="453"/>
      <point x="415" y="425" type="curve" smooth="yes"/>
      <point x="363" y="388"/>
      <point x="303" y="357"/>
      <point x="303" y="282" type="curve" smooth="yes"/>
      <point x="303" y="257"/>
      <point x="306" y="231"/>
      <point x="309" y="216" type="curve"/>
    </contour>
    <contour>
      <point x="392" y="-3" type="line"/>
      <point x="383" y="128" type="line"/>
      <point x="313" y="126" type="line"/>
      <point x="312" y="0" type="line"/>
    </contour>
  </outline>
</glyph>
<glyph name="at" format="2">
  <advance width="1058"/>
  <unicode hex="0040"/>
  <outline>
    <contour>
      <point x="502" y="-184" type="curve" smooth="yes"/>
      <point x="601" y="-184"/>
      <point x="711" y="-161"/>
      <point x="822" y="-115" type="curve"/>
      <point x="798" y="-68" type="line"/>
      <point x="696" y="-105"/>
      <point x="598" y="-124"/>
      <point x="511" y="-124" type="curve" smooth="yes"/>
      <point x="289" y="-124"/>
      <point x="130" y="-4"/>
      <point x="130" y="244" type="curve" smooth="yes"/>
      <point x="130" y="447"/>
      <point x="249" y="664"/>
      <point x="551" y="664" type="curve" smooth="yes"/>
      <point x="849" y="664"/>
      <point x="925" y="495"/>
      <point x="925" y="330" type="curve" smooth="yes"/>
      <point x="925" y="185"/>
      <point x="840" y="51"/>
      <point x="737" y="51" type="curve" smooth="yes"/>
      <point x="693" y="51"/>
      <point x="684" y="85"/>
      <point x="684" y="122" type="curve" smooth="yes"/>
      <point x="684" y="162"/>
      <point x="723" y="434"/>
      <point x="742" y="565" type="curve"/>
      <point x="665" y="555" type="line"/>
      <point x="657" y="500" type="line"/>
      <point x="629" y="537"/>
      <point x="589" y="560"/>
      <point x="523" y="560" type="curve" smooth="yes"/>
      <point x="392" y="560"/>
      <point x="274" y="447"/>
      <point x="274" y="197" type="curve" smooth="yes"/>
      <point x="274" y="75"/>
      <point x="326" y="-10"/>
      <point x="442" y="-10" type="curve" smooth="yes"/>
      <point x="528" y="-10"/>
      <point x="580" y="25"/>
      <point x="624" y="78" type="curve"/>
      <point x="631" y="34"/>
      <point x="652" y="-10"/>
      <point x="725" y="-10" type="curve" smooth="yes"/>
      <point x="884" y="-10"/>
      <point x="996" y="164"/>
      <point x="996" y="339" type="curve" smooth="yes"/>
      <point x="996" y="528"/>
      <point x="892" y="723"/>
      <point x="551" y="723" type="curve" smooth="yes"/>
      <point x="209" y="723"/>
      <point x="62" y="474"/>
      <point x="62" y="244" type="curve" smooth="yes"/>
      <point x="62" y="-38"/>
      <point x="250" y="-184"/>
    </contour>
    <contour>
      <point x="457" y="51" type="curve" smooth="yes"/>
      <point x="369" y="51"/>
      <point x="344" y="110"/>
      <point x="344" y="207" type="curve" smooth="yes"/>
      <point x="344" y="404"/>
      <point x="422" y="500"/>
      <point x="524" y="500" type="curve" smooth="yes"/>
      <point x="624" y="500"/>
      <point x="652" y="441"/>
      <point x="639" y="334" type="curve" smooth="yes"/>
      <point x="627" y="242" type="line" smooth="yes"/>
      <point x="612" y="124"/>
      <point x="560" y="51"/>
    </contour>
  </outline>
</glyph>
<glyph name="A" format="2">
  <advance width="584"/>
  <unicode hex="0041"/>
  <anchor x="288" y="0" name="bottom"/>
  <anchor x="526" y="0" name="ogonek"/>
  <anchor x="293" y="693" name="top"/>
  <outline>
    <contour>
      <point x="466" y="-6" type="curve"/>
      <point x="548" y="-1" type="line"/>
      <point x="521" y="86"/>
      <point x="482" y="219"/>
      <point x="444" y="352" type="curve" smooth="yes"/>
      <point x="406" y="484"/>
      <point x="369" y="616"/>
      <point x="345" y="704" type="curve"/>
      <point x="241" y="702" type="line"/>
      <point x="284" y="642" type="line"/>
      <point x="303" y="583"/>
      <point x="337" y="464"/>
      <point x="371" y="341" type="curve" smooth="yes"/>
      <point x="409" y="205"/>
      <point x="448" y="64"/>
    </contour>
    <contour>
      <point x="120" y="160" type="line"/>
      <point x="456" y="168" type="line"/>
      <point x="456" y="226" type="line"/>
      <point x="120" y="231" type="line"/>
    </contour>
    <contour>
      <point x="114" y="5" type="line"/>
      <point x="138" y="89"/>
      <point x="175" y="222"/>
      <point x="212" y="351" type="curve" smooth="yes"/>
      <point x="244" y="460"/>
      <point x="275" y="566"/>
      <point x="298" y="636" type="curve"/>
      <point x="345" y="704" type="line"/>
      <point x="241" y="702" type="line"/>
      <point x="219" y="626"/>
      <point x="179" y="487"/>
      <point x="139" y="350" type="curve" smooth="yes"/>
      <point x="99" y="212"/>
      <point x="58" y="76"/>
      <point x="36" y="6" type="curve"/>
    </contour>
  </outline>
</glyph>
<glyph name="B" format="2">
  <advance width="592"/>
  <unicode hex="0042"/>
  <outline>
    <contour>
      <point x="154" y="211" type="line"/>
      <point x="382" y="211"/>
      <point x="516" y="288"/>
      <point x="516" y="472" type="curve" smooth="yes"/>
      <point x="516" y="662"/>
      <point x="417" y="719"/>
      <point x="231" y="719" type="curve" smooth="yes"/>
      <point x="192" y="719"/>
      <point x="148" y="717"/>
      <point x="101" y="713" type="curve"/>
      <point x="124" y="646" type="line"/>
      <point x="170" y="652"/>
      <point x="211" y="656"/>
      <point x="247" y="656" type="curve" smooth="yes"/>
      <point x="370" y="656"/>
      <point x="440" y="608"/>
      <point x="440" y="469" type="curve" smooth="yes"/>
      <point x="440" y="316"/>
      <point x="359" y="263"/>
      <point x="150" y="263" type="curve"/>
    </contour>
    <contour>
      <point x="233" y="-10" type="curve" smooth="yes"/>
      <point x="394" y="-10"/>
      <point x="523" y="15"/>
      <point x="523" y="124" type="curve" smooth="yes"/>
      <point x="523" y="217"/>
      <point x="426" y="265"/>
      <point x="150" y="262" type="curve"/>
      <point x="154" y="203" type="line"/>
      <point x="189" y="204"/>
      <point x="222" y="205"/>
      <point x="253" y="205" type="curve" smooth="yes"/>
      <point x="363" y="205"/>
      <point x="447" y="190"/>
      <point x="447" y="126" type="curve" smooth="yes"/>
      <point x="447" y="70"/>
      <point x="374" y="54"/>
      <point x="285" y="54" type="curve" smooth="yes"/>
      <point x="238" y="54"/>
      <point x="186" y="57"/>
      <point x="132" y="62" type="curve"/>
      <point x="98" y="-6" type="line"/>
      <point x="145" y="-8"/>
      <point x="190" y="-10"/>
    </contour>
    <contour>
      <point x="98" y="-6" type="curve"/>
      <point x="181" y="4" type="line"/>
      <point x="181" y="4"/>
      <point x="176" y="215"/>
      <point x="176" y="335" type="curve" smooth="yes"/>
      <point x="176" y="451"/>
      <point x="185" y="704"/>
      <point x="185" y="704" type="curve"/>
      <point x="101" y="713" type="line"/>
      <point x="101" y="713"/>
      <point x="102" y="504"/>
      <point x="102" y="333" type="curve" smooth="yes"/>
      <point x="102" y="162"/>
      <point x="98" y="-6"/>
    </contour>
  </outline>
</glyph>
<glyph name="C" format="2">
  <advance width="548"/>
  <unicode hex="0043"/>
  <anchor x="280" y="0" name="bottom"/>
  <anchor x="288" y="693" name="top"/>
  <outline>
    <contour>
      <point x="286" y="-10" type="curve"/>
      <point x="414" y="-10"/>
      <point x="487" y="49"/>
      <point x="487" y="184" type="curve" smooth="yes"/>
      <point x="487" y="191"/>
      <point x="486" y="200"/>
      <point x="486" y="208" type="curve"/>
      <point x="416" y="208" type="line"/>
      <point x="418" y="196"/>
      <point x="418" y="184"/>
      <point x="418" y="173" type="curve" smooth="yes"/>
      <point x="418" y="88"/>
      <point x="367" y="54"/>
      <point x="292" y="54" type="curve" smooth="yes"/>
      <point x="218" y="54"/>
      <point x="179" y="93"/>
      <point x="158" y="152" type="curve" smooth="yes"/>
      <point x="139" y="203"/>
      <point x="135" y="268"/>
      <point x="135" y="336" type="curve" smooth="yes"/>
      <point x="135" y="409"/>
      <point x="139" y="472"/>
      <point x="155" y="523" type="curve" smooth="yes"/>
      <point x="178" y="595"/>
      <point x="216" y="638"/>
      <point x="292" y="638" type="curve" smooth="yes"/>
      <point x="390" y="638"/>
      <point x="419" y="574"/>
      <point x="419" y="472" type="curve" smooth="yes"/>
      <point x="419" y="437"/>
      <point x="415" y="394"/>
      <point x="410" y="353" type="curve"/>
      <point x="483" y="352" type="line"/>
      <point x="490" y="393"/>
      <point x="494" y="433"/>
      <point x="494" y="471" type="curve" smooth="yes"/>
      <point x="494" y="601"/>
      <point x="446" y="701"/>
      <point x="298" y="701" type="curve" smooth="yes"/>
      <point x="187" y="701"/>
      <point x="122" y="643"/>
      <point x="88" y="553" type="curve" smooth="yes"/>
      <point x="66" y="493"/>
      <point x="57" y="420"/>
      <point x="57" y="340" type="curve" smooth="yes"/>
      <point x="57" y="260"/>
      <point x="65" y="185"/>
      <point x="89" y="125" type="curve" smooth="yes"/>
      <point x="120" y="44"/>
      <point x="180" y="-10"/>
    </contour>
  </outline>
</glyph>
<glyph name="D" format="2">
  <advance width="591"/>
  <unicode hex="0044"/>
  <anchor x="194" y="348" name="center"/>
  <anchor x="299" y="693" name="top"/>
  <outline>
    <contour>
      <point x="221" y="-10" type="curve" smooth="yes"/>
      <point x="453" y="-10"/>
      <point x="534" y="94"/>
      <point x="534" y="359" type="curve" smooth="yes"/>
      <point x="534" y="623"/>
      <point x="459" y="708"/>
      <point x="221" y="708" type="curve" smooth="yes"/>
      <point x="184" y="708"/>
      <point x="143" y="706"/>
      <point x="98" y="702" type="curve"/>
      <point x="121" y="634" type="line"/>
      <point x="170" y="642"/>
      <point x="212" y="646"/>
      <point x="248" y="646" type="curve" smooth="yes"/>
      <point x="423" y="646"/>
      <point x="456" y="549"/>
      <point x="456" y="354" type="curve" smooth="yes"/>
      <point x="456" y="157"/>
      <point x="423" y="59"/>
      <point x="244" y="59" type="curve" smooth="yes"/>
      <point x="215" y="59"/>
      <point x="183" y="61"/>
      <point x="146" y="66" type="curve"/>
      <point x="101" y="-3" type="line"/>
      <point x="145" y="-8"/>
      <point x="189" y="-10"/>
    </contour>
    <contour>
      <point x="101" y="-3" type="curve"/>
      <point x="184" y="-3" type="line"/>
      <point x="182" y="104"/>
      <point x="180" y="277"/>
      <point x="180" y="361" type="curve"/>
      <point x="181" y="459"/>
      <point x="182" y="616"/>
      <point x="183" y="692" type="curve"/>
      <point x="98" y="702" type="line"/>
      <point x="101" y="630"/>
      <point x="105" y="488"/>
      <point x="105" y="363" type="curve"/>
      <point x="105" y="238"/>
      <point x="103" y="81"/>
    </contour>
  </outline>
</glyph>
<glyph name="E" format="2">
  <advance width="540"/>
  <unicode hex="0045"/>
  <anchor x="290" y="0" name="bottom"/>
  <anchor x="385" y="-3" name="ogonek"/>
  <anchor x="284" y="693" name="top"/>
  <outline>
    <contour>
      <point x="98" y="-5" type="curve"/>
      <point x="180" y="5" type="line"/>
      <point x="180" y="5"/>
      <point x="176" y="278"/>
      <point x="176" y="393" type="curve"/>
      <point x="176" y="509"/>
      <point x="179" y="690"/>
      <point x="179" y="690" type="curve"/>
      <point x="98" y="699" type="line"/>
      <point x="98" y="699"/>
      <point x="101" y="560"/>
      <point x="101" y="391" type="curve"/>
      <point x="101" y="220"/>
      <point x="98" y="-5"/>
    </contour>
    <contour>
      <point x="98" y="-5" type="line"/>
      <point x="467" y="0" type="line"/>
      <point x="467" y="63" type="line"/>
      <point x="142" y="68" type="line"/>
    </contour>
    <contour>
      <point x="137" y="202" type="line"/>
      <point x="462" y="206" type="line"/>
      <point x="464" y="269" type="line"/>
      <point x="137" y="272" type="line"/>
    </contour>
    <contour>
      <point x="130" y="623" type="line"/>
      <point x="455" y="624" type="line"/>
      <point x="455" y="693" type="line"/>
      <point x="98" y="699" type="line"/>
    </contour>
  </outline>
</glyph>
<glyph name="F" format="2">
  <advance width="490"/>
  <unicode hex="0046"/>
  <outline>
    <contour>
      <point x="98" y="-3" type="curve"/>
      <point x="179" y="0" type="line"/>
      <point x="179" y="0"/>
      <point x="175" y="206"/>
      <point x="175" y="322" type="curve"/>
      <point x="175" y="438"/>
      <point x="179" y="699"/>
      <point x="179" y="699" type="curve"/>
      <point x="99" y="709" type="line"/>
      <point x="99" y="709"/>
      <point x="102" y="495"/>
      <point x="102" y="324" type="curve"/>
      <point x="102" y="153"/>
      <point x="98" y="-3"/>
    </contour>
    <contour>
      <point x="139" y="240" type="line"/>
      <point x="430" y="249" type="line"/>
      <point x="428" y="308" type="line"/>
      <point x="139" y="310" type="line"/>
    </contour>
    <contour>
      <point x="142" y="636" type="line"/>
      <point x="426" y="638" type="line"/>
      <point x="429" y="702" type="line"/>
      <point x="99" y="709" type="line"/>
    </contour>
  </outline>
</glyph>
<glyph name="G" format="2">
  <advance width="557"/>
  <unicode hex="0047"/>
  <anchor x="279" y="0" name="bottom"/>
  <anchor x="282" y="693" name="top"/>
  <outline>
    <contour>
      <point x="57" y="347" type="curve" smooth="yes"/>
      <point x="57" y="269"/>
      <point x="65" y="190"/>
      <point x="89" y="126" type="curve" smooth="yes"/>
      <point x="119" y="48"/>
      <point x="175" y="-7"/>
      <point x="274" y="-7" type="curve" smooth="yes"/>
      <point x="371" y="-7"/>
      <point x="412" y="23"/>
      <point x="443" y="59" type="curve"/>
      <point x="455" y="0" type="line"/>
      <point x="495" y="0" type="line"/>
      <point x="489" y="258" type="line"/>
      <point x="285" y="260" type="line"/>
      <point x="285" y="196" type="line"/>
      <point x="420" y="198" type="line"/>
      <point x="420" y="190"/>
      <point x="421" y="183"/>
      <point x="421" y="176" type="curve" smooth="yes"/>
      <point x="420" y="106"/>
      <point x="397" y="57"/>
      <point x="284" y="57" type="curve" smooth="yes"/>
      <point x="216" y="57"/>
      <point x="178" y="96"/>
      <point x="158" y="154" type="curve" smooth="yes"/>
      <point x="139" y="206"/>
      <point x="134" y="273"/>
      <point x="134" y="342" type="curve" smooth="yes"/>
      <point x="134" y="411"/>
      <point x="139" y="478"/>
      <point x="156" y="532" type="curve" smooth="yes"/>
      <point x="177" y="600"/>
      <point x="218" y="647"/>
      <point x="291" y="647" type="curve" smooth="yes"/>
      <point x="384" y="647"/>
      <point x="414" y="577"/>
      <point x="414" y="487" type="curve" smooth="yes"/>
      <point x="414" y="454"/>
      <point x="410" y="419"/>
      <point x="404" y="384" type="curve"/>
      <point x="478" y="384" type="line"/>
      <point x="484" y="421"/>
      <point x="488" y="457"/>
      <point x="488" y="490" type="curve" smooth="yes"/>
      <point x="488" y="616"/>
      <point x="438" y="710"/>
      <point x="293" y="710" type="curve" smooth="yes"/>
      <point x="184" y="710"/>
      <point x="122" y="649"/>
      <point x="89" y="562" type="curve" smooth="yes"/>
      <point x="65" y="499"/>
      <point x="57" y="424"/>
    </contour>
  </outline>
</glyph>
<glyph name="H" format="2">
  <advance width="643"/>
  <unicode hex="0048"/>
  <anchor x="318" y="0" name="bottom"/>
  <anchor x="317" y="459" name="center"/>
  <anchor x="317" y="693" name="top"/>
  <outline>
    <contour>
      <point x="451" y="0" type="curve"/>
      <point x="541" y="0" type="line"/>
      <point x="538" y="103"/>
      <point x="536" y="227"/>
      <point x="536" y="363" type="curve" smooth="yes"/>
      <point x="536" y="465"/>
      <point x="540" y="611"/>
      <point x="545" y="708" type="curve"/>
      <point x="457" y="706" type="line"/>
      <point x="460" y="609"/>
      <point x="463" y="439"/>
      <point x="461" y="351" type="curve" smooth="yes"/>
      <point x="459" y="271"/>
      <point x="455" y="108"/>
    </contour>
    <contour>
      <point x="162" y="257" type="line"/>
      <point x="162" y="192" type="line"/>
      <point x="494" y="188" type="line"/>
      <point x="494" y="264" type="line"/>
    </contour>
    <contour>
      <point x="101" y="2" type="curve"/>
      <point x="186" y="3" type="line"/>
      <point x="183" y="121"/>
      <point x="181" y="276"/>
      <point x="181" y="352" type="curve" smooth="yes"/>
      <point x="181" y="438"/>
      <point x="183" y="574"/>
      <point x="187" y="698" type="curve"/>
      <point x="98" y="694" type="line"/>
      <point x="102" y="623"/>
      <point x="107" y="495"/>
      <point x="106" y="353" type="curve" smooth="yes"/>
      <point x="105" y="183"/>
      <point x="101" y="2"/>
    </contour>
  </outline>
</glyph>
<glyph name="I" format="2">
  <advance width="285"/>
  <unicode hex="0049"/>
  <anchor x="140" y="0" name="bottom"/>
  <anchor x="144" y="-4" name="ogonek"/>
  <anchor x="142" y="693" name="top"/>
  <outline>
    <contour>
      <point x="102" y="699" type="line"/>
      <point x="104" y="657"/>
      <point x="103" y="487"/>
      <point x="103" y="328" type="curve"/>
      <point x="103" y="157"/>
      <point x="98" y="1"/>
      <point x="98" y="1" type="curve"/>
      <point x="182" y="-1" type="line"/>
      <point x="182" y="-1"/>
      <point x="177" y="213"/>
      <point x="177" y="330" type="curve"/>
      <point x="177" y="446"/>
      <point x="187" y="701"/>
      <point x="187" y="701" type="curve"/>
    </contour>
  </outline>
</glyph>
<glyph name="J" format="2">
  <advance width="535"/>
  <unicode hex="004A"/>
  <anchor x="403" y="693" name="top"/>
  <outline>
    <contour>
      <point x="235" y="-10" type="curve"/>
      <point x="400" y="-10"/>
      <point x="442" y="101"/>
      <point x="442" y="244" type="curve"/>
      <point x="442" y="314"/>
      <point x="442" y="370"/>
      <point x="442" y="438" type="curve"/>
      <point x="442" y="528"/>
      <point x="442" y="604"/>
      <point x="444" y="697" type="curve"/>
      <point x="362" y="695" type="line"/>
      <point x="366" y="608"/>
      <point x="367" y="500"/>
      <point x="367" y="432" type="curve"/>
      <point x="368" y="355"/>
      <point x="368" y="286"/>
      <point x="368" y="246" type="curve"/>
      <point x="368" y="155"/>
      <point x="354" y="54"/>
      <point x="242" y="54" type="curve"/>
      <point x="141" y="54"/>
      <point x="114" y="117"/>
      <point x="114" y="202" type="curve" smooth="yes"/>
      <point x="114" y="232"/>
      <point x="118" y="264"/>
      <point x="122" y="298" type="curve"/>
      <point x="51" y="299" type="line"/>
      <point x="46" y="265"/>
      <point x="43" y="232"/>
      <point x="43" y="199" type="curve" smooth="yes"/>
      <point x="43" y="85"/>
      <point x="84" y="-10"/>
    </contour>
  </outline>
</glyph>
<glyph name="K" format="2">
  <advance width="557"/>
  <unicode hex="004B"/>
  <anchor x="296" y="0" name="bottom"/>
  <outline>
    <contour>
      <point x="439" y="1" type="curve"/>
      <point x="548" y="5" type="line"/>
      <point x="432" y="104"/>
      <point x="321" y="207"/>
      <point x="222" y="301" type="curve"/>
      <point x="300" y="405"/>
      <point x="458" y="605"/>
      <point x="541" y="704" type="curve"/>
      <point x="446" y="702" type="line"/>
      <point x="379" y="609"/>
      <point x="251" y="435"/>
      <point x="132" y="281" type="curve"/>
      <point x="241" y="190"/>
      <point x="348" y="89"/>
    </contour>
    <contour>
      <point x="98" y="0" type="curve"/>
      <point x="182" y="0" type="line"/>
      <point x="182" y="0"/>
      <point x="178" y="212"/>
      <point x="178" y="357" type="curve"/>
      <point x="178" y="503"/>
      <point x="184" y="702"/>
      <point x="184" y="702" type="curve"/>
      <point x="101" y="703" type="line"/>
      <point x="101" y="703"/>
      <point x="104" y="499"/>
      <point x="104" y="356" type="curve"/>
      <point x="104" y="213"/>
      <point x="98" y="0"/>
    </contour>
  </outline>
</glyph>
<glyph name="L" format="2">
  <advance width="480"/>
  <unicode hex="004C"/>
  <anchor x="274" y="0" name="bottom"/>
  <anchor x="176" y="350" name="center"/>
  <anchor x="180" y="693" name="top"/>
  <anchor x="300" y="478" name="topright"/>
  <outline>
    <contour>
      <point x="98" y="-5" type="curve"/>
      <point x="179" y="5" type="line"/>
      <point x="179" y="5"/>
      <point x="175" y="266"/>
      <point x="175" y="383" type="curve"/>
      <point x="175" y="499"/>
      <point x="182" y="706"/>
      <point x="182" y="706" type="curve"/>
      <point x="98" y="700" type="line"/>
      <point x="98" y="700"/>
      <point x="101" y="552"/>
      <point x="101" y="381" type="curve"/>
      <point x="101" y="210"/>
      <point x="98" y="-5"/>
    </contour>
    <contour>
      <point x="98" y="-5" type="line"/>
      <point x="450" y="3" type="line"/>
      <point x="450" y="66" type="line"/>
      <point x="142" y="69" type="line"/>
    </contour>
  </outline>
</glyph>
<glyph name="M" format="2">
  <advance width="849"/>
  <unicode hex="004D"/>
  <outline>
    <contour>
      <point x="98" y="-1" type="curve"/>
      <point x="171" y="-1" type="line"/>
      <point x="170" y="67"/>
      <point x="169" y="218"/>
      <point x="168" y="355" type="curve" smooth="yes"/>
      <point x="168" y="456"/>
      <point x="167" y="549"/>
      <point x="167" y="598" type="curve"/>
      <point x="189" y="538"/>
      <point x="224" y="443"/>
      <point x="261" y="338" type="curve" smooth="yes"/>
      <point x="300" y="228"/>
      <point x="342" y="107"/>
      <point x="376" y="10" type="curve"/>
      <point x="467" y="7" type="line"/>
      <point x="498" y="98"/>
      <point x="546" y="236"/>
      <point x="589" y="360" type="curve" smooth="yes"/>
      <point x="624" y="460"/>
      <point x="656" y="550"/>
      <point x="675" y="601" type="curve"/>
      <point x="675" y="542"/>
      <point x="675" y="451"/>
      <point x="675" y="347" type="curve" smooth="yes"/>
      <point x="675" y="237"/>
      <point x="675" y="113"/>
      <point x="674" y="0" type="curve"/>
      <point x="751" y="-2" type="line"/>
      <point x="749" y="81"/>
      <point x="749" y="216"/>
      <point x="749" y="352" type="curve" smooth="yes"/>
      <point x="749" y="481"/>
      <point x="749" y="611"/>
      <point x="750" y="697" type="curve"/>
      <point x="637" y="697" type="line"/>
      <point x="616" y="633"/>
      <point x="568" y="492"/>
      <point x="521" y="357" type="curve" smooth="yes"/>
      <point x="481" y="243"/>
      <point x="443" y="132"/>
      <point x="422" y="75" type="curve"/>
      <point x="400" y="135"/>
      <point x="364" y="239"/>
      <point x="327" y="347" type="curve" smooth="yes"/>
      <point x="279" y="484"/>
      <point x="229" y="630"/>
      <point x="204" y="704" type="curve"/>
      <point x="99" y="702" type="line"/>
      <point x="101" y="637"/>
      <point x="101" y="489"/>
      <point x="101" y="343" type="curve" smooth="yes"/>
      <point x="100" y="203"/>
      <point x="99" y="64"/>
    </contour>
  </outline>
</glyph>
<glyph name="P" format="2">
  <advance width="549"/>
  <unicode hex="0050"/>
  <outline>
    <contour>
      <point x="152" y="211" type="line"/>
      <point x="373" y="211"/>
      <point x="520" y="264"/>
      <point x="520" y="470" type="curve"/>
      <point x="520" y="663"/>
      <point x="436" y="713"/>
      <point x="215" y="713" type="curve" smooth="yes"/>
      <point x="180" y="713"/>
      <point x="141" y="712"/>
      <point x="99" y="710" type="curve"/>
      <point x="121" y="644" type="line"/>
      <point x="167" y="648"/>
      <point x="207" y="650"/>
      <point x="241" y="650" type="curve" smooth="yes"/>
      <point x="397" y="650"/>
      <point x="442" y="604"/>
      <point x="442" y="459" type="curve"/>
      <point x="442" y="302"/>
      <point x="336" y="278"/>
      <point x="148" y="278" type="curve"/>
    </contour>
    <contour>
      <point x="98" y="-6" type="curve"/>
      <point x="181" y="-2" type="line"/>
      <point x="179" y="103"/>
      <point x="177" y="274"/>
      <point x="177" y="359" type="curve"/>
      <point x="177" y="457"/>
      <point x="181" y="608"/>
      <point x="183" y="703" type="curve"/>
      <point x="99" y="710" type="line"/>
      <point x="100" y="632"/>
      <point x="102" y="482"/>
      <point x="102" y="357" type="curve"/>
      <point x="102" y="232"/>
      <point x="100" y="77"/>
    </contour>
  </outline>
</glyph>
<glyph name="R" format="2">
  <advance width="589"/>
  <unicode hex="0052"/>
  <anchor x="315" y="0" name="bottom"/>
  <anchor x="300" y="693" name="top"/>
  <outline>
    <contour>
      <point x="152" y="221" type="line"/>
      <point x="373" y="221"/>
      <point x="520" y="274"/>
      <point x="520" y="470" type="curve"/>
      <point x="520" y="663"/>
      <point x="436" y="713"/>
      <point x="215" y="713" type="curve" smooth="yes"/>
      <point x="180" y="713"/>
      <point x="141" y="712"/>
      <point x="99" y="710" type="curve"/>
      <point x="121" y="644" type="line"/>
      <point x="167" y="648"/>
      <point x="207" y="650"/>
      <point x="241" y="650" type="curve" smooth="yes"/>
      <point x="397" y="650"/>
      <point x="442" y="604"/>
      <point x="442" y="459" type="curve"/>
      <point x="442" y="312"/>
      <point x="336" y="288"/>
      <point x="148" y="288" type="curve"/>
    </contour>
    <contour>
      <point x="98" y="-6" type="curve"/>
      <point x="181" y="-2" type="line"/>
      <point x="179" y="108"/>
      <point x="177" y="282"/>
      <point x="177" y="359" type="curve"/>
      <point x="177" y="457"/>
      <point x="181" y="608"/>
      <point x="183" y="703" type="curve"/>
      <point x="99" y="710" type="line"/>
      <point x="100" y="632"/>
      <point x="102" y="482"/>
      <point x="102" y="357" type="curve"/>
      <point x="102" y="232"/>
      <point x="100" y="77"/>
    </contour>
    <contour>
      <point x="460" y="-6" type="curve"/>
      <point x="567" y="-3" type="line"/>
      <point x="489" y="103"/>
      <point x="422" y="203"/>
      <point x="368" y="301" type="curve"/>
      <point x="290" y="271" type="line"/>
      <point x="358" y="173"/>
      <point x="411" y="85"/>
    </contour>
  </outline>
</glyph>
<glyph name="S" format="2">
  <advance width="578"/>
  <unicode hex="0053"/>
  <anchor x="295" y="0" name="bottom"/>
  <anchor x="301" y="693" name="top"/>
  <outline>
    <contour>
      <point x="289" y="-10" type="curve"/>
      <point x="451" y="-10"/>
      <point x="518" y="68"/>
      <point x="518" y="163" type="curve" smooth="yes"/>
      <point x="518" y="271"/>
      <point x="402" y="306"/>
      <point x="299" y="349" type="curve" smooth="yes"/>
      <point x="217" y="383"/>
      <point x="143" y="410"/>
      <point x="143" y="504" type="curve" smooth="yes"/>
      <point x="143" y="557"/>
      <point x="169" y="641"/>
      <point x="295" y="641" type="curve"/>
      <point x="411" y="641"/>
      <point x="443" y="573"/>
      <point x="443" y="487" type="curve" smooth="yes"/>
      <point x="443" y="457"/>
      <point x="439" y="426"/>
      <point x="434" y="394" type="curve"/>
      <point x="511" y="394" type="line"/>
      <point x="517" y="428"/>
      <point x="520" y="462"/>
      <point x="520" y="493" type="curve" smooth="yes"/>
      <point x="520" y="614"/>
      <point x="469" y="704"/>
      <point x="297" y="704" type="curve"/>
      <point x="135" y="704"/>
      <point x="67" y="605"/>
      <point x="67" y="500" type="curve" smooth="yes"/>
      <point x="67" y="376"/>
      <point x="152" y="327"/>
      <point x="248" y="288" type="curve" smooth="yes"/>
      <point x="344" y="249"/>
      <point x="441" y="222"/>
      <point x="441" y="151" type="curve" smooth="yes"/>
      <point x="441" y="101"/>
      <point x="413" y="54"/>
      <point x="285" y="54" type="curve"/>
      <point x="173" y="54"/>
      <point x="141" y="102"/>
      <point x="141" y="168" type="curve" smooth="yes"/>
      <point x="141" y="184"/>
      <point x="143" y="200"/>
      <point x="146" y="217" type="curve"/>
      <point x="74" y="217" type="line"/>
      <point x="70" y="198"/>
      <point x="68" y="179"/>
      <point x="68" y="161" type="curve" smooth="yes"/>
      <point x="68" y="63"/>
      <point x="130" y="-10"/>
    </contour>
  </outline>
</glyph>
<glyph name="V" format="2">
  <advance width="588"/>
  <unicode hex="0056"/>
  <outline>
    <contour>
      <point x="31" y="712" type="line"/>
      <point x="75" y="566"/>
      <point x="108" y="457"/>
      <point x="141" y="343" type="curve" smooth="yes"/>
      <point x="171" y="242"/>
      <point x="201" y="138"/>
      <point x="241" y="3" type="curve"/>
      <point x="349" y="0" type="line"/>
      <point x="384" y="122"/>
      <point x="416" y="234"/>
      <point x="449" y="345" type="curve" smooth="yes"/>
      <point x="484" y="463"/>
      <point x="518" y="580"/>
      <point x="557" y="708" type="curve"/>
      <point x="474" y="705" type="line"/>
      <point x="444" y="593"/>
      <point x="409" y="466"/>
      <point x="377" y="355" type="curve" smooth="yes"/>
      <point x="342" y="232"/>
      <point x="311" y="128"/>
      <point x="296" y="84" type="curve"/>
      <point x="283" y="126"/>
      <point x="250" y="242"/>
      <point x="215" y="366" type="curve" smooth="yes"/>
      <point x="177" y="502"/>
      <point x="136" y="647"/>
      <point x="117" y="713" type="curve"/>
    </contour>
  </outline>
</glyph>
<glyph name="W" format="2">
  <advance width="978"/>
  <unicode hex="0057"/>
  <anchor x="484" y="693" name="top"/>
  <outline>
    <contour>
      <point x="335" y="0" type="line"/>
      <point x="357" y="84"/>
      <point x="392" y="216"/>
      <point x="426" y="345" type="curve" smooth="yes"/>
      <point x="445" y="416"/>
      <point x="466" y="487"/>
      <point x="483" y="549" type="curve"/>
      <point x="502" y="484"/>
      <point x="524" y="408"/>
      <point x="546" y="332" type="curve" smooth="yes"/>
      <point x="582" y="207"/>
      <point x="618" y="81"/>
      <point x="639" y="0" type="curve"/>
      <point x="747" y="3" type="line"/>
      <point x="773" y="96"/>
      <point x="806" y="217"/>
      <point x="841" y="341" type="curve" smooth="yes"/>
      <point x="877" y="472"/>
      <point x="916" y="607"/>
      <point x="947" y="713" type="curve"/>
      <point x="861" y="714" type="line"/>
      <point x="843" y="640"/>
      <point x="803" y="488"/>
      <point x="766" y="351" type="curve" smooth="yes"/>
      <point x="731" y="222"/>
      <point x="699" y="106"/>
      <point x="692" y="84" type="curve"/>
      <point x="679" y="127"/>
      <point x="648" y="226"/>
      <point x="617" y="337" type="curve" smooth="yes"/>
      <point x="586" y="445"/>
      <point x="552" y="564"/>
      <point x="530" y="650" type="curve"/>
      <point x="433" y="650" type="line"/>
      <point x="413" y="567"/>
      <point x="383" y="454"/>
      <point x="356" y="350" type="curve" smooth="yes"/>
      <point x="327" y="234"/>
      <point x="297" y="128"/>
      <point x="284" y="84" type="curve"/>
      <point x="277" y="107"/>
      <point x="245" y="222"/>
      <point x="210" y="351" type="curve" smooth="yes"/>
      <point x="174" y="483"/>
      <point x="135" y="628"/>
      <point x="117" y="701" type="curve"/>
      <point x="31" y="700" type="line"/>
      <point x="62" y="596"/>
      <point x="99" y="468"/>
      <point x="134" y="342" type="curve" smooth="yes"/>
      <point x="169" y="219"/>
      <point x="203" y="98"/>
      <point x="229" y="3" type="curve"/>
    </contour>
  </outline>
</glyph>
<glyph name="X" format="2">
  <advance width="567"/>
  <unicode hex="0058"/>
  <outline>
    <contour>
      <point x="11" y="-2" type="curve"/>
      <point x="104" y="-1" type="line"/>
      <point x="104" y="-1"/>
      <point x="206" y="175"/>
      <point x="316" y="350" type="curve"/>
      <point x="423" y="521"/>
      <point x="539" y="691"/>
      <point x="539" y="691" type="curve"/>
      <point x="449" y="692" type="line"/>
      <point x="449" y="692"/>
      <point x="348" y="527"/>
      <point x="243" y="359" type="curve"/>
      <point x="133" y="184"/>
      <point x="11" y="-2"/>
    </contour>
    <contour>
      <point x="458" y="-11" type="curve"/>
      <point x="556" y="-7" type="line"/>
      <point x="556" y="-7"/>
      <point x="426" y="196"/>
      <point x="323" y="369" type="curve"/>
      <point x="221" y="536"/>
      <point x="133" y="688"/>
      <point x="133" y="688" type="curve"/>
      <point x="36" y="690" type="line"/>
      <point x="36" y="690"/>
      <point x="149" y="516"/>
      <point x="253" y="346" type="curve"/>
      <point x="357" y="173"/>
      <point x="458" y="-11"/>
    </contour>
  </outline>
</glyph>
<glyph name="Y" format="2">
  <advance width="535"/>
  <unicode hex="0059"/>
  <anchor x="260" y="0" name="bottom"/>
  <anchor x="267" y="693" name="top"/>
  <outline>
    <contour>
      <point x="224" y="0" type="curve"/>
      <point x="304" y="1" type="line"/>
      <point x="304" y="1"/>
      <point x="301" y="121"/>
      <point x="298" y="231" type="curve"/>
      <point x="225" y="233" type="line"/>
      <point x="228" y="71"/>
      <point x="224" y="0"/>
    </contour>
    <contour>
      <point x="18" y="704" type="line"/>
      <point x="43" y="643"/>
      <point x="83" y="541"/>
      <point x="122" y="438" type="curve" smooth="yes"/>
      <point x="170" y="313"/>
      <point x="217" y="189"/>
      <point x="233" y="141" type="curve"/>
      <point x="293" y="141" type="line"/>
      <point x="308" y="184"/>
      <point x="358" y="311"/>
      <point x="408" y="435" type="curve" smooth="yes"/>
      <point x="453" y="547"/>
      <point x="498" y="657"/>
      <point x="517" y="698" type="curve"/>
      <point x="430" y="696" type="line"/>
      <point x="411" y="644"/>
      <point x="375" y="545"/>
      <point x="340" y="452" type="curve" smooth="yes"/>
      <point x="310" y="374"/>
      <point x="282" y="301"/>
      <point x="264" y="262" type="curve"/>
      <point x="253" y="290"/>
      <point x="225" y="365"/>
      <point x="196" y="446" type="curve" smooth="yes"/>
      <point x="158" y="551"/>
      <point x="117" y="667"/>
      <point x="105" y="704" type="curve"/>
    </contour>
  </outline>
</glyph>
<glyph name="Z" format="2">
  <advance width="479"/>
  <unicode hex="005A"/>
  <anchor x="230" y="693" name="top"/>
  <outline>
    <contour>
      <point x="43" y="693" type="curve"/>
      <point x="42" y="623" type="line"/>
      <point x="42" y="623"/>
      <point x="154" y="626"/>
      <point x="226" y="626" type="curve" smooth="yes"/>
      <point x="256" y="626"/>
      <point x="325" y="625"/>
      <point x="355" y="625" type="curve"/>
      <point x="315" y="555"/>
      <point x="256" y="453"/>
      <point x="192" y="345" type="curve" smooth="yes"/>
      <point x="136" y="251"/>
      <point x="77" y="153"/>
      <point x="26" y="69" type="curve"/>
      <point x="30" y="1" type="line"/>
      <point x="30" y="1"/>
      <point x="127" y="3"/>
      <point x="240" y="3" type="curve" smooth="yes"/>
      <point x="303" y="3"/>
      <point x="391" y="1"/>
      <point x="453" y="0" type="curve"/>
      <point x="453" y="72" type="line"/>
      <point x="395" y="71"/>
      <point x="318" y="71"/>
      <point x="261" y="69" type="curve" smooth="yes"/>
      <point x="231" y="68"/>
      <point x="151" y="69"/>
      <point x="114" y="69" type="curve"/>
      <point x="147" y="125"/>
      <point x="205" y="224"/>
      <point x="267" y="327" type="curve" smooth="yes"/>
      <point x="331" y="436"/>
      <point x="399" y="549"/>
      <point x="445" y="623" type="curve"/>
      <point x="442" y="695" type="line"/>
      <point x="385" y="694"/>
      <point x="306" y="693"/>
      <point x="249" y="692" type="curve" smooth="yes"/>
      <point x="189" y="691"/>
      <point x="77" y="691"/>
    </contour>
  </outline>
</glyph>
<glyph name="bracketleft" format="2">
  <advance width="557"/>
  <unicode hex="005B"/>
  <outline>
    <contour>
      <point x="125" y="-137" type="curve"/>
      <point x="201" y="-130" type="line"/>
      <point x="201" y="-130"/>
      <point x="201" y="179"/>
      <point x="201" y="315" type="curve"/>
      <point x="201" y="452"/>
      <point x="201" y="671"/>
      <point x="201" y="671" type="curve"/>
      <point x="132" y="691" type="line"/>
      <point x="132" y="691"/>
      <point x="136" y="505"/>
      <point x="136" y="304" type="curve"/>
      <point x="136" y="104"/>
      <point x="125" y="-137"/>
    </contour>
    <contour>
      <point x="125" y="-137" type="line"/>
      <point x="175" y="-135"/>
      <point x="428" y="-130"/>
      <point x="428" y="-130" type="curve"/>
      <point x="431" y="-71" type="line"/>
      <point x="431" y="-71"/>
      <point x="200" y="-70"/>
      <point x="150" y="-67" type="curve"/>
    </contour>
    <contour>
      <point x="159" y="627" type="line"/>
      <point x="209" y="628"/>
      <point x="432" y="629"/>
      <point x="432" y="629" type="curve"/>
      <point x="425" y="693" type="line"/>
      <point x="425" y="693"/>
      <point x="187" y="691"/>
      <point x="132" y="691" type="curve"/>
    </contour>
  </outline>
</glyph>
<glyph name="backslash" format="2">
  <advance width="412"/>
  <unicode hex="005C"/>
  <outline>
    <contour>
      <point x="384" y="-1" type="line"/>
      <point x="384" y="-1"/>
      <point x="298" y="193"/>
      <point x="243" y="339" type="curve"/>
      <point x="185" y="485"/>
      <point x="114" y="697"/>
      <point x="114" y="697" type="curve"/>
      <point x="28" y="695" type="line"/>
      <point x="28" y="695"/>
      <point x="115" y="484"/>
      <point x="171" y="340" type="curve"/>
      <point x="227" y="197"/>
      <point x="302" y="0"/>
      <point x="302" y="0" type="curve"/>
    </contour>
  </outline>
</glyph>
<glyph name="bracketright" format="2">
  <advance width="557"/>
  <unicode hex="005D"/>
  <outline>
    <contour>
      <point x="425" y="-135" type="line"/>
      <point x="423" y="-55"/>
      <point x="421" y="105"/>
      <point x="421" y="252" type="curve"/>
      <point x="421" y="398"/>
      <point x="427" y="589"/>
      <point x="432" y="693" type="curve"/>
      <point x="356" y="686" type="line"/>
      <point x="356" y="553"/>
      <point x="356" y="340"/>
      <point x="356" y="241" type="curve"/>
      <point x="356" y="141"/>
      <point x="356" y="-21"/>
      <point x="356" y="-115" type="curve"/>
    </contour>
    <contour>
      <point x="132" y="-137" type="line"/>
      <point x="234" y="-136"/>
      <point x="385" y="-135"/>
      <point x="425" y="-135" type="curve"/>
      <point x="398" y="-71" type="line"/>
      <point x="362" y="-72"/>
      <point x="221" y="-73"/>
      <point x="125" y="-73" type="curve"/>
    </contour>
    <contour>
      <point x="126" y="627" type="line"/>
      <point x="225" y="627"/>
      <point x="371" y="625"/>
      <point x="407" y="623" type="curve"/>
      <point x="432" y="693" type="line"/>
      <point x="396" y="692"/>
      <point x="238" y="688"/>
      <point x="129" y="686" type="curve"/>
    </contour>
  </outline>
</glyph>
<glyph name="asciicircum" format="2">
  <advance width="552"/>
  <unicode hex="005E"/>
  <outline>
    <contour>
      <point x="407" y="370" type="curve"/>
      <point x="487" y="373" type="line"/>
      <point x="459" y="418"/>
      <point x="423" y="479"/>
      <point x="388" y="538" type="curve" smooth="yes"/>
      <point x="354" y="596"/>
      <point x="321" y="653"/>
      <point x="296" y="697" type="curve"/>
      <point x="232" y="693" type="line"/>
      <point x="256" y="650"/>
      <point x="297" y="577"/>
      <point x="336" y="505" type="curve" smooth="yes"/>
      <point x="362" y="456"/>
      <point x="388" y="407"/>
    </contour>
    <contour>
      <point x="140" y="373" type="line"/>
      <point x="161" y="418"/>
      <point x="184" y="467"/>
      <point x="209" y="519" type="curve" smooth="yes"/>
      <point x="238" y="577"/>
      <point x="268" y="638"/>
      <point x="296" y="697" type="curve"/>
      <point x="232" y="693" type="line"/>
      <point x="208" y="645"/>
      <point x="181" y="591"/>
      <point x="153" y="537" type="curve" smooth="yes"/>
      <point x="124" y="481"/>
      <point x="93" y="425"/>
      <point x="65" y="376" type="curve"/>
    </contour>
  </outline>
</glyph>
<glyph name="underscore" format="2">
  <advance width="534"/>
  <unicode hex="005F"/>
  <outline>
    <contour>
      <point x="47" y="-115" type="line"/>
      <point x="47" y="-115"/>
      <point x="201" y="-112"/>
      <point x="268" y="-111" type="curve" smooth="yes"/>
      <point x="340" y="-110"/>
      <point x="487" y="-112"/>
      <point x="487" y="-112" type="curve"/>
      <point x="489" y="-46" type="line"/>
      <point x="489" y="-46"/>
      <point x="337" y="-49"/>
      <point x="262" y="-50" type="curve" smooth="yes"/>
      <point x="188" y="-52"/>
      <point x="45" y="-48"/>
      <point x="45" y="-48" type="curve"/>
    </contour>
  </outline>
</glyph>
<glyph name="grave" format="2">
  <advance width="212"/>
  <unicode hex="0060"/>
  <anchor x="121" y="555" name="_top"/>
  <outline>
    <contour>
      <point x="187" y="613" type="curve"/>
      <point x="211" y="651" type="line"/>
      <point x="187" y="663"/>
      <point x="160" y="678"/>
      <point x="132" y="693" type="curve" smooth="yes"/>
      <point x="105" y="709"/>
      <point x="76" y="727"/>
      <point x="51" y="743" type="curve"/>
      <point x="12" y="686" type="line"/>
      <point x="42" y="673"/>
      <point x="74" y="661"/>
      <point x="105" y="648" type="curve" smooth="yes"/>
      <point x="135" y="636"/>
      <point x="164" y="623"/>
    </contour>
  </outline>
</glyph>
<glyph name="a" format="2">
  <advance width="496"/>
  <unicode hex="0061"/>
  <anchor x="242" y="0" name="bottom"/>
  <anchor x="405" y="-3" name="ogonek"/>
  <anchor x="242" y="515" name="top"/>
  <outline>
    <contour>
      <point x="355" y="0" type="line"/>
      <point x="426" y="0" type="line"/>
      <point x="420" y="187" type="line"/>
      <point x="419" y="345" type="line" smooth="yes"/>
      <point x="418" y="436"/>
      <point x="386" y="524"/>
      <point x="252" y="524" type="curve" smooth="yes"/>
      <point x="145" y="524"/>
      <point x="74" y="458"/>
      <point x="74" y="365" type="curve" smooth="yes"/>
      <point x="74" y="348"/>
      <point x="76" y="330"/>
      <point x="81" y="311" type="curve"/>
      <point x="144" y="314" type="line"/>
      <point x="138" y="333"/>
      <point x="135" y="351"/>
      <point x="135" y="368" type="curve" smooth="yes"/>
      <point x="135" y="429"/>
      <point x="174" y="472"/>
      <point x="249" y="472" type="curve" smooth="yes"/>
      <point x="326" y="472"/>
      <point x="357" y="426"/>
      <point x="356" y="359" type="curve" smooth="yes"/>
      <point x="353" y="113" type="line"/>
    </contour>
    <contour>
      <point x="189" y="-10" type="curve" smooth="yes"/>
      <point x="330" y="-10"/>
      <point x="383" y="72"/>
      <point x="383" y="283" type="curve"/>
      <point x="354" y="219" type="line"/>
      <point x="355" y="118"/>
      <point x="291" y="45"/>
      <point x="207" y="45" type="curve" smooth="yes"/>
      <point x="155" y="45"/>
      <point x="119" y="73"/>
      <point x="119" y="125" type="curve" smooth="yes"/>
      <point x="119" y="187"/>
      <point x="172" y="214"/>
      <point x="231" y="234" type="curve" smooth="yes"/>
      <point x="304" y="258"/>
      <point x="385" y="272"/>
      <point x="385" y="330" type="curve"/>
      <point x="356" y="359" type="line"/>
      <point x="355" y="316"/>
      <point x="281" y="304"/>
      <point x="206" y="280" type="curve" smooth="yes"/>
      <point x="131" y="256"/>
      <point x="55" y="219"/>
      <point x="55" y="123" type="curve" smooth="yes"/>
      <point x="55" y="33"/>
      <point x="122" y="-10"/>
    </contour>
  </outline>
</glyph>
<glyph name="b" format="2">
  <advance width="557"/>
  <unicode hex="0062"/>
  <outline>
    <contour>
      <point x="285" y="-7" type="curve" smooth="yes"/>
      <point x="383" y="-7"/>
      <point x="436" y="49"/>
      <point x="460" y="139" type="curve" smooth="yes"/>
      <point x="478" y="208"/>
      <point x="487" y="289"/>
      <point x="474" y="366" type="curve" smooth="yes"/>
      <point x="457" y="465"/>
      <point x="408" y="525"/>
      <point x="311" y="525" type="curve" smooth="yes"/>
      <point x="184" y="525"/>
      <point x="121" y="400"/>
      <point x="107" y="257" type="curve"/>
      <point x="162" y="293" type="line"/>
      <point x="162" y="394"/>
      <point x="233" y="462"/>
      <point x="302" y="462" type="curve" smooth="yes"/>
      <point x="366" y="462"/>
      <point x="398" y="421"/>
      <point x="409" y="347" type="curve" smooth="yes"/>
      <point x="417" y="293"/>
      <point x="410" y="225"/>
      <point x="400" y="169" type="curve" smooth="yes"/>
      <point x="387" y="99"/>
      <point x="356" y="54"/>
      <point x="283" y="54" type="curve" smooth="yes"/>
      <point x="222" y="54"/>
      <point x="160" y="126"/>
      <point x="160" y="203" type="curve"/>
      <point x="107" y="257" type="line"/>
      <point x="111" y="194"/>
      <point x="129" y="-7"/>
    </contour>
    <contour>
      <point x="156" y="-1" type="line"/>
      <point x="159" y="96" type="line"/>
      <point x="159" y="176"/>
      <point x="162" y="276"/>
      <point x="162" y="344" type="curve"/>
      <point x="162" y="463"/>
      <point x="164" y="605"/>
      <point x="165" y="696" type="curve"/>
      <point x="85" y="691" type="line"/>
      <point x="89" y="619"/>
      <point x="97" y="467"/>
      <point x="95" y="345" type="curve" smooth="yes"/>
      <point x="93" y="202"/>
      <point x="89" y="1"/>
      <point x="89" y="1" type="curve"/>
    </contour>
  </outline>
</glyph>
<glyph name="c" format="2">
  <advance width="524"/>
  <unicode hex="0063"/>
  <anchor x="278" y="0" name="bottom"/>
  <anchor x="271" y="515" name="top"/>
  <outline>
    <contour>
      <point x="266" y="-13" type="curve" smooth="yes"/>
      <point x="386" y="-13"/>
      <point x="453" y="50"/>
      <point x="453" y="142" type="curve" smooth="yes"/>
      <point x="453" y="150"/>
      <point x="452" y="158"/>
      <point x="451" y="167" type="curve"/>
      <point x="385" y="165" type="line"/>
      <point x="387" y="157"/>
      <point x="388" y="148"/>
      <point x="388" y="140" type="curve" smooth="yes"/>
      <point x="388" y="90"/>
      <point x="348" y="44"/>
      <point x="273" y="44" type="curve" smooth="yes"/>
      <point x="214" y="44"/>
      <point x="182" y="77"/>
      <point x="164" y="125" type="curve" smooth="yes"/>
      <point x="151" y="161"/>
      <point x="147" y="205"/>
      <point x="147" y="250" type="curve" smooth="yes"/>
      <point x="147" y="305"/>
      <point x="153" y="359"/>
      <point x="172" y="399" type="curve" smooth="yes"/>
      <point x="191" y="440"/>
      <point x="224" y="467"/>
      <point x="277" y="467" type="curve" smooth="yes"/>
      <point x="356" y="467"/>
      <point x="387" y="418"/>
      <point x="387" y="347" type="curve" smooth="yes"/>
      <point x="387" y="328"/>
      <point x="385" y="308"/>
      <point x="381" y="286" type="curve"/>
      <point x="446" y="285" type="line"/>
      <point x="450" y="307"/>
      <point x="452" y="328"/>
      <point x="452" y="348" type="curve" smooth="yes"/>
      <point x="452" y="450"/>
      <point x="399" y="524"/>
      <point x="286" y="524" type="curve" smooth="yes"/>
      <point x="201" y="524"/>
      <point x="147" y="490"/>
      <point x="115" y="435" type="curve" smooth="yes"/>
      <point x="88" y="387"/>
      <point x="77" y="324"/>
      <point x="77" y="252" type="curve" smooth="yes"/>
      <point x="77" y="192"/>
      <point x="86" y="135"/>
      <point x="107" y="90" type="curve" smooth="yes"/>
      <point x="135" y="28"/>
      <point x="185" y="-13"/>
    </contour>
  </outline>
</glyph>
<glyph name="d" format="2">
  <advance width="555"/>
  <unicode hex="0064"/>
  <anchor x="399" y="604" name="center"/>
  <anchor x="492" y="461" name="topright"/>
  <outline>
    <contour>
      <point x="77" y="256" type="curve" smooth="yes"/>
      <point x="77" y="190"/>
      <point x="84" y="126"/>
      <point x="106" y="78" type="curve" smooth="yes"/>
      <point x="131" y="25"/>
      <point x="175" y="-10"/>
      <point x="250" y="-10" type="curve" smooth="yes"/>
      <point x="341" y="-10"/>
      <point x="384" y="49"/>
      <point x="404" y="87" type="curve"/>
      <point x="404" y="0" type="line"/>
      <point x="473" y="0" type="line"/>
      <point x="470" y="132"/>
      <point x="469" y="222"/>
      <point x="469" y="333" type="curve" smooth="yes"/>
      <point x="469" y="408"/>
      <point x="471" y="511"/>
      <point x="475" y="693" type="curve"/>
      <point x="404" y="694" type="line"/>
      <point x="404" y="637"/>
      <point x="403" y="508"/>
      <point x="403" y="452" type="curve"/>
      <point x="386" y="480"/>
      <point x="351" y="526"/>
      <point x="269" y="526" type="curve" smooth="yes"/>
      <point x="188" y="526"/>
      <point x="135" y="482"/>
      <point x="106" y="416" type="curve" smooth="yes"/>
      <point x="86" y="371"/>
      <point x="77" y="315"/>
    </contour>
    <contour>
      <point x="146" y="252" type="curve" smooth="yes"/>
      <point x="146" y="302"/>
      <point x="152" y="352"/>
      <point x="168" y="391" type="curve" smooth="yes"/>
      <point x="187" y="438"/>
      <point x="220" y="470"/>
      <point x="276" y="470" type="curve" smooth="yes"/>
      <point x="332" y="470"/>
      <point x="368" y="432"/>
      <point x="386" y="380" type="curve" smooth="yes"/>
      <point x="398" y="348"/>
      <point x="403" y="310"/>
      <point x="403" y="273" type="curve" smooth="yes"/>
      <point x="403" y="226"/>
      <point x="395" y="175"/>
      <point x="377" y="134" type="curve" smooth="yes"/>
      <point x="355" y="84"/>
      <point x="319" y="48"/>
      <point x="263" y="48" type="curve" smooth="yes"/>
      <point x="205" y="48"/>
      <point x="175" y="80"/>
      <point x="160" y="129" type="curve" smooth="yes"/>
      <point x="149" y="163"/>
      <point x="146" y="206"/>
    </contour>
  </outline>
</glyph>
<glyph name="e" format="2">
  <advance width="524"/>
  <unicode hex="0065"/>
  <anchor x="273" y="0" name="bottom"/>
  <anchor x="311" y="-5" name="ogonek"/>
  <anchor x="278" y="515" name="top"/>
  <outline>
    <contour>
      <point x="271" y="-12" type="curve" smooth="yes"/>
      <point x="383" y="-12"/>
      <point x="452" y="47"/>
      <point x="452" y="142" type="curve" smooth="yes"/>
      <point x="452" y="149"/>
      <point x="452" y="157"/>
      <point x="451" y="165" type="curve"/>
      <point x="385" y="165" type="line"/>
      <point x="387" y="157"/>
      <point x="388" y="149"/>
      <point x="388" y="141" type="curve" smooth="yes"/>
      <point x="388" y="90"/>
      <point x="349" y="44"/>
      <point x="273" y="44" type="curve" smooth="yes"/>
      <point x="215" y="44"/>
      <point x="183" y="74"/>
      <point x="166" y="121" type="curve" smooth="yes"/>
      <point x="151" y="161"/>
      <point x="147" y="213"/>
      <point x="147" y="268" type="curve" smooth="yes"/>
      <point x="147" y="321"/>
      <point x="155" y="375"/>
      <point x="178" y="413" type="curve" smooth="yes"/>
      <point x="198" y="446"/>
      <point x="229" y="467"/>
      <point x="275" y="467" type="curve" smooth="yes"/>
      <point x="360" y="467"/>
      <point x="386" y="417"/>
      <point x="386" y="347" type="curve" smooth="yes"/>
      <point x="386" y="330"/>
      <point x="384" y="313"/>
      <point x="382" y="294" type="curve"/>
      <point x="444" y="243" type="line"/>
      <point x="449" y="274"/>
      <point x="452" y="304"/>
      <point x="452" y="332" type="curve" smooth="yes"/>
      <point x="452" y="440"/>
      <point x="411" y="524"/>
      <point x="289" y="524" type="curve" smooth="yes"/>
      <point x="210" y="524"/>
      <point x="156" y="494"/>
      <point x="122" y="445" type="curve" smooth="yes"/>
      <point x="91" y="400"/>
      <point x="77" y="338"/>
      <point x="77" y="269" type="curve" smooth="yes"/>
      <point x="77" y="197"/>
      <point x="86" y="131"/>
      <point x="112" y="80" type="curve" smooth="yes"/>
      <point x="140" y="24"/>
      <point x="190" y="-12"/>
    </contour>
    <contour>
      <point x="112" y="236" type="line"/>
      <point x="251" y="241"/>
      <point x="444" y="243"/>
      <point x="444" y="243" type="curve"/>
      <point x="444" y="300" type="line"/>
      <point x="111" y="298" type="line"/>
    </contour>
  </outline>
</glyph>
<glyph name="g" format="2">
  <advance width="552"/>
  <unicode hex="0067"/>
  <anchor x="277" y="515" name="top"/>
  <outline>
    <contour>
      <point x="254" y="-166" type="curve" smooth="yes"/>
      <point x="388" y="-166"/>
      <point x="466" y="-97"/>
      <point x="466" y="41" type="curve" smooth="yes"/>
      <point x="466" y="78"/>
      <point x="462" y="105"/>
      <point x="462" y="258" type="curve"/>
      <point x="462" y="383"/>
      <point x="484" y="515"/>
      <point x="484" y="515" type="curve"/>
      <point x="410" y="515" type="line"/>
      <point x="403" y="468"/>
      <point x="391" y="367"/>
      <point x="394" y="256" type="curve"/>
      <point x="394" y="124"/>
      <point x="396" y="76"/>
      <point x="396" y="28" type="curve" smooth="yes"/>
      <point x="396" y="-78"/>
      <point x="319" y="-105"/>
      <point x="261" y="-105" type="curve" smooth="yes"/>
      <point x="204" y="-105"/>
      <point x="170" y="-97"/>
      <point x="153" y="-63" type="curve" smooth="yes"/>
      <point x="150" y="-57"/>
      <point x="147" y="-49"/>
      <point x="145" y="-40" type="curve"/>
      <point x="77" y="-50" type="line"/>
      <point x="77" y="-61"/>
      <point x="79" y="-71"/>
      <point x="81" y="-80" type="curve" smooth="yes"/>
      <point x="95" y="-144"/>
      <point x="170" y="-166"/>
    </contour>
    <contour>
      <point x="250" y="-9" type="curve" smooth="yes"/>
      <point x="416" y="-9"/>
      <point x="429" y="158"/>
      <point x="432" y="255" type="curve"/>
      <point x="394" y="213" type="line"/>
      <point x="394" y="103"/>
      <point x="334" y="50"/>
      <point x="264" y="50" type="curve" smooth="yes"/>
      <point x="217" y="50"/>
      <point x="188" y="74"/>
      <point x="171" y="111" type="curve" smooth="yes"/>
      <point x="153" y="150"/>
      <point x="148" y="204"/>
      <point x="148" y="262" type="curve" smooth="yes"/>
      <point x="148" y="305"/>
      <point x="152" y="350"/>
      <point x="166" y="387" type="curve" smooth="yes"/>
      <point x="183" y="434"/>
      <point x="215" y="468"/>
      <point x="271" y="468" type="curve" smooth="yes"/>
      <point x="340" y="468"/>
      <point x="394" y="392"/>
      <point x="394" y="291" type="curve"/>
      <point x="434" y="249" type="line"/>
      <point x="434" y="452"/>
      <point x="373" y="523"/>
      <point x="267" y="523" type="curve" smooth="yes"/>
      <point x="186" y="523"/>
      <point x="136" y="484"/>
      <point x="108" y="424" type="curve" smooth="yes"/>
      <point x="87" y="379"/>
      <point x="78" y="322"/>
      <point x="78" y="261" type="curve" smooth="yes"/>
      <point x="78" y="187"/>
      <point x="87" y="118"/>
      <point x="115" y="69" type="curve" smooth="yes"/>
      <point x="141" y="21"/>
      <point x="183" y="-9"/>
    </contour>
  </outline>
</glyph>
<glyph name="h" format="2">
  <advance width="558"/>
  <unicode hex="0068"/>
  <anchor x="279" y="0" name="bottom"/>
  <anchor x="203" y="610" name="center"/>
  <anchor x="133" y="669" name="top"/>
  <outline>
    <contour>
      <point x="96" y="0" type="curve"/>
      <point x="171" y="0" type="line"/>
      <point x="171" y="0"/>
      <point x="165" y="125"/>
      <point x="165" y="269" type="curve"/>
      <point x="165" y="412"/>
      <point x="172" y="703"/>
      <point x="172" y="703" type="curve"/>
      <point x="96" y="703" type="line"/>
      <point x="96" y="703"/>
      <point x="99" y="491"/>
      <point x="99" y="346" type="curve"/>
      <point x="99" y="200"/>
      <point x="96" y="0"/>
    </contour>
    <contour>
      <point x="469" y="0" type="line"/>
      <point x="465" y="82"/>
      <point x="464" y="115"/>
      <point x="464" y="186" type="curve" smooth="yes"/>
      <point x="464" y="246"/>
      <point x="463" y="272"/>
      <point x="464" y="334" type="curve" smooth="yes"/>
      <point x="466" y="434"/>
      <point x="424" y="520"/>
      <point x="317" y="520" type="curve" smooth="yes"/>
      <point x="146" y="520"/>
      <point x="108" y="329"/>
      <point x="108" y="213" type="curve"/>
      <point x="165" y="269" type="line"/>
      <point x="165" y="400"/>
      <point x="237" y="460"/>
      <point x="306" y="460" type="curve" smooth="yes"/>
      <point x="360" y="460"/>
      <point x="396" y="411"/>
      <point x="396" y="325" type="curve" smooth="yes"/>
      <point x="396" y="258"/>
      <point x="396" y="237"/>
      <point x="396" y="185" type="curve" smooth="yes"/>
      <point x="396" y="112"/>
      <point x="393" y="86"/>
      <point x="389" y="1" type="curve"/>
    </contour>
  </outline>
</glyph>
<glyph name="i" format="2">
  <advance width="275"/>
  <unicode hex="0069"/>
  <anchor x="137" y="0" name="bottom"/>
  <anchor x="150" y="-2" name="ogonek"/>
  <outline>
    <contour>
      <point x="179" y="0" type="line"/>
      <point x="174" y="75"/>
      <point x="173" y="164"/>
      <point x="172" y="272" type="curve" smooth="yes"/>
      <point x="171" y="369"/>
      <point x="173" y="446"/>
      <point x="175" y="517" type="curve"/>
      <point x="99" y="516" type="line"/>
      <point x="103" y="435"/>
      <point x="106" y="362"/>
      <point x="106" y="269" type="curve" smooth="yes"/>
      <point x="106" y="167"/>
      <point x="104" y="85"/>
      <point x="99" y="1" type="curve"/>
    </contour>
    <contour>
      <point x="175" y="597" type="line"/>
      <point x="179" y="682" type="line"/>
      <point x="96" y="678" type="line"/>
      <point x="98" y="593" type="line"/>
    </contour>
  </outline>
</glyph>
<glyph name="k" format="2">
  <advance width="482"/>
  <unicode hex="006B"/>
  <anchor x="299" y="0" name="bottom"/>
  <outline>
    <contour>
      <point x="402" y="0" type="curve"/>
      <point x="497" y="3" type="line"/>
      <point x="390" y="103"/>
      <point x="309" y="184"/>
      <point x="222" y="275" type="curve"/>
      <point x="315" y="371"/>
      <point x="382" y="438"/>
      <point x="469" y="519" type="curve"/>
      <point x="382" y="521" type="line"/>
      <point x="306" y="442"/>
      <point x="249" y="384"/>
      <point x="133" y="269" type="curve"/>
      <point x="231" y="177"/>
      <point x="318" y="88"/>
    </contour>
    <contour>
      <point x="96" y="0" type="curve"/>
      <point x="175" y="1" type="line"/>
      <point x="175" y="1"/>
      <point x="168" y="213"/>
      <point x="168" y="359" type="curve"/>
      <point x="168" y="504"/>
      <point x="175" y="698"/>
      <point x="175" y="698" type="curve"/>
      <point x="99" y="700" type="line"/>
      <point x="99" y="700"/>
      <point x="102" y="501"/>
      <point x="102" y="357" type="curve"/>
      <point x="102" y="214"/>
      <point x="96" y="0"/>
    </contour>
  </outline>
</glyph>
<glyph name="l" format="2">
  <advance width="264"/>
  <unicode hex="006C"/>
  <anchor x="133" y="0" name="bottom"/>
  <anchor x="135" y="359" name="center"/>
  <anchor x="135" y="693" name="top"/>
  <anchor x="317" y="473" name="topright"/>
  <outline>
    <contour>
      <point x="96" y="2" type="curve"/>
      <point x="175" y="10" type="line"/>
      <point x="171" y="97"/>
      <point x="165" y="251"/>
      <point x="165" y="358" type="curve"/>
      <point x="165" y="465"/>
      <point x="171" y="615"/>
      <point x="175" y="698" type="curve"/>
      <point x="97" y="697" type="line"/>
      <point x="98" y="612"/>
      <point x="99" y="461"/>
      <point x="99" y="357" type="curve"/>
      <point x="99" y="221"/>
      <point x="99" y="63"/>
    </contour>
  </outline>
</glyph>
<glyph name="m" format="2">
  <advance width="840"/>
  <unicode hex="006D"/>
  <outline>
    <contour>
      <point x="385" y="1" type="curve"/>
      <point x="465" y="1" type="line"/>
      <point x="461" y="83"/>
      <point x="460" y="198"/>
      <point x="460" y="269" type="curve" smooth="yes"/>
      <point x="460" y="431"/>
      <point x="425" y="520"/>
      <point x="312" y="520" type="curve" smooth="yes"/>
      <point x="166" y="520"/>
      <point x="117" y="369"/>
      <point x="117" y="237" type="curve"/>
      <point x="169" y="269" type="line"/>
      <point x="169" y="398"/>
      <point x="213" y="461"/>
      <point x="299" y="461" type="curve" smooth="yes"/>
      <point x="348" y="461"/>
      <point x="392" y="433"/>
      <point x="392" y="338" type="curve" smooth="yes"/>
      <point x="392" y="271"/>
      <point x="392" y="237"/>
      <point x="392" y="205" type="curve" smooth="yes"/>
      <point x="392" y="132"/>
      <point x="389" y="86"/>
    </contour>
    <contour>
      <point x="96" y="1" type="curve"/>
      <point x="172" y="1" type="line"/>
      <point x="171" y="57"/>
      <point x="168" y="144"/>
      <point x="169" y="269" type="curve"/>
      <point x="166" y="376"/>
      <point x="166" y="475"/>
      <point x="168" y="519" type="curve"/>
      <point x="97" y="516" type="line"/>
      <point x="97" y="516"/>
      <point x="102" y="392"/>
      <point x="102" y="246" type="curve" smooth="yes"/>
      <point x="102" y="117"/>
      <point x="101" y="80"/>
    </contour>
    <contour>
      <point x="739" y="0" type="line"/>
      <point x="743" y="84"/>
      <point x="745" y="127"/>
      <point x="748" y="189" type="curve" smooth="yes"/>
      <point x="750" y="227"/>
      <point x="751" y="285"/>
      <point x="751" y="358" type="curve" smooth="yes"/>
      <point x="751" y="466"/>
      <point x="691" y="527"/>
      <point x="600" y="527" type="curve" smooth="yes"/>
      <point x="449" y="527"/>
      <point x="406" y="382"/>
      <point x="401" y="237" type="curve"/>
      <point x="460" y="269" type="line"/>
      <point x="460" y="398"/>
      <point x="500" y="468"/>
      <point x="589" y="468" type="curve" smooth="yes"/>
      <point x="644" y="468"/>
      <point x="683" y="437"/>
      <point x="683" y="345" type="curve" smooth="yes"/>
      <point x="683" y="280"/>
      <point x="681" y="226"/>
      <point x="679" y="196" type="curve" smooth="yes"/>
      <point x="675" y="129"/>
      <point x="671" y="87"/>
      <point x="666" y="9" type="curve"/>
    </contour>
  </outline>
</glyph>
<glyph name="n" format="2">
  <advance width="562"/>
  <unicode hex="006E"/>
  <anchor x="283" y="0" name="bottom"/>
  <anchor x="292" y="515" name="top"/>
  <anchor x="265" y="515" name="topright"/>
  <outline>
    <contour>
      <point x="473" y="0" type="line"/>
      <point x="469" y="82"/>
      <point x="468" y="115"/>
      <point x="468" y="186" type="curve" smooth="yes"/>
      <point x="468" y="246"/>
      <point x="467" y="272"/>
      <point x="468" y="334" type="curve" smooth="yes"/>
      <point x="470" y="434"/>
      <point x="428" y="520"/>
      <point x="321" y="520" type="curve" smooth="yes"/>
      <point x="150" y="520"/>
      <point x="112" y="329"/>
      <point x="112" y="213" type="curve"/>
      <point x="169" y="269" type="line"/>
      <point x="169" y="400"/>
      <point x="241" y="460"/>
      <point x="310" y="460" type="curve" smooth="yes"/>
      <point x="364" y="460"/>
      <point x="400" y="411"/>
      <point x="400" y="325" type="curve" smooth="yes"/>
      <point x="400" y="258"/>
      <point x="400" y="237"/>
      <point x="400" y="185" type="curve" smooth="yes"/>
      <point x="400" y="112"/>
      <point x="397" y="86"/>
      <point x="393" y="1" type="curve"/>
    </contour>
    <contour>
      <point x="96" y="1" type="curve"/>
      <point x="172" y="1" type="line"/>
      <point x="171" y="57"/>
      <point x="168" y="144"/>
      <point x="169" y="269" type="curve"/>
      <point x="166" y="376"/>
      <point x="166" y="475"/>
      <point x="168" y="519" type="curve"/>
      <point x="97" y="516" type="line"/>
      <point x="97" y="516"/>
      <point x="102" y="392"/>
      <point x="102" y="246" type="curve" smooth="yes"/>
      <point x="102" y="117"/>
      <point x="101" y="80"/>
    </contour>
  </outline>
</glyph>
<glyph name="o" format="2">
  <advance width="546"/>
  <unicode hex="006F"/>
  <anchor x="272" y="0" name="bottom"/>
  <anchor x="271" y="256" name="center"/>
  <anchor x="314" y="-3" name="ogonek"/>
  <anchor x="274" y="515" name="top"/>
  <anchor x="350" y="515" name="topright"/>
  <outline>
    <contour>
      <point x="266" y="-10" type="curve"/>
      <point x="346" y="-10"/>
      <point x="400" y="29"/>
      <point x="432" y="89" type="curve" smooth="yes"/>
      <point x="457" y="137"/>
      <point x="469" y="198"/>
      <point x="469" y="263" type="curve" smooth="yes"/>
      <point x="469" y="310"/>
      <point x="465" y="354"/>
      <point x="454" y="392" type="curve" smooth="yes"/>
      <point x="432" y="473"/>
      <point x="382" y="527"/>
      <point x="285" y="527" type="curve" smooth="yes"/>
      <point x="196" y="527"/>
      <point x="138" y="482"/>
      <point x="107" y="415" type="curve" smooth="yes"/>
      <point x="86" y="372"/>
      <point x="77" y="319"/>
      <point x="77" y="264" type="curve" smooth="yes"/>
      <point x="77" y="193"/>
      <point x="88" y="128"/>
      <point x="114" y="78" type="curve" smooth="yes"/>
      <point x="144" y="24"/>
      <point x="192" y="-10"/>
    </contour>
    <contour>
      <point x="267" y="53" type="curve" smooth="yes"/>
      <point x="216" y="53"/>
      <point x="184" y="82"/>
      <point x="166" y="125" type="curve" smooth="yes"/>
      <point x="153" y="158"/>
      <point x="147" y="200"/>
      <point x="147" y="243" type="curve" smooth="yes"/>
      <point x="147" y="295"/>
      <point x="152" y="346"/>
      <point x="168" y="386" type="curve" smooth="yes"/>
      <point x="187" y="434"/>
      <point x="220" y="466"/>
      <point x="278" y="466" type="curve" smooth="yes"/>
      <point x="352" y="466"/>
      <point x="382" y="426"/>
      <point x="393" y="361" type="curve" smooth="yes"/>
      <point x="398" y="333"/>
      <point x="399" y="301"/>
      <point x="399" y="266" type="curve" smooth="yes"/>
      <point x="399" y="211"/>
      <point x="394" y="161"/>
      <point x="378" y="124" type="curve" smooth="yes"/>
      <point x="359" y="80"/>
      <point x="326" y="53"/>
    </contour>
  </outline>
</glyph>
<glyph name="p" format="2">
  <advance width="573"/>
  <unicode hex="0070"/>
  <outline>
    <contour>
      <point x="96" y="-146" type="curve"/>
      <point x="175" y="-145" type="line"/>
      <point x="173" y="56" type="line"/>
      <point x="188" y="30"/>
      <point x="224" y="-14"/>
      <point x="305" y="-14" type="curve" smooth="yes"/>
      <point x="375" y="-14"/>
      <point x="423" y="18"/>
      <point x="453" y="68" type="curve" smooth="yes"/>
      <point x="483" y="118"/>
      <point x="496" y="184"/>
      <point x="496" y="256" type="curve" smooth="yes"/>
      <point x="496" y="315"/>
      <point x="490" y="371"/>
      <point x="474" y="416" type="curve" smooth="yes"/>
      <point x="450" y="480"/>
      <point x="406" y="522"/>
      <point x="324" y="522" type="curve" smooth="yes"/>
      <point x="241" y="522"/>
      <point x="190" y="468"/>
      <point x="173" y="432" type="curve"/>
      <point x="173" y="517" type="line"/>
      <point x="97" y="515" type="line"/>
      <point x="104" y="469"/>
      <point x="105" y="316"/>
      <point x="105" y="191" type="curve" smooth="yes"/>
      <point x="105" y="67"/>
      <point x="96" y="-146"/>
    </contour>
    <contour>
      <point x="172" y="199" type="curve" smooth="yes"/>
      <point x="173" y="284" type="line" smooth="yes"/>
      <point x="174" y="382"/>
      <point x="234" y="464"/>
      <point x="310" y="464" type="curve" smooth="yes"/>
      <point x="370" y="464"/>
      <point x="400" y="430"/>
      <point x="414" y="381" type="curve" smooth="yes"/>
      <point x="424" y="346"/>
      <point x="427" y="304"/>
      <point x="427" y="260" type="curve" smooth="yes"/>
      <point x="427" y="204"/>
      <point x="420" y="148"/>
      <point x="399" y="107" type="curve" smooth="yes"/>
      <point x="379" y="68"/>
      <point x="347" y="42"/>
      <point x="297" y="42" type="curve" smooth="yes"/>
      <point x="220" y="42"/>
      <point x="171" y="126"/>
    </contour>
  </outline>
</glyph>
<glyph name="q" format="2">
  <advance width="556"/>
  <unicode hex="0071"/>
  <outline>
    <contour>
      <point x="77" y="261" type="curve" smooth="yes"/>
      <point x="77" y="195"/>
      <point x="87" y="133"/>
      <point x="111" y="85" type="curve" smooth="yes"/>
      <point x="139" y="28"/>
      <point x="188" y="-9"/>
      <point x="264" y="-9" type="curve" smooth="yes"/>
      <point x="354" y="-9"/>
      <point x="383" y="37"/>
      <point x="401" y="64" type="curve"/>
      <point x="397" y="-146" type="line"/>
      <point x="473" y="-147" type="line"/>
      <point x="473" y="-147"/>
      <point x="468" y="59"/>
      <point x="468" y="185" type="curve" smooth="yes"/>
      <point x="468" y="311"/>
      <point x="479" y="524"/>
      <point x="479" y="524" type="curve"/>
      <point x="403" y="522" type="line"/>
      <point x="403" y="433" type="line"/>
      <point x="388" y="476"/>
      <point x="334" y="527"/>
      <point x="264" y="527" type="curve" smooth="yes"/>
      <point x="186" y="527"/>
      <point x="138" y="491"/>
      <point x="110" y="434" type="curve" smooth="yes"/>
      <point x="86" y="387"/>
      <point x="77" y="326"/>
    </contour>
    <contour>
      <point x="146" y="265" type="curve" smooth="yes"/>
      <point x="146" y="314"/>
      <point x="150" y="360"/>
      <point x="164" y="397" type="curve" smooth="yes"/>
      <point x="181" y="440"/>
      <point x="213" y="469"/>
      <point x="269" y="469" type="curve" smooth="yes"/>
      <point x="325" y="469"/>
      <point x="361" y="425"/>
      <point x="382" y="368" type="curve" smooth="yes"/>
      <point x="396" y="329"/>
      <point x="402" y="285"/>
      <point x="402" y="245" type="curve" smooth="yes"/>
      <point x="402" y="202"/>
      <point x="394" y="155"/>
      <point x="376" y="117" type="curve" smooth="yes"/>
      <point x="356" y="76"/>
      <point x="324" y="47"/>
      <point x="274" y="47" type="curve" smooth="yes"/>
      <point x="223" y="47"/>
      <point x="191" y="76"/>
      <point x="171" y="119" type="curve" smooth="yes"/>
      <point x="153" y="160"/>
      <point x="146" y="214"/>
    </contour>
  </outline>
</glyph>
<glyph name="r" format="2">
  <advance width="472"/>
  <unicode hex="0072"/>
  <anchor x="131" y="0" name="bottom"/>
  <anchor x="289" y="515" name="top"/>
  <outline>
    <contour>
      <point x="362" y="219" type="curve"/>
      <point x="426" y="219" type="line"/>
      <point x="439" y="271"/>
      <point x="448" y="327"/>
      <point x="448" y="373" type="curve" smooth="yes"/>
      <point x="448" y="459"/>
      <point x="407" y="530"/>
      <point x="313" y="531" type="curve" smooth="yes"/>
      <point x="202" y="532"/>
      <point x="135" y="436"/>
      <point x="135" y="245" type="curve"/>
      <point x="172" y="286" type="line"/>
      <point x="172" y="415"/>
      <point x="232" y="472"/>
      <point x="298" y="472" type="curve" smooth="yes"/>
      <point x="358" y="472"/>
      <point x="384" y="436"/>
      <point x="384" y="381" type="curve" smooth="yes"/>
      <point x="384" y="340"/>
      <point x="373" y="275"/>
    </contour>
    <contour>
      <point x="96" y="1" type="curve"/>
      <point x="177" y="1" type="line"/>
      <point x="175" y="59"/>
      <point x="172" y="214"/>
      <point x="172" y="286" type="curve"/>
      <point x="167" y="393"/>
      <point x="173" y="477"/>
      <point x="175" y="521" type="curve"/>
      <point x="103" y="518" type="line"/>
      <point x="105" y="460"/>
      <point x="105" y="369"/>
      <point x="105" y="246" type="curve" smooth="yes"/>
      <point x="105" y="117"/>
      <point x="99" y="59"/>
    </contour>
  </outline>
</glyph>
<glyph name="s" format="2">
  <advance width="480"/>
  <unicode hex="0073"/>
  <anchor x="238" y="0" name="bottom"/>
  <anchor x="249" y="515" name="top"/>
  <outline>
    <contour>
      <point x="245" y="-10" type="curve" smooth="yes"/>
      <point x="348" y="-10"/>
      <point x="422" y="42"/>
      <point x="422" y="137" type="curve" smooth="yes"/>
      <point x="422" y="232"/>
      <point x="318" y="247"/>
      <point x="235" y="275" type="curve" smooth="yes"/>
      <point x="179" y="295"/>
      <point x="133" y="320"/>
      <point x="133" y="379" type="curve" smooth="yes"/>
      <point x="133" y="442"/>
      <point x="171" y="474"/>
      <point x="236" y="474" type="curve" smooth="yes"/>
      <point x="314" y="474"/>
      <point x="343" y="432"/>
      <point x="343" y="369" type="curve" smooth="yes"/>
      <point x="343" y="348"/>
      <point x="339" y="325"/>
      <point x="334" y="300" type="curve"/>
      <point x="409" y="300" type="line"/>
      <point x="414" y="322"/>
      <point x="416" y="344"/>
      <point x="416" y="364" type="curve" smooth="yes"/>
      <point x="416" y="463"/>
      <point x="359" y="532"/>
      <point x="236" y="532" type="curve" smooth="yes"/>
      <point x="135" y="532"/>
      <point x="62" y="477"/>
      <point x="62" y="375" type="curve" smooth="yes"/>
      <point x="62" y="272"/>
      <point x="136" y="237"/>
      <point x="209" y="212" type="curve" smooth="yes"/>
      <point x="282" y="187"/>
      <point x="353" y="176"/>
      <point x="353" y="124" type="curve" smooth="yes"/>
      <point x="353" y="77"/>
      <point x="313" y="47"/>
      <point x="246" y="47" type="curve" smooth="yes"/>
      <point x="168" y="47"/>
      <point x="123" y="68"/>
      <point x="123" y="125" type="curve" smooth="yes"/>
      <point x="123" y="137"/>
      <point x="125" y="151"/>
      <point x="129" y="167" type="curve"/>
      <point x="67" y="167" type="line"/>
      <point x="62" y="149"/>
      <point x="59" y="133"/>
      <point x="59" y="117" type="curve" smooth="yes"/>
      <point x="59" y="35"/>
      <point x="132" y="-10"/>
    </contour>
  </outline>
</glyph>
<glyph name="t" format="2">
  <advance width="493"/>
  <unicode hex="0074"/>
  <anchor x="257" y="0" name="bottom"/>
  <anchor x="212" y="363" name="center"/>
  <anchor x="268" y="555" name="topright"/>
  <outline>
    <contour>
      <point x="249" y="-10" type="curve"/>
      <point x="384" y="-10"/>
      <point x="436" y="76"/>
      <point x="436" y="188" type="curve" smooth="yes"/>
      <point x="436" y="211"/>
      <point x="434" y="234"/>
      <point x="430" y="258" type="curve"/>
      <point x="361" y="259" type="line"/>
      <point x="366" y="234"/>
      <point x="369" y="208"/>
      <point x="369" y="183" type="curve" smooth="yes"/>
      <point x="369" y="110"/>
      <point x="343" y="46"/>
      <point x="259" y="46" type="curve" smooth="yes"/>
      <point x="191" y="46"/>
      <point x="156" y="91"/>
      <point x="156" y="178" type="curve" smooth="yes"/>
      <point x="156" y="248"/>
      <point x="159" y="316"/>
      <point x="165" y="385" type="curve" smooth="yes"/>
      <point x="172" y="464"/>
      <point x="181" y="527"/>
      <point x="191" y="620" type="curve"/>
      <point x="109" y="619" type="line"/>
      <point x="106" y="541"/>
      <point x="100" y="476"/>
      <point x="95" y="394" type="curve" smooth="yes"/>
      <point x="91" y="311"/>
      <point x="87" y="232"/>
      <point x="87" y="170" type="curve" smooth="yes"/>
      <point x="87" y="77"/>
      <point x="129" y="-10"/>
    </contour>
    <contour>
      <point x="33" y="450" type="line"/>
      <point x="33" y="450"/>
      <point x="150" y="452"/>
      <point x="234" y="454" type="curve" smooth="yes"/>
      <point x="251" y="455"/>
      <point x="378" y="455"/>
      <point x="428" y="454" type="curve"/>
      <point x="435" y="516" type="line"/>
      <point x="435" y="516"/>
      <point x="292" y="513"/>
      <point x="211" y="513" type="curve" smooth="yes"/>
      <point x="195" y="513"/>
      <point x="33" y="514"/>
      <point x="40" y="514" type="curve"/>
    </contour>
  </outline>
</glyph>
<glyph name="u" format="2">
  <advance width="541"/>
  <unicode hex="0075"/>
  <anchor x="273" y="0" name="bottom"/>
  <anchor x="439" y="-3" name="ogonek"/>
  <anchor x="272" y="515" name="top"/>
  <anchor x="371" y="515" name="topright"/>
  <outline>
    <contour>
      <point x="231" y="-8" type="curve" smooth="yes"/>
      <point x="417" y="-8"/>
      <point x="427" y="206"/>
      <point x="427" y="288" type="curve"/>
      <point x="388" y="315" type="line"/>
      <point x="383" y="105"/>
      <point x="310" y="48"/>
      <point x="241" y="48" type="curve" smooth="yes"/>
      <point x="161" y="48"/>
      <point x="147" y="106"/>
      <point x="146" y="215" type="curve" smooth="yes"/>
      <point x="146" y="255"/>
      <point x="144" y="299"/>
      <point x="147" y="347" type="curve" smooth="yes"/>
      <point x="151" y="416"/>
      <point x="153" y="451"/>
      <point x="161" y="524" type="curve"/>
      <point x="86" y="518" type="line"/>
      <point x="84" y="485"/>
      <point x="83" y="447"/>
      <point x="80" y="369" type="curve" smooth="yes"/>
      <point x="78" y="310"/>
      <point x="79" y="252"/>
      <point x="79" y="212" type="curve" smooth="yes"/>
      <point x="79" y="60"/>
      <point x="115" y="-8"/>
    </contour>
    <contour>
      <point x="389" y="0" type="line"/>
      <point x="462" y="0" type="line"/>
      <point x="456" y="95"/>
      <point x="454" y="189"/>
      <point x="452" y="284" type="curve" smooth="yes"/>
      <point x="451" y="314"/>
      <point x="454" y="459"/>
      <point x="457" y="524" type="curve"/>
      <point x="379" y="525" type="line"/>
      <point x="381" y="434"/>
      <point x="385" y="343"/>
      <point x="385" y="281" type="curve" smooth="yes"/>
      <point x="385" y="222"/>
      <point x="385" y="164"/>
      <point x="383" y="105" type="curve"/>
    </contour>
  </outline>
</glyph>
<glyph name="v" format="2">
  <advance width="494"/>
  <unicode hex="0076"/>
  <outline>
    <contour>
      <point x="25" y="519" type="line"/>
      <point x="56" y="431"/>
      <point x="83" y="359"/>
      <point x="114" y="262" type="curve" smooth="yes"/>
      <point x="144" y="170"/>
      <point x="169" y="94"/>
      <point x="192" y="-3" type="curve"/>
      <point x="295" y="-6" type="line"/>
      <point x="317" y="76"/>
      <point x="341" y="151"/>
      <point x="376" y="254" type="curve" smooth="yes"/>
      <point x="407" y="344"/>
      <point x="437" y="420"/>
      <point x="469" y="517" type="curve"/>
      <point x="387" y="514" type="line"/>
      <point x="367" y="440"/>
      <point x="342" y="364"/>
      <point x="315" y="275" type="curve" smooth="yes"/>
      <point x="288" y="186"/>
      <point x="262" y="112"/>
      <point x="245" y="58" type="curve"/>
      <point x="229" y="115"/>
      <point x="201" y="197"/>
      <point x="176" y="284" type="curve" smooth="yes"/>
      <point x="149" y="376"/>
      <point x="130" y="450"/>
      <point x="114" y="519" type="curve"/>
    </contour>
  </outline>
</glyph>
<glyph name="w" format="2">
  <advance width="787"/>
  <unicode hex="0077"/>
  <anchor x="389" y="515" name="top"/>
  <outline>
    <contour>
      <point x="192" y="-3" type="curve"/>
      <point x="283" y="-6" type="line"/>
      <point x="292" y="30"/>
      <point x="322" y="142"/>
      <point x="352" y="248" type="curve" smooth="yes"/>
      <point x="367" y="303"/>
      <point x="381" y="356"/>
      <point x="392" y="396" type="curve"/>
      <point x="401" y="365"/>
      <point x="415" y="313"/>
      <point x="430" y="257" type="curve" smooth="yes"/>
      <point x="457" y="153"/>
      <point x="488" y="33"/>
      <point x="497" y="-6" type="curve"/>
      <point x="594" y="-3" type="line"/>
      <point x="610" y="56"/>
      <point x="643" y="159"/>
      <point x="677" y="262" type="curve" smooth="yes"/>
      <point x="708" y="358"/>
      <point x="740" y="454"/>
      <point x="762" y="519" type="curve"/>
      <point x="677" y="519" type="line"/>
      <point x="657" y="438"/>
      <point x="638" y="364"/>
      <point x="619" y="293" type="curve" smooth="yes"/>
      <point x="596" y="208"/>
      <point x="572" y="130"/>
      <point x="547" y="54" type="curve"/>
      <point x="527" y="129"/>
      <point x="508" y="204"/>
      <point x="490" y="275" type="curve" smooth="yes"/>
      <point x="472" y="350"/>
      <point x="455" y="421"/>
      <point x="443" y="482" type="curve"/>
      <point x="344" y="482" type="line"/>
      <point x="333" y="430"/>
      <point x="313" y="348"/>
      <point x="293" y="267" type="curve" smooth="yes"/>
      <point x="273" y="185"/>
      <point x="252" y="104"/>
      <point x="238" y="52" type="curve"/>
      <point x="206" y="160"/>
      <point x="185" y="236"/>
      <point x="165" y="307" type="curve" smooth="yes"/>
      <point x="146" y="373"/>
      <point x="130" y="436"/>
      <point x="108" y="516" type="curve"/>
      <point x="25" y="516" type="line"/>
      <point x="42" y="463"/>
      <point x="73" y="368"/>
      <point x="105" y="273" type="curve" smooth="yes"/>
      <point x="141" y="160"/>
      <point x="178" y="46"/>
    </contour>
  </outline>
</glyph>
<glyph name="x" format="2">
  <advance width="446"/>
  <unicode hex="0078"/>
  <outline>
    <contour>
      <point x="91" y="-4" type="line"/>
      <point x="91" y="-4"/>
      <point x="164" y="120"/>
      <point x="256" y="261" type="curve" smooth="yes"/>
      <point x="345" y="397"/>
      <point x="425" y="518"/>
      <point x="425" y="518" type="curve"/>
      <point x="344" y="518" type="line"/>
      <point x="344" y="518"/>
      <point x="278" y="414"/>
      <point x="193" y="279" type="curve" smooth="yes"/>
      <point x="104" y="138"/>
      <point x="10" y="-2"/>
      <point x="10" y="-2" type="curve"/>
    </contour>
    <contour>
      <point x="359" y="0" type="curve"/>
      <point x="439" y="3" type="line"/>
      <point x="439" y="3"/>
      <point x="349" y="138"/>
      <point x="259" y="279" type="curve" smooth="yes"/>
      <point x="171" y="416"/>
      <point x="110" y="518"/>
      <point x="110" y="518" type="curve"/>
      <point x="23" y="518" type="line"/>
      <point x="23" y="518"/>
      <point x="108" y="398"/>
      <point x="198" y="261" type="curve" smooth="yes"/>
      <point x="290" y="121"/>
      <point x="359" y="0"/>
    </contour>
  </outline>
</glyph>
<glyph name="y" format="2">
  <advance width="494"/>
  <unicode hex="0079"/>
  <anchor x="389" y="37" name="bottom"/>
  <anchor x="249" y="515" name="top"/>
  <outline>
    <contour>
      <point x="249" y="-148" type="line"/>
      <point x="301" y="21"/>
      <point x="334" y="112"/>
      <point x="375" y="242" type="curve" smooth="yes"/>
      <point x="401" y="325"/>
      <point x="425" y="397"/>
      <point x="463" y="516" type="curve"/>
      <point x="388" y="516" type="line"/>
      <point x="365" y="432"/>
      <point x="342" y="355"/>
      <point x="312" y="258" type="curve" smooth="yes"/>
      <point x="265" y="106"/>
      <point x="215" y="-29"/>
      <point x="175" y="-146" type="curve"/>
    </contour>
    <contour>
      <point x="226" y="-9" type="curve"/>
      <point x="283" y="38" type="line"/>
      <point x="265" y="86"/>
      <point x="234" y="157"/>
      <point x="199" y="253" type="curve" smooth="yes"/>
      <point x="162" y="354"/>
      <point x="132" y="442"/>
      <point x="111" y="513" type="curve"/>
      <point x="30" y="510" type="line"/>
      <point x="52" y="458"/>
      <point x="90" y="359"/>
      <point x="134" y="242" type="curve" smooth="yes"/>
      <point x="175" y="132"/>
      <point x="211" y="43"/>
    </contour>
  </outline>
</glyph>
<glyph name="z" format="2">
  <advance width="397"/>
  <unicode hex="007A"/>
  <anchor x="192" y="515" name="top"/>
  <outline>
    <contour>
      <point x="70" y="10" type="line"/>
      <point x="122" y="93"/>
      <point x="167" y="154"/>
      <point x="227" y="239" type="curve" smooth="yes"/>
      <point x="276" y="308"/>
      <point x="317" y="366"/>
      <point x="375" y="449" type="curve"/>
      <point x="322" y="495" type="line"/>
      <point x="276" y="423"/>
      <point x="229" y="351"/>
      <point x="168" y="265" type="curve" smooth="yes"/>
      <point x="107" y="179"/>
      <point x="65" y="117"/>
      <point x="22" y="62" type="curve"/>
    </contour>
    <contour>
      <point x="23" y="-4" type="line"/>
      <point x="23" y="-4"/>
      <point x="152" y="0"/>
      <point x="202" y="0" type="curve"/>
      <point x="252" y="-1"/>
      <point x="383" y="0"/>
      <point x="383" y="0" type="curve"/>
      <point x="384" y="64" type="line"/>
      <point x="384" y="64"/>
      <point x="265" y="62"/>
      <point x="217" y="61" type="curve"/>
      <point x="168" y="61"/>
      <point x="22" y="62"/>
      <point x="22" y="62" type="curve"/>
    </contour>
    <contour>
      <point x="31" y="449" type="line"/>
      <point x="31" y="449"/>
      <point x="144" y="451"/>
      <point x="193" y="451" type="curve"/>
      <point x="241" y="451"/>
      <point x="375" y="449"/>
      <point x="375" y="449" type="curve"/>
      <point x="372" y="515" type="line"/>
      <point x="372" y="515"/>
      <point x="269" y="512"/>
      <point x="209" y="512" type="curve"/>
      <point x="159" y="511"/>
      <point x="32" y="512"/>
      <point x="32" y="512" type="curve"/>
    </contour>
  </outline>
</glyph>
<glyph name="braceleft" format="2">
  <advance width="684"/>
  <unicode hex="007B"/>
  <outline>
    <contour>
      <point x="412" y="-131" type="curve" smooth="yes"/>
      <point x="453" y="-131"/>
      <point x="498" y="-122"/>
      <point x="544" y="-106" type="curve"/>
      <point x="531" y="-52" type="line"/>
      <point x="489" y="-65"/>
      <point x="448" y="-74"/>
      <point x="414" y="-74" type="curve" smooth="yes"/>
      <point x="357" y="-74"/>
      <point x="317" y="-53"/>
      <point x="317" y="23" type="curve" smooth="yes"/>
      <point x="317" y="67"/>
      <point x="338" y="130"/>
      <point x="338" y="177" type="curve" smooth="yes"/>
      <point x="338" y="227"/>
      <point x="299" y="271"/>
      <point x="246" y="278" type="curve"/>
      <point x="299" y="285"/>
      <point x="336" y="324"/>
      <point x="336" y="374" type="curve" smooth="yes"/>
      <point x="336" y="421"/>
      <point x="305" y="505"/>
      <point x="305" y="549" type="curve" smooth="yes"/>
      <point x="305" y="624"/>
      <point x="343" y="645"/>
      <point x="401" y="645" type="curve" smooth="yes"/>
      <point x="433" y="645"/>
      <point x="472" y="636"/>
      <point x="513" y="624" type="curve"/>
      <point x="530" y="679" type="line"/>
      <point x="484" y="695"/>
      <point x="438" y="704"/>
      <point x="397" y="704" type="curve" smooth="yes"/>
      <point x="307" y="704"/>
      <point x="240" y="661"/>
      <point x="240" y="552" type="curve" smooth="yes"/>
      <point x="240" y="496"/>
      <point x="272" y="438"/>
      <point x="272" y="384" type="curve" smooth="yes"/>
      <point x="272" y="311"/>
      <point x="176" y="302"/>
      <point x="139" y="302" type="curve"/>
      <point x="146" y="243" type="line"/>
      <point x="183" y="243"/>
      <point x="272" y="235"/>
      <point x="272" y="161" type="curve" smooth="yes"/>
      <point x="272" y="107"/>
      <point x="250" y="77"/>
      <point x="250" y="21" type="curve" smooth="yes"/>
      <point x="250" y="-86"/>
      <point x="320" y="-131"/>
    </contour>
  </outline>
</glyph>
<glyph name="bar" format="2">
  <advance width="289"/>
  <unicode hex="007C"/>
  <outline>
    <contour>
      <point x="179" y="-136" type="line"/>
      <point x="179" y="-136"/>
      <point x="169" y="116"/>
      <point x="169" y="289" type="curve" smooth="yes"/>
      <point x="169" y="463"/>
      <point x="178" y="694"/>
      <point x="178" y="694" type="curve"/>
      <point x="111" y="693" type="line"/>
      <point x="111" y="693"/>
      <point x="113" y="458"/>
      <point x="113" y="288" type="curve" smooth="yes"/>
      <point x="113" y="117"/>
      <point x="110" y="-134"/>
      <point x="110" y="-134" type="curve"/>
    </contour>
  </outline>
</glyph>
<glyph name="braceright" format="2">
  <advance width="684"/>
  <unicode hex="007D"/>
  <outline>
    <contour>
      <point x="286" y="-131" type="curve" smooth="yes"/>
      <point x="376" y="-131"/>
      <point x="443" y="-88"/>
      <point x="443" y="21" type="curve" smooth="yes"/>
      <point x="443" y="77"/>
      <point x="411" y="135"/>
      <point x="411" y="189" type="curve" smooth="yes"/>
      <point x="411" y="262"/>
      <point x="507" y="271"/>
      <point x="544" y="271" type="curve"/>
      <point x="537" y="330" type="line"/>
      <point x="500" y="330"/>
      <point x="411" y="338"/>
      <point x="411" y="412" type="curve" smooth="yes"/>
      <point x="411" y="466"/>
      <point x="433" y="496"/>
      <point x="433" y="552" type="curve" smooth="yes"/>
      <point x="433" y="659"/>
      <point x="363" y="704"/>
      <point x="271" y="704" type="curve" smooth="yes"/>
      <point x="230" y="704"/>
      <point x="185" y="695"/>
      <point x="139" y="679" type="curve"/>
      <point x="152" y="625" type="line"/>
      <point x="194" y="638"/>
      <point x="235" y="647"/>
      <point x="269" y="647" type="curve" smooth="yes"/>
      <point x="326" y="647"/>
      <point x="366" y="621"/>
      <point x="366" y="545" type="curve" smooth="yes"/>
      <point x="366" y="511"/>
      <point x="345" y="443"/>
      <point x="345" y="396" type="curve" smooth="yes"/>
      <point x="345" y="346"/>
      <point x="384" y="302"/>
      <point x="437" y="295" type="curve"/>
      <point x="384" y="288"/>
      <point x="347" y="249"/>
      <point x="347" y="199" type="curve" smooth="yes"/>
      <point x="347" y="152"/>
      <point x="378" y="63"/>
      <point x="378" y="29" type="curve" smooth="yes"/>
      <point x="378" y="-46"/>
      <point x="340" y="-72"/>
      <point x="282" y="-72" type="curve" smooth="yes"/>
      <point x="250" y="-72"/>
      <point x="211" y="-63"/>
      <point x="170" y="-51" type="curve"/>
      <point x="153" y="-106" type="line"/>
      <point x="199" y="-122"/>
      <point x="245" y="-131"/>
    </contour>
  </outline>
</glyph>
<glyph name="exclamdown" format="2">
  <advance width="335"/>
  <unicode hex="00A1"/>
  <outline>
    <contour>
      <point x="126" y="-146" type="curve"/>
      <point x="210" y="-145" type="line"/>
      <point x="210" y="-145"/>
      <point x="204" y="23"/>
      <point x="201" y="133" type="curve"/>
      <point x="198" y="242"/>
      <point x="197" y="323"/>
      <point x="197" y="323" type="curve"/>
      <point x="136" y="321" type="line"/>
      <point x="136" y="321"/>
      <point x="135" y="208"/>
      <point x="133" y="132" type="curve"/>
      <point x="132" y="57"/>
      <point x="126" y="-146"/>
    </contour>
    <contour>
      <point x="129" y="423" type="line"/>
      <point x="198" y="422" type="line"/>
      <point x="205" y="557" type="line"/>
      <point x="125" y="552" type="line"/>
    </contour>
  </outline>
</glyph>
<glyph name="sterling" format="2">
  <advance width="640"/>
  <unicode hex="00A3"/>
  <outline>
    <contour>
      <point x="201" y="50" type="line"/>
      <point x="272" y="78"/>
      <point x="292" y="135"/>
      <point x="292" y="176" type="curve" smooth="yes"/>
      <point x="292" y="278"/>
      <point x="181" y="378"/>
      <point x="181" y="504" type="curve" smooth="yes"/>
      <point x="181" y="608"/>
      <point x="252" y="643"/>
      <point x="333" y="643" type="curve" smooth="yes"/>
      <point x="435" y="643"/>
      <point x="472" y="578"/>
      <point x="472" y="499" type="curve" smooth="yes"/>
      <point x="472" y="472"/>
      <point x="467" y="444"/>
      <point x="460" y="416" type="curve"/>
      <point x="532" y="417" type="line"/>
      <point x="540" y="449"/>
      <point x="545" y="480"/>
      <point x="545" y="510" type="curve" smooth="yes"/>
      <point x="545" y="620"/>
      <point x="483" y="706"/>
      <point x="328" y="706" type="curve" smooth="yes"/>
      <point x="205" y="706"/>
      <point x="107" y="633"/>
      <point x="107" y="503" type="curve" smooth="yes"/>
      <point x="107" y="373"/>
      <point x="220" y="262"/>
      <point x="220" y="163" type="curve" smooth="yes"/>
      <point x="220" y="110"/>
      <point x="160" y="76"/>
      <point x="94" y="68" type="curve"/>
    </contour>
    <contour>
      <point x="105" y="-4" type="line"/>
      <point x="105" y="-4"/>
      <point x="181" y="0"/>
      <point x="328" y="0" type="curve"/>
      <point x="338" y="0"/>
      <point x="495" y="0"/>
      <point x="550" y="-1" type="curve"/>
      <point x="556" y="71" type="line"/>
      <point x="487" y="68"/>
      <point x="370" y="65"/>
      <point x="327" y="66" type="curve"/>
      <point x="176" y="66"/>
      <point x="94" y="68"/>
      <point x="94" y="68" type="curve"/>
    </contour>
    <contour>
      <point x="84" y="262" type="line"/>
      <point x="145" y="265"/>
      <point x="251" y="269"/>
      <point x="300" y="269" type="curve"/>
      <point x="352" y="268"/>
      <point x="416" y="266"/>
      <point x="464" y="265" type="curve"/>
      <point x="475" y="334" type="line"/>
      <point x="425" y="333"/>
      <point x="341" y="330"/>
      <point x="297" y="329" type="curve"/>
      <point x="205" y="329"/>
      <point x="154" y="329"/>
      <point x="87" y="329" type="curve"/>
    </contour>
  </outline>
</glyph>
<glyph name="dieresis" format="2">
  <advance width="305"/>
  <unicode hex="00A8"/>
  <anchor x="153" y="555" name="_top"/>
  <outline>
    <contour>
      <point x="294" y="626" type="line"/>
      <point x="298" y="710" type="line"/>
      <point x="213" y="717" type="line"/>
      <point x="216" y="625" type="line"/>
    </contour>
    <contour>
      <point x="88" y="626" type="line"/>
      <point x="92" y="710" type="line"/>
      <point x="7" y="717" type="line"/>
      <point x="10" y="625" type="line"/>
    </contour>
  </outline>
</glyph>
<glyph name="ordfeminine" format="2">
  <advance width="440"/>
  <unicode hex="00AA"/>
  <outline>
    <contour>
      <point x="96" y="519" type="curve" smooth="yes"/>
      <point x="96" y="491"/>
      <point x="116" y="461"/>
      <point x="175" y="461" type="curve" smooth="yes"/>
      <point x="222" y="461"/>
      <point x="262" y="479"/>
      <point x="285" y="507" type="curve"/>
      <point x="287" y="492"/>
      <point x="296" y="468"/>
      <point x="305" y="461" type="curve"/>
      <point x="350" y="481" type="line"/>
      <point x="342" y="490"/>
      <point x="331" y="503"/>
      <point x="332" y="524" type="curve" smooth="yes"/>
      <point x="335" y="618" type="line" smooth="yes"/>
      <point x="336" y="654"/>
      <point x="321" y="703"/>
      <point x="222" y="703" type="curve" smooth="yes"/>
      <point x="141" y="703"/>
      <point x="105" y="667"/>
      <point x="105" y="621" type="curve"/>
      <point x="154" y="615" type="line"/>
      <point x="154" y="647"/>
      <point x="179" y="664"/>
      <point x="222" y="664" type="curve" smooth="yes"/>
      <point x="262" y="664"/>
      <point x="282" y="652"/>
      <point x="282" y="633" type="curve" smooth="yes"/>
      <point x="282" y="611"/>
      <point x="243" y="605"/>
      <point x="200" y="596" type="curve" smooth="yes"/>
      <point x="150" y="586"/>
      <point x="96" y="573"/>
    </contour>
    <contour>
      <point x="147" y="522" type="curve" smooth="yes"/>
      <point x="147" y="548"/>
      <point x="176" y="551"/>
      <point x="208" y="558" type="curve" smooth="yes"/>
      <point x="235" y="564"/>
      <point x="264" y="570"/>
      <point x="282" y="582" type="curve"/>
      <point x="282" y="571" type="line" smooth="yes"/>
      <point x="282" y="526"/>
      <point x="224" y="499"/>
      <point x="184" y="499" type="curve" smooth="yes"/>
      <point x="163" y="499"/>
      <point x="147" y="506"/>
    </contour>
  </outline>
</glyph>
<glyph name="guillemetleft" format="2">
  <advance width="953"/>
  <unicode hex="00AB"/>
  <outline>
    <contour>
      <point x="132" y="249" type="line"/>
      <point x="192" y="280"/>
      <point x="254" y="312"/>
      <point x="313" y="342" type="curve" smooth="yes"/>
      <point x="373" y="373"/>
      <point x="430" y="401"/>
      <point x="477" y="423" type="curve"/>
      <point x="444" y="477" type="line"/>
      <point x="404" y="453"/>
      <point x="351" y="424"/>
      <point x="293" y="395" type="curve" smooth="yes"/>
      <point x="239" y="367"/>
      <point x="180" y="339"/>
      <point x="125" y="313" type="curve"/>
    </contour>
    <contour>
      <point x="454" y="117" type="curve"/>
      <point x="481" y="176" type="line"/>
      <point x="448" y="188"/>
      <point x="398" y="206"/>
      <point x="342" y="228" type="curve" smooth="yes"/>
      <point x="274" y="253"/>
      <point x="196" y="284"/>
      <point x="125" y="313" type="curve"/>
      <point x="132" y="249" type="line"/>
      <point x="187" y="228"/>
      <point x="250" y="202"/>
      <point x="309" y="177" type="curve" smooth="yes"/>
      <point x="365" y="154"/>
      <point x="418" y="132"/>
    </contour>
    <contour>
      <point x="479" y="249" type="line"/>
      <point x="539" y="280"/>
      <point x="601" y="312"/>
      <point x="660" y="342" type="curve" smooth="yes"/>
      <point x="720" y="373"/>
      <point x="777" y="401"/>
      <point x="824" y="423" type="curve"/>
      <point x="791" y="477" type="line"/>
      <point x="751" y="453"/>
      <point x="698" y="424"/>
      <point x="640" y="395" type="curve" smooth="yes"/>
      <point x="586" y="367"/>
      <point x="527" y="339"/>
      <point x="472" y="313" type="curve"/>
    </contour>
    <contour>
      <point x="801" y="117" type="curve"/>
      <point x="828" y="176" type="line"/>
      <point x="795" y="188"/>
      <point x="745" y="206"/>
      <point x="689" y="228" type="curve" smooth="yes"/>
      <point x="621" y="253"/>
      <point x="543" y="284"/>
      <point x="472" y="313" type="curve"/>
      <point x="479" y="249" type="line"/>
      <point x="534" y="228"/>
      <point x="597" y="202"/>
      <point x="656" y="177" type="curve" smooth="yes"/>
      <point x="712" y="154"/>
      <point x="765" y="132"/>
    </contour>
  </outline>
</glyph>
<glyph name="macron" format="2">
  <advance width="305"/>
  <unicode hex="00AF"/>
  <anchor x="153" y="555" name="_top"/>
  <outline>
    <contour>
      <point x="32" y="646" type="line"/>
      <point x="274" y="649" type="line"/>
      <point x="269" y="696" type="line"/>
      <point x="32" y="699" type="line"/>
    </contour>
  </outline>
</glyph>
<glyph name="twosuperior" format="2">
  <advance width="382"/>
  <unicode hex="00B2"/>
  <outline>
    <contour>
      <point x="140" y="581" type="line"/>
      <point x="211" y="608"/>
      <point x="291" y="654"/>
      <point x="291" y="721" type="curve" smooth="yes"/>
      <point x="291" y="778"/>
      <point x="248" y="805"/>
      <point x="196" y="805" type="curve" smooth="yes"/>
      <point x="127" y="805"/>
      <point x="94" y="766"/>
      <point x="94" y="712" type="curve" smooth="yes"/>
      <point x="94" y="702"/>
      <point x="95" y="692"/>
      <point x="97" y="682" type="curve"/>
      <point x="151" y="683" type="line"/>
      <point x="149" y="693"/>
      <point x="147" y="704"/>
      <point x="147" y="715" type="curve" smooth="yes"/>
      <point x="147" y="741"/>
      <point x="157" y="765"/>
      <point x="192" y="765" type="curve" smooth="yes"/>
      <point x="220" y="765"/>
      <point x="236" y="752"/>
      <point x="236" y="721" type="curve" smooth="yes"/>
      <point x="236" y="668"/>
      <point x="174" y="634"/>
      <point x="93" y="604" type="curve"/>
    </contour>
    <contour>
      <point x="92" y="563" type="line"/>
      <point x="92" y="563"/>
      <point x="143" y="564"/>
      <point x="194" y="565" type="curve"/>
      <point x="225" y="565"/>
      <point x="295" y="565"/>
      <point x="295" y="565" type="curve"/>
      <point x="294" y="607" type="line"/>
      <point x="294" y="607"/>
      <point x="229" y="606"/>
      <point x="199" y="605" type="curve"/>
      <point x="171" y="605"/>
      <point x="93" y="604"/>
      <point x="93" y="604" type="curve"/>
    </contour>
  </outline>
</glyph>
<glyph name="threesuperior" format="2">
  <advance width="382"/>
  <unicode hex="00B3"/>
  <outline>
    <contour>
      <point x="182" y="559" type="curve" smooth="yes"/>
      <point x="262" y="559"/>
      <point x="288" y="592"/>
      <point x="288" y="626" type="curve" smooth="yes"/>
      <point x="288" y="650"/>
      <point x="268" y="665"/>
      <point x="250" y="668" type="curve"/>
      <point x="267" y="676"/>
      <point x="292" y="694"/>
      <point x="292" y="734" type="curve" smooth="yes"/>
      <point x="292" y="775"/>
      <point x="261" y="806"/>
      <point x="188" y="806" type="curve" smooth="yes"/>
      <point x="124" y="806"/>
      <point x="91" y="771"/>
      <point x="91" y="730" type="curve" smooth="yes"/>
      <point x="91" y="723"/>
      <point x="92" y="715"/>
      <point x="94" y="708" type="curve"/>
      <point x="143" y="709" type="line"/>
      <point x="142" y="714"/>
      <point x="142" y="719"/>
      <point x="142" y="724" type="curve" smooth="yes"/>
      <point x="142" y="745"/>
      <point x="150" y="767"/>
      <point x="188" y="767" type="curve" smooth="yes"/>
      <point x="228" y="767"/>
      <point x="238" y="747"/>
      <point x="238" y="724" type="curve" smooth="yes"/>
      <point x="238" y="701"/>
      <point x="231" y="684"/>
      <point x="183" y="684" type="curve"/>
      <point x="175" y="684"/>
      <point x="148" y="684"/>
      <point x="136" y="684" type="curve"/>
      <point x="136" y="649" type="line"/>
      <point x="145" y="649"/>
      <point x="182" y="649"/>
      <point x="189" y="649" type="curve"/>
      <point x="219" y="649"/>
      <point x="233" y="644"/>
      <point x="233" y="627" type="curve" smooth="yes"/>
      <point x="233" y="602"/>
      <point x="214" y="595"/>
      <point x="184" y="595" type="curve" smooth="yes"/>
      <point x="139" y="595"/>
      <point x="140" y="614"/>
      <point x="140" y="626" type="curve"/>
      <point x="88" y="625" type="line"/>
      <point x="88" y="607"/>
      <point x="91" y="559"/>
    </contour>
  </outline>
</glyph>
<glyph name="onesuperior" format="2">
  <advance width="382"/>
  <unicode hex="00B9"/>
  <outline>
    <contour>
      <point x="207" y="567" type="curve"/>
      <point x="266" y="567" type="line"/>
      <point x="263" y="645"/>
      <point x="263" y="721"/>
      <point x="267" y="801" type="curve"/>
      <point x="237" y="801" type="line"/>
      <point x="209" y="751" type="line"/>
      <point x="211" y="691"/>
      <point x="210" y="621"/>
    </contour>
    <contour>
      <point x="98" y="720" type="line"/>
      <point x="132" y="720"/>
      <point x="209" y="727"/>
      <point x="233" y="735" type="curve"/>
      <point x="237" y="801" type="line"/>
      <point x="217" y="781"/>
      <point x="130" y="761"/>
      <point x="95" y="756" type="curve"/>
    </contour>
  </outline>
</glyph>
<glyph name="ordmasculine" format="2">
  <advance width="440"/>
  <unicode hex="00BA"/>
  <outline>
    <contour>
      <point x="216" y="469" type="curve" smooth="yes"/>
      <point x="303" y="469"/>
      <point x="341" y="524"/>
      <point x="341" y="590" type="curve" smooth="yes"/>
      <point x="341" y="649"/>
      <point x="310" y="703"/>
      <point x="223" y="703" type="curve" smooth="yes"/>
      <point x="143" y="703"/>
      <point x="99" y="653"/>
      <point x="99" y="588" type="curve" smooth="yes"/>
      <point x="99" y="515"/>
      <point x="139" y="469"/>
    </contour>
    <contour>
      <point x="218" y="516" type="curve" smooth="yes"/>
      <point x="178" y="516"/>
      <point x="152" y="538"/>
      <point x="152" y="589" type="curve" smooth="yes"/>
      <point x="152" y="632"/>
      <point x="174" y="659"/>
      <point x="222" y="659" type="curve" smooth="yes"/>
      <point x="263" y="659"/>
      <point x="289" y="640"/>
      <point x="288" y="593" type="curve" smooth="yes"/>
      <point x="287" y="547"/>
      <point x="275" y="516"/>
    </contour>
  </outline>
</glyph>
<glyph name="guillemetright" format="2">
  <advance width="953"/>
  <unicode hex="00BB"/>
  <outline>
    <contour>
      <point x="828" y="281" type="curve"/>
      <point x="821" y="345" type="line"/>
      <point x="766" y="366"/>
      <point x="703" y="392"/>
      <point x="644" y="417" type="curve" smooth="yes"/>
      <point x="588" y="440"/>
      <point x="535" y="462"/>
      <point x="499" y="477" type="curve"/>
      <point x="472" y="418" type="line"/>
      <point x="505" y="406"/>
      <point x="555" y="388"/>
      <point x="611" y="366" type="curve" smooth="yes"/>
      <point x="679" y="341"/>
      <point x="757" y="310"/>
    </contour>
    <contour>
      <point x="481" y="281" type="curve"/>
      <point x="474" y="345" type="line"/>
      <point x="419" y="366"/>
      <point x="356" y="392"/>
      <point x="297" y="417" type="curve" smooth="yes"/>
      <point x="241" y="440"/>
      <point x="188" y="462"/>
      <point x="152" y="477" type="curve"/>
      <point x="125" y="418" type="line"/>
      <point x="158" y="406"/>
      <point x="208" y="388"/>
      <point x="264" y="366" type="curve" smooth="yes"/>
      <point x="332" y="341"/>
      <point x="410" y="310"/>
    </contour>
    <contour>
      <point x="509" y="117" type="line"/>
      <point x="549" y="141"/>
      <point x="602" y="170"/>
      <point x="660" y="199" type="curve" smooth="yes"/>
      <point x="714" y="227"/>
      <point x="773" y="255"/>
      <point x="828" y="281" type="curve"/>
      <point x="821" y="345" type="line"/>
      <point x="761" y="314"/>
      <point x="699" y="282"/>
      <point x="640" y="252" type="curve" smooth="yes"/>
      <point x="580" y="221"/>
      <point x="523" y="193"/>
      <point x="476" y="171" type="curve"/>
    </contour>
    <contour>
      <point x="162" y="117" type="line"/>
      <point x="202" y="141"/>
      <point x="255" y="170"/>
      <point x="313" y="199" type="curve" smooth="yes"/>
      <point x="367" y="227"/>
      <point x="426" y="255"/>
      <point x="481" y="281" type="curve"/>
      <point x="474" y="345" type="line"/>
      <point x="414" y="314"/>
      <point x="352" y="282"/>
      <point x="293" y="252" type="curve" smooth="yes"/>
      <point x="233" y="221"/>
      <point x="176" y="193"/>
      <point x="129" y="171" type="curve"/>
    </contour>
  </outline>
</glyph>
<glyph name="onequarter" format="2">
  <advance width="890"/>
  <unicode hex="00BC"/>
  <outline>
    <contour>
      <point x="141" y="-1" type="curve"/>
      <point x="230" y="0" type="line"/>
      <point x="313" y="113"/>
      <point x="392" y="229"/>
      <point x="478" y="340" type="curve" smooth="yes"/>
      <point x="569" y="458"/>
      <point x="660" y="577"/>
      <point x="751" y="695" type="curve"/>
      <point x="661" y="697" type="line"/>
      <point x="576" y="578"/>
      <point x="497" y="458"/>
      <point x="407" y="339" type="curve" smooth="yes"/>
      <point x="320" y="224"/>
      <point x="230" y="112"/>
    </contour>
    <contour>
      <point x="216" y="460" type="curve"/>
      <point x="275" y="460" type="line"/>
      <point x="272" y="538"/>
      <point x="272" y="614"/>
      <point x="276" y="694" type="curve"/>
      <point x="246" y="694" type="line"/>
      <point x="226" y="674"/>
      <point x="139" y="654"/>
      <point x="104" y="649" type="curve"/>
      <point x="107" y="613" type="line"/>
      <point x="133" y="613"/>
      <point x="185" y="617"/>
      <point x="219" y="623" type="curve"/>
      <point x="220" y="568"/>
      <point x="219" y="508"/>
    </contour>
    <contour>
      <point x="686" y="-1" type="line"/>
      <point x="731" y="0" type="line"/>
      <point x="730" y="49" type="line"/>
      <point x="774" y="49" type="line"/>
      <point x="774" y="91" type="line"/>
      <point x="730" y="90" type="line"/>
      <point x="730" y="127" type="line" smooth="yes"/>
      <point x="730" y="169"/>
      <point x="731" y="214"/>
      <point x="731" y="235" type="curve"/>
      <point x="655" y="236" type="line"/>
      <point x="641" y="211"/>
      <point x="625" y="187"/>
      <point x="608" y="162" type="curve" smooth="yes"/>
      <point x="559" y="89" type="line"/>
      <point x="564" y="48" type="line"/>
      <point x="687" y="49" type="line"/>
    </contour>
    <contour>
      <point x="606" y="88" type="line"/>
      <point x="686" y="211" type="line"/>
      <point x="687" y="88" type="line"/>
    </contour>
  </outline>
</glyph>
<glyph name="onehalf" format="2">
  <advance width="890"/>
  <unicode hex="00BD"/>
  <outline>
    <contour>
      <point x="141" y="-1" type="curve"/>
      <point x="230" y="0" type="line"/>
      <point x="313" y="113"/>
      <point x="392" y="229"/>
      <point x="478" y="340" type="curve" smooth="yes"/>
      <point x="569" y="458"/>
      <point x="660" y="577"/>
      <point x="751" y="695" type="curve"/>
      <point x="661" y="697" type="line"/>
      <point x="576" y="578"/>
      <point x="497" y="458"/>
      <point x="407" y="339" type="curve" smooth="yes"/>
      <point x="320" y="224"/>
      <point x="230" y="112"/>
    </contour>
    <contour>
      <point x="571" y="-2" type="line"/>
      <point x="605" y="-1"/>
      <point x="639" y="-1"/>
      <point x="673" y="0" type="curve"/>
      <point x="774" y="0" type="line"/>
      <point x="773" y="42" type="line"/>
      <point x="741" y="42"/>
      <point x="699" y="41"/>
      <point x="673" y="40" type="curve"/>
      <point x="725" y="67"/>
      <point x="770" y="106"/>
      <point x="770" y="156" type="curve" smooth="yes"/>
      <point x="770" y="213"/>
      <point x="727" y="240"/>
      <point x="675" y="240" type="curve" smooth="yes"/>
      <point x="606" y="240"/>
      <point x="573" y="201"/>
      <point x="573" y="147" type="curve" smooth="yes"/>
      <point x="573" y="137"/>
      <point x="574" y="127"/>
      <point x="576" y="117" type="curve"/>
      <point x="630" y="118" type="line"/>
      <point x="628" y="128"/>
      <point x="626" y="139"/>
      <point x="626" y="150" type="curve" smooth="yes"/>
      <point x="626" y="176"/>
      <point x="636" y="200"/>
      <point x="671" y="200" type="curve" smooth="yes"/>
      <point x="699" y="200"/>
      <point x="715" y="187"/>
      <point x="715" y="156" type="curve" smooth="yes"/>
      <point x="715" y="103"/>
      <point x="653" y="69"/>
      <point x="572" y="39" type="curve"/>
    </contour>
    <contour>
      <point x="216" y="460" type="curve"/>
      <point x="275" y="460" type="line"/>
      <point x="272" y="538"/>
      <point x="272" y="614"/>
      <point x="276" y="694" type="curve"/>
      <point x="246" y="694" type="line"/>
      <point x="226" y="674"/>
      <point x="139" y="654"/>
      <point x="104" y="649" type="curve"/>
      <point x="107" y="613" type="line"/>
      <point x="133" y="613"/>
      <point x="185" y="617"/>
      <point x="219" y="623" type="curve"/>
      <point x="220" y="568"/>
      <point x="219" y="508"/>
    </contour>
  </outline>
</glyph>
<glyph name="threequarters" format="2">
  <advance width="890"/>
  <unicode hex="00BE"/>
  <outline>
    <contour>
      <point x="141" y="-1" type="curve"/>
      <point x="230" y="0" type="line"/>
      <point x="313" y="113"/>
      <point x="392" y="229"/>
      <point x="478" y="340" type="curve" smooth="yes"/>
      <point x="569" y="458"/>
      <point x="660" y="577"/>
      <point x="751" y="695" type="curve"/>
      <point x="661" y="697" type="line"/>
      <point x="576" y="578"/>
      <point x="497" y="458"/>
      <point x="407" y="339" type="curve" smooth="yes"/>
      <point x="320" y="224"/>
      <point x="230" y="112"/>
    </contour>
    <contour>
      <point x="198" y="452" type="curve" smooth="yes"/>
      <point x="278" y="452"/>
      <point x="304" y="485"/>
      <point x="304" y="519" type="curve" smooth="yes"/>
      <point x="304" y="543"/>
      <point x="284" y="558"/>
      <point x="266" y="561" type="curve"/>
      <point x="283" y="569"/>
      <point x="308" y="587"/>
      <point x="308" y="627" type="curve" smooth="yes"/>
      <point x="308" y="668"/>
      <point x="277" y="699"/>
      <point x="204" y="699" type="curve" smooth="yes"/>
      <point x="140" y="699"/>
      <point x="107" y="664"/>
      <point x="107" y="623" type="curve" smooth="yes"/>
      <point x="107" y="616"/>
      <point x="108" y="608"/>
      <point x="110" y="601" type="curve"/>
      <point x="159" y="602" type="line"/>
      <point x="158" y="607"/>
      <point x="158" y="612"/>
      <point x="158" y="617" type="curve" smooth="yes"/>
      <point x="158" y="638"/>
      <point x="166" y="660"/>
      <point x="204" y="660" type="curve" smooth="yes"/>
      <point x="244" y="660"/>
      <point x="254" y="640"/>
      <point x="254" y="617" type="curve" smooth="yes"/>
      <point x="254" y="594"/>
      <point x="247" y="577"/>
      <point x="199" y="577" type="curve"/>
      <point x="191" y="577"/>
      <point x="164" y="577"/>
      <point x="152" y="577" type="curve"/>
      <point x="152" y="542" type="line"/>
      <point x="161" y="542"/>
      <point x="198" y="542"/>
      <point x="205" y="542" type="curve"/>
      <point x="235" y="542"/>
      <point x="249" y="537"/>
      <point x="249" y="520" type="curve" smooth="yes"/>
      <point x="249" y="495"/>
      <point x="230" y="488"/>
      <point x="200" y="488" type="curve" smooth="yes"/>
      <point x="155" y="488"/>
      <point x="156" y="507"/>
      <point x="156" y="519" type="curve"/>
      <point x="104" y="518" type="line"/>
      <point x="104" y="500"/>
      <point x="107" y="452"/>
    </contour>
    <contour>
      <point x="686" y="-1" type="line"/>
      <point x="731" y="0" type="line"/>
      <point x="730" y="49" type="line"/>
      <point x="774" y="49" type="line"/>
      <point x="774" y="91" type="line"/>
      <point x="730" y="90" type="line"/>
      <point x="730" y="127" type="line" smooth="yes"/>
      <point x="730" y="169"/>
      <point x="731" y="214"/>
      <point x="731" y="235" type="curve"/>
      <point x="655" y="236" type="line"/>
      <point x="641" y="211"/>
      <point x="625" y="187"/>
      <point x="608" y="162" type="curve" smooth="yes"/>
      <point x="559" y="89" type="line"/>
      <point x="564" y="48" type="line"/>
      <point x="687" y="49" type="line"/>
    </contour>
    <contour>
      <point x="606" y="88" type="line"/>
      <point x="686" y="211" type="line"/>
      <point x="687" y="88" type="line"/>
    </contour>
  </outline>
</glyph>
<glyph name="questiondown" format="2">
  <advance width="696"/>
  <unicode hex="00BF"/>
  <outline>
    <contour>
      <point x="309" y="341" type="line"/>
      <point x="313" y="321"/>
      <point x="316" y="305"/>
      <point x="316" y="280" type="curve" smooth="yes"/>
      <point x="316" y="233"/>
      <point x="277" y="209"/>
      <point x="234" y="180" type="curve" smooth="yes"/>
      <point x="182" y="145"/>
      <point x="125" y="103"/>
      <point x="125" y="7" type="curve" smooth="yes"/>
      <point x="125" y="-93"/>
      <point x="206" y="-160"/>
      <point x="340" y="-160" type="curve" smooth="yes"/>
      <point x="495" y="-160"/>
      <point x="571" y="-76"/>
      <point x="571" y="28" type="curve" smooth="yes"/>
      <point x="571" y="52"/>
      <point x="566" y="78"/>
      <point x="558" y="104" type="curve"/>
      <point x="480" y="105" type="line"/>
      <point x="488" y="82"/>
      <point x="493" y="57"/>
      <point x="493" y="34" type="curve" smooth="yes"/>
      <point x="493" y="-35"/>
      <point x="452" y="-94"/>
      <point x="347" y="-94" type="curve" smooth="yes"/>
      <point x="253" y="-94"/>
      <point x="204" y="-54"/>
      <point x="204" y="12" type="curve" smooth="yes"/>
      <point x="204" y="71"/>
      <point x="240" y="103"/>
      <point x="281" y="131" type="curve" smooth="yes"/>
      <point x="333" y="168"/>
      <point x="393" y="199"/>
      <point x="393" y="274" type="curve" smooth="yes"/>
      <point x="393" y="299"/>
      <point x="390" y="325"/>
      <point x="387" y="340" type="curve"/>
    </contour>
    <contour>
      <point x="384" y="561" type="line"/>
      <point x="304" y="555" type="line"/>
      <point x="313" y="428" type="line"/>
      <point x="378" y="430" type="line"/>
    </contour>
  </outline>
</glyph>
<glyph name="AE" format="2">
  <advance width="806"/>
  <unicode hex="00C6"/>
  <anchor x="465" y="693" name="top"/>
  <outline>
    <contour>
      <point x="36" y="6" type="curve"/>
      <point x="116" y="5" type="line"/>
      <point x="138" y="57"/>
      <point x="160" y="109"/>
      <point x="182" y="161" type="curve"/>
      <point x="366" y="167" type="line"/>
      <point x="364" y="-5" type="line"/>
      <point x="733" y="0" type="line"/>
      <point x="733" y="63" type="line"/>
      <point x="445" y="67" type="line"/>
      <point x="443" y="202" type="line"/>
      <point x="728" y="206" type="line"/>
      <point x="730" y="269" type="line"/>
      <point x="443" y="272" type="line"/>
      <point x="442" y="393" type="line" smooth="yes"/>
      <point x="442" y="464"/>
      <point x="443" y="560"/>
      <point x="444" y="623" type="curve"/>
      <point x="721" y="624" type="line"/>
      <point x="721" y="693" type="line"/>
      <point x="340" y="699" type="line"/>
      <point x="307" y="623"/>
      <point x="247" y="487"/>
      <point x="188" y="350" type="curve" smooth="yes"/>
      <point x="128" y="212"/>
      <point x="68" y="76"/>
    </contour>
    <contour>
      <point x="366" y="227" type="line"/>
      <point x="211" y="230" type="line"/>
      <point x="228" y="270"/>
      <point x="246" y="311"/>
      <point x="263" y="351" type="curve" smooth="yes"/>
      <point x="293" y="419"/>
      <point x="332" y="511"/>
      <point x="366" y="587" type="curve"/>
      <point x="366" y="534"/>
      <point x="367" y="465"/>
      <point x="367" y="391" type="curve" smooth="yes"/>
    </contour>
  </outline>
</glyph>
<glyph name="Eth" format="2">
  <advance width="591"/>
  <unicode hex="00D0"/>
  <outline>
    <contour>
      <point x="15" y="315" type="line"/>
      <point x="43" y="316"/>
      <point x="114" y="317"/>
      <point x="206" y="317" type="curve"/>
      <point x="250" y="317"/>
      <point x="326" y="316"/>
      <point x="372" y="315" type="curve"/>
      <point x="372" y="375" type="line"/>
      <point x="332" y="373"/>
      <point x="261" y="371"/>
      <point x="212" y="372" type="curve"/>
      <point x="119" y="373"/>
      <point x="46" y="374"/>
      <point x="18" y="375" type="curve"/>
    </contour>
    <component base="D"/>
  </outline>
</glyph>
<glyph name="multiply" format="2">
  <advance width="580"/>
  <unicode hex="00D7"/>
  <outline>
    <contour>
      <point x="485" y="164" type="line"/>
      <point x="485" y="164"/>
      <point x="351" y="271"/>
      <point x="304" y="319" type="curve"/>
      <point x="255" y="367"/>
      <point x="140" y="482"/>
      <point x="140" y="482" type="curve"/>
      <point x="94" y="431" type="line"/>
      <point x="94" y="431"/>
      <point x="217" y="323"/>
      <point x="264" y="278" type="curve"/>
      <point x="309" y="235"/>
      <point x="438" y="111"/>
      <point x="438" y="111" type="curve"/>
    </contour>
    <contour>
      <point x="139" y="100" type="line"/>
      <point x="139" y="100"/>
      <point x="278" y="240"/>
      <point x="320" y="281" type="curve"/>
      <point x="363" y="324"/>
      <point x="498" y="450"/>
      <point x="498" y="450" type="curve"/>
      <point x="453" y="496" type="line"/>
      <point x="453" y="496"/>
      <point x="319" y="361"/>
      <point x="280" y="320" type="curve"/>
      <point x="241" y="281"/>
      <point x="94" y="144"/>
      <point x="94" y="144" type="curve"/>
    </contour>
  </outline>
</glyph>
<glyph name="Thorn" format="2">
  <advance width="539"/>
  <unicode hex="00DE"/>
  <outline>
    <contour>
      <point x="162" y="131" type="line"/>
      <point x="363" y="131"/>
      <point x="510" y="159"/>
      <point x="510" y="365" type="curve"/>
      <point x="510" y="533"/>
      <point x="426" y="583"/>
      <point x="225" y="583" type="curve" smooth="yes"/>
      <point x="190" y="583"/>
      <point x="151" y="582"/>
      <point x="109" y="580" type="curve"/>
      <point x="131" y="514" type="line"/>
      <point x="177" y="518"/>
      <point x="217" y="520"/>
      <point x="251" y="520" type="curve" smooth="yes"/>
      <point x="387" y="520"/>
      <point x="432" y="474"/>
      <point x="432" y="354" type="curve"/>
      <point x="432" y="197"/>
      <point x="326" y="198"/>
      <point x="158" y="198" type="curve"/>
    </contour>
    <contour>
      <point x="98" y="-6" type="curve"/>
      <point x="181" y="-2" type="line"/>
      <point x="179" y="103"/>
      <point x="177" y="274"/>
      <point x="177" y="359" type="curve"/>
      <point x="177" y="457"/>
      <point x="181" y="608"/>
      <point x="183" y="703" type="curve"/>
      <point x="99" y="710" type="line"/>
      <point x="100" y="632"/>
      <point x="102" y="482"/>
      <point x="102" y="357" type="curve"/>
      <point x="102" y="232"/>
      <point x="100" y="77"/>
    </contour>
  </outline>
</glyph>
<glyph name="germandbls" format="2">
  <advance width="607"/>
  <unicode hex="00DF"/>
  <outline>
    <contour>
      <point x="89" y="-3" type="curve"/>
      <point x="170" y="0" type="line"/>
      <point x="167" y="55"/>
      <point x="163" y="167"/>
      <point x="163" y="271" type="curve" smooth="yes"/>
      <point x="163" y="410"/>
      <point x="165" y="409"/>
      <point x="168" y="473" type="curve" smooth="yes"/>
      <point x="172" y="556"/>
      <point x="200" y="643"/>
      <point x="335" y="643" type="curve" smooth="yes"/>
      <point x="460" y="643"/>
      <point x="485" y="571"/>
      <point x="485" y="529" type="curve" smooth="yes"/>
      <point x="485" y="429"/>
      <point x="338" y="408"/>
      <point x="338" y="323" type="curve" smooth="yes"/>
      <point x="338" y="265"/>
      <point x="393" y="240"/>
      <point x="444" y="216" type="curve" smooth="yes"/>
      <point x="489" y="195"/>
      <point x="531" y="176"/>
      <point x="531" y="137" type="curve" smooth="yes"/>
      <point x="531" y="46"/>
      <point x="452" y="23"/>
      <point x="300" y="48" type="curve"/>
      <point x="295" y="-9" type="line"/>
      <point x="518" y="-39"/>
      <point x="600" y="40"/>
      <point x="600" y="135" type="curve" smooth="yes"/>
      <point x="600" y="216"/>
      <point x="530" y="249"/>
      <point x="474" y="274" type="curve" smooth="yes"/>
      <point x="437" y="291"/>
      <point x="406" y="306"/>
      <point x="406" y="329" type="curve" smooth="yes"/>
      <point x="406" y="374"/>
      <point x="553" y="405"/>
      <point x="553" y="533" type="curve" smooth="yes"/>
      <point x="553" y="617"/>
      <point x="494" y="701"/>
      <point x="334" y="701" type="curve" smooth="yes"/>
      <point x="152" y="701"/>
      <point x="98" y="575"/>
      <point x="98" y="470" type="curve" smooth="yes"/>
      <point x="98" y="379"/>
      <point x="97" y="411"/>
      <point x="97" y="270" type="curve" smooth="yes"/>
      <point x="97" y="163"/>
      <point x="92" y="52"/>
    </contour>
  </outline>
</glyph>
<glyph name="ae" format="2">
  <advance width="803"/>
  <unicode hex="00E6"/>
  <anchor x="398" y="515" name="top"/>
  <outline>
    <contour>
      <point x="189" y="-10" type="curve" smooth="yes"/>
      <point x="293" y="-10"/>
      <point x="353" y="23"/>
      <point x="383" y="101" type="curve"/>
      <point x="411" y="26"/>
      <point x="469" y="-12"/>
      <point x="551" y="-12" type="curve" smooth="yes"/>
      <point x="663" y="-12"/>
      <point x="732" y="47"/>
      <point x="732" y="142" type="curve" smooth="yes"/>
      <point x="732" y="149"/>
      <point x="732" y="157"/>
      <point x="731" y="165" type="curve"/>
      <point x="665" y="165" type="line"/>
      <point x="667" y="157"/>
      <point x="668" y="149"/>
      <point x="668" y="141" type="curve" smooth="yes"/>
      <point x="668" y="90"/>
      <point x="629" y="44"/>
      <point x="553" y="44" type="curve" smooth="yes"/>
      <point x="495" y="44"/>
      <point x="463" y="74"/>
      <point x="446" y="121" type="curve" smooth="yes"/>
      <point x="434" y="153"/>
      <point x="429" y="194"/>
      <point x="427" y="237" type="curve"/>
      <point x="526" y="240"/>
      <point x="654" y="242"/>
      <point x="724" y="243" type="curve"/>
      <point x="729" y="274"/>
      <point x="732" y="304"/>
      <point x="732" y="332" type="curve" smooth="yes"/>
      <point x="732" y="440"/>
      <point x="691" y="524"/>
      <point x="569" y="524" type="curve" smooth="yes"/>
      <point x="493" y="524"/>
      <point x="438" y="498"/>
      <point x="401" y="443" type="curve"/>
      <point x="379" y="490"/>
      <point x="335" y="524"/>
      <point x="252" y="524" type="curve" smooth="yes"/>
      <point x="145" y="524"/>
      <point x="74" y="458"/>
      <point x="74" y="365" type="curve" smooth="yes"/>
      <point x="74" y="348"/>
      <point x="76" y="330"/>
      <point x="81" y="311" type="curve"/>
      <point x="144" y="314" type="line"/>
      <point x="138" y="333"/>
      <point x="135" y="351"/>
      <point x="135" y="368" type="curve" smooth="yes"/>
      <point x="135" y="429"/>
      <point x="174" y="472"/>
      <point x="249" y="472" type="curve" smooth="yes"/>
      <point x="326" y="472"/>
      <point x="357" y="426"/>
      <point x="356" y="359" type="curve" smooth="yes"/>
      <point x="355" y="316"/>
      <point x="281" y="304"/>
      <point x="206" y="280" type="curve" smooth="yes"/>
      <point x="131" y="256"/>
      <point x="55" y="219"/>
      <point x="55" y="123" type="curve" smooth="yes"/>
      <point x="55" y="33"/>
      <point x="122" y="-10"/>
    </contour>
    <contour>
      <point x="207" y="45" type="curve" smooth="yes"/>
      <point x="155" y="45"/>
      <point x="119" y="73"/>
      <point x="119" y="125" type="curve" smooth="yes"/>
      <point x="119" y="187"/>
      <point x="172" y="214"/>
      <point x="231" y="234" type="curve" smooth="yes"/>
      <point x="276" y="249"/>
      <point x="325" y="260"/>
      <point x="355" y="280" type="curve"/>
      <point x="355" y="260"/>
      <point x="354" y="239"/>
      <point x="354" y="219" type="curve" smooth="yes"/>
      <point x="355" y="118"/>
      <point x="291" y="45"/>
    </contour>
    <contour>
      <point x="428" y="298" type="line"/>
      <point x="431" y="341"/>
      <point x="439" y="382"/>
      <point x="458" y="413" type="curve" smooth="yes"/>
      <point x="478" y="446"/>
      <point x="509" y="467"/>
      <point x="555" y="467" type="curve" smooth="yes"/>
      <point x="640" y="467"/>
      <point x="666" y="417"/>
      <point x="666" y="347" type="curve" smooth="yes"/>
      <point x="666" y="332"/>
      <point x="664" y="316"/>
      <point x="663" y="300" type="curve"/>
    </contour>
  </outline>
</glyph>
<glyph name="eth" format="2">
  <advance width="526"/>
  <unicode hex="00F0"/>
  <outline>
    <contour>
      <point x="249" y="-10" type="curve" smooth="yes"/>
      <point x="415" y="-10"/>
      <point x="460" y="108"/>
      <point x="460" y="321" type="curve"/>
      <point x="460" y="586"/>
      <point x="355" y="675"/>
      <point x="198" y="729" type="curve"/>
      <point x="164" y="667" type="line"/>
      <point x="340" y="622"/>
      <point x="379" y="496"/>
      <point x="381" y="370" type="curve" smooth="yes"/>
      <point x="382" y="297"/>
      <point x="381" y="272"/>
      <point x="381" y="245" type="curve"/>
      <point x="381" y="137"/>
      <point x="365" y="50"/>
      <point x="259" y="50" type="curve" smooth="yes"/>
      <point x="162" y="50"/>
      <point x="138" y="119"/>
      <point x="138" y="214" type="curve" smooth="yes"/>
      <point x="138" y="291"/>
      <point x="164" y="376"/>
      <point x="255" y="376" type="curve" smooth="yes"/>
      <point x="353" y="376"/>
      <point x="381" y="317"/>
      <point x="381" y="243" type="curve"/>
      <point x="417" y="325" type="line"/>
      <point x="389" y="398"/>
      <point x="338" y="437"/>
      <point x="259" y="437" type="curve" smooth="yes"/>
      <point x="132" y="437"/>
      <point x="65" y="333"/>
      <point x="65" y="206" type="curve" smooth="yes"/>
      <point x="65" y="81"/>
      <point x="123" y="-10"/>
    </contour>
    <contour>
      <point x="219" y="497" type="line"/>
      <point x="219" y="497"/>
      <point x="293" y="541"/>
      <point x="349" y="573" type="curve"/>
      <point x="386" y="594"/>
      <point x="493" y="656"/>
      <point x="493" y="656" type="curve"/>
      <point x="461" y="708" type="line"/>
      <point x="461" y="708"/>
      <point x="366" y="648"/>
      <point x="326" y="625" type="curve"/>
      <point x="266" y="593"/>
      <point x="189" y="547"/>
      <point x="189" y="547" type="curve"/>
    </contour>
  </outline>
</glyph>
<glyph name="divide" format="2">
  <advance width="580"/>
  <unicode hex="00F7"/>
  <outline>
    <contour>
      <point x="79" y="259" type="line"/>
      <point x="79" y="259"/>
      <point x="239" y="262"/>
      <point x="291" y="263" type="curve"/>
      <point x="346" y="264"/>
      <point x="495" y="262"/>
      <point x="495" y="262" type="curve"/>
      <point x="502" y="324" type="line"/>
      <point x="502" y="324"/>
      <point x="344" y="321"/>
      <point x="286" y="320" type="curve"/>
      <point x="229" y="318"/>
      <point x="78" y="322"/>
      <point x="78" y="322" type="curve"/>
    </contour>
    <contour>
      <point x="291" y="96" type="curve"/>
      <point x="320" y="96"/>
      <point x="340" y="119"/>
      <point x="340" y="145" type="curve"/>
      <point x="340" y="173"/>
      <point x="317" y="198"/>
      <point x="282" y="198" type="curve"/>
      <point x="255" y="198"/>
      <point x="234" y="180"/>
      <point x="234" y="151" type="curve"/>
      <point x="234" y="118"/>
      <point x="262" y="96"/>
    </contour>
    <contour>
      <point x="291" y="391" type="curve"/>
      <point x="320" y="391"/>
      <point x="340" y="414"/>
      <point x="340" y="440" type="curve"/>
      <point x="340" y="468"/>
      <point x="317" y="493"/>
      <point x="282" y="493" type="curve"/>
      <point x="255" y="493"/>
      <point x="234" y="475"/>
      <point x="234" y="446" type="curve"/>
      <point x="234" y="413"/>
      <point x="262" y="391"/>
    </contour>
  </outline>
</glyph>
<glyph name="Hbar" format="2">
  <advance width="643"/>
  <unicode hex="0126"/>
  <anchor x="317" y="459" name="_center"/>
  <outline>
    <contour>
      <point x="43" y="427" type="line"/>
      <point x="43" y="427"/>
      <point x="222" y="429"/>
      <point x="314" y="429" type="curve"/>
      <point x="374" y="429"/>
      <point x="594" y="427"/>
      <point x="594" y="427" type="curve"/>
      <point x="594" y="486" type="line"/>
      <point x="594" y="486"/>
      <point x="387" y="482"/>
      <point x="320" y="483" type="curve"/>
      <point x="226" y="484"/>
      <point x="45" y="486"/>
      <point x="45" y="486" type="curve"/>
    </contour>
    <component base="H"/>
  </outline>
</glyph>
<glyph name="idotless" format="2">
  <advance width="275"/>
  <unicode hex="0131"/>
  <anchor x="138" y="0" name="bottom"/>
  <anchor x="137" y="515" name="top"/>
  <outline>
    <contour>
      <point x="179" y="0" type="line"/>
      <point x="174" y="75"/>
      <point x="172" y="164"/>
      <point x="172" y="272" type="curve" smooth="yes"/>
      <point x="171" y="369"/>
      <point x="173" y="446"/>
      <point x="175" y="517" type="curve"/>
      <point x="99" y="516" type="line"/>
      <point x="103" y="435"/>
      <point x="106" y="362"/>
      <point x="106" y="269" type="curve" smooth="yes"/>
      <point x="106" y="167"/>
      <point x="104" y="85"/>
      <point x="99" y="1" type="curve"/>
    </contour>
  </outline>
</glyph>
<glyph name="kgreenlandic" format="2">
  <advance width="482"/>
  <unicode hex="0138"/>
  <outline>
    <contour>
      <point x="402" y="0" type="curve"/>
      <point x="497" y="3" type="line"/>
      <point x="390" y="103"/>
      <point x="309" y="184"/>
      <point x="222" y="275" type="curve"/>
      <point x="315" y="371"/>
      <point x="382" y="438"/>
      <point x="469" y="519" type="curve"/>
      <point x="382" y="521" type="line"/>
      <point x="306" y="442"/>
      <point x="249" y="384"/>
      <point x="133" y="269" type="curve"/>
      <point x="231" y="177"/>
      <point x="318" y="88"/>
    </contour>
    <contour>
      <point x="96" y="0" type="curve"/>
      <point x="175" y="1" type="line"/>
      <point x="172" y="54"/>
      <point x="168" y="163"/>
      <point x="168" y="270" type="curve"/>
      <point x="168" y="376"/>
      <point x="172" y="474"/>
      <point x="175" y="519" type="curve"/>
      <point x="99" y="511" type="line"/>
      <point x="100" y="468"/>
      <point x="102" y="373"/>
      <point x="102" y="268" type="curve"/>
      <point x="102" y="164"/>
      <point x="99" y="54"/>
    </contour>
  </outline>
</glyph>
<glyph name="lcaron" format="2">
  <advance width="321"/>
  <unicode hex="013E"/>
  <outline>
    <contour>
      <point x="96" y="2" type="curve"/>
      <point x="175" y="10" type="line"/>
      <point x="171" y="97"/>
      <point x="165" y="251"/>
      <point x="165" y="358" type="curve"/>
      <point x="165" y="465"/>
      <point x="171" y="615"/>
      <point x="175" y="698" type="curve"/>
      <point x="97" y="697" type="line"/>
      <point x="98" y="612"/>
      <point x="99" y="461"/>
      <point x="99" y="357" type="curve"/>
      <point x="99" y="221"/>
      <point x="99" y="63"/>
    </contour>
    <contour>
      <point x="278" y="489" type="line"/>
      <point x="310" y="520"/>
      <point x="321" y="571"/>
      <point x="321" y="603" type="curve"/>
      <point x="322" y="637"/>
      <point x="322" y="670"/>
      <point x="323" y="704" type="curve"/>
      <point x="240" y="698" type="line"/>
      <point x="245" y="611" type="line"/>
      <point x="278" y="610" type="line"/>
      <point x="278" y="580"/>
      <point x="264" y="537"/>
      <point x="244" y="509" type="curve"/>
    </contour>
  </outline>
</glyph>
<glyph name="ldot" format="2">
  <advance width="286"/>
  <unicode hex="0140"/>
  <outline>
    <contour>
      <point x="96" y="2" type="curve"/>
      <point x="175" y="10" type="line"/>
      <point x="175" y="10"/>
      <point x="165" y="212"/>
      <point x="165" y="358" type="curve"/>
      <point x="165" y="504"/>
      <point x="175" y="698"/>
      <point x="175" y="698" type="curve"/>
      <point x="97" y="697" type="line"/>
      <point x="97" y="697"/>
      <point x="99" y="500"/>
      <point x="99" y="357" type="curve"/>
      <point x="99" y="221"/>
      <point x="99" y="63"/>
    </contour>
    <contour>
      <point x="320" y="310" type="line"/>
      <point x="317" y="404" type="line"/>
      <point x="236" y="399" type="line"/>
      <point x="242" y="312" type="line"/>
    </contour>
  </outline>
</glyph>
<glyph name="napostrophe" format="2">
  <advance width="562"/>
  <unicode hex="0149"/>
  <outline>
    <contour>
      <point x="120" y="544" type="line"/>
      <point x="147" y="565"/>
      <point x="162" y="608"/>
      <point x="162" y="634" type="curve"/>
      <point x="163" y="674"/>
      <point x="166" y="744"/>
      <point x="166" y="744" type="curve"/>
      <point x="80" y="737" type="line"/>
      <point x="85" y="649" type="line"/>
      <point x="121" y="648" type="line"/>
      <point x="123" y="612"/>
      <point x="107" y="582"/>
      <point x="88" y="562" type="curve"/>
    </contour>
    <component base="n"/>
  </outline>
</glyph>
<glyph name="Eng" format="2">
  <advance width="645"/>
  <unicode hex="014A"/>
  <outline>
    <contour>
      <point x="346" y="-166" type="line"/>
      <point x="461" y="-168"/>
      <point x="539" y="-120"/>
      <point x="542" y="12" type="curve" smooth="yes"/>
      <point x="544" y="103"/>
      <point x="542" y="209"/>
      <point x="542" y="355" type="curve" smooth="yes"/>
      <point x="542" y="501"/>
      <point x="547" y="715"/>
      <point x="547" y="715" type="curve"/>
      <point x="468" y="715" type="line"/>
      <point x="468" y="715"/>
      <point x="471" y="496"/>
      <point x="471" y="353" type="curve" smooth="yes"/>
      <point x="471" y="292"/>
      <point x="472" y="230"/>
      <point x="472" y="169" type="curve"/>
      <point x="445" y="220"/>
      <point x="418" y="284"/>
      <point x="385" y="350" type="curve" smooth="yes"/>
      <point x="316" y="486"/>
      <point x="248" y="633"/>
      <point x="215" y="704" type="curve"/>
      <point x="98" y="704" type="line"/>
      <point x="101" y="612"/>
      <point x="102" y="476"/>
      <point x="103" y="338" type="curve" smooth="yes"/>
      <point x="104" y="219"/>
      <point x="102" y="98"/>
      <point x="101" y="1" type="curve"/>
      <point x="177" y="0" type="line"/>
      <point x="176" y="46"/>
      <point x="175" y="194"/>
      <point x="174" y="336" type="curve" smooth="yes"/>
      <point x="173" y="450"/>
      <point x="173" y="560"/>
      <point x="173" y="613" type="curve"/>
      <point x="200" y="565"/>
      <point x="252" y="454"/>
      <point x="313" y="336" type="curve" smooth="yes"/>
      <point x="374" y="216"/>
      <point x="433" y="88"/>
      <point x="471" y="12" type="curve"/>
      <point x="471" y="-74"/>
      <point x="429" y="-114"/>
      <point x="344" y="-108" type="curve"/>
    </contour>
  </outline>
</glyph>
<glyph name="eng" format="2">
  <advance width="562"/>
  <unicode hex="014B"/>
  <outline>
    <contour>
      <point x="273" y="-166" type="line"/>
      <point x="388" y="-168"/>
      <point x="463" y="-120"/>
      <point x="467" y="12" type="curve" smooth="yes"/>
      <point x="469" y="82"/>
      <point x="469" y="121"/>
      <point x="468" y="238" type="curve" smooth="yes"/>
      <point x="468" y="334" type="line" smooth="yes"/>
      <point x="469" y="434"/>
      <point x="428" y="520"/>
      <point x="321" y="520" type="curve" smooth="yes"/>
      <point x="247" y="520"/>
      <point x="199" y="485"/>
      <point x="167" y="435" type="curve"/>
      <point x="167" y="471"/>
      <point x="167" y="500"/>
      <point x="168" y="519" type="curve"/>
      <point x="97" y="516" type="line"/>
      <point x="99" y="463"/>
      <point x="102" y="353"/>
      <point x="102" y="246" type="curve" smooth="yes"/>
      <point x="102" y="117"/>
      <point x="101" y="80"/>
      <point x="96" y="1" type="curve"/>
      <point x="172" y="1" type="line"/>
      <point x="171" y="57"/>
      <point x="168" y="144"/>
      <point x="169" y="269" type="curve" smooth="yes"/>
      <point x="169" y="400"/>
      <point x="241" y="460"/>
      <point x="310" y="460" type="curve" smooth="yes"/>
      <point x="364" y="460"/>
      <point x="400" y="411"/>
      <point x="400" y="325" type="curve" smooth="yes"/>
      <point x="400" y="236" type="line" smooth="yes"/>
      <point x="400" y="118"/>
      <point x="400" y="92"/>
      <point x="398" y="-2" type="curve" smooth="yes"/>
      <point x="396" y="-95"/>
      <point x="334" y="-112"/>
      <point x="271" y="-108" type="curve"/>
    </contour>
  </outline>
</glyph>
<glyph name="OE" format="2">
  <advance width="838"/>
  <unicode hex="0152"/>
  <outline>
    <contour>
      <point x="285" y="-5" type="curve" smooth="yes"/>
      <point x="368" y="-5"/>
      <point x="406" y="0"/>
      <point x="443" y="0" type="curve" smooth="yes"/>
      <point x="765" y="0" type="line"/>
      <point x="765" y="63" type="line"/>
      <point x="477" y="67" type="line"/>
      <point x="475" y="202" type="line"/>
      <point x="760" y="206" type="line"/>
      <point x="762" y="269" type="line"/>
      <point x="475" y="272" type="line"/>
      <point x="474" y="393" type="line" smooth="yes"/>
      <point x="474" y="464"/>
      <point x="475" y="560"/>
      <point x="476" y="623" type="curve"/>
      <point x="753" y="624" type="line"/>
      <point x="753" y="693" type="line"/>
      <point x="464" y="693" type="line" smooth="yes"/>
      <point x="402" y="693"/>
      <point x="370" y="705"/>
      <point x="303" y="705" type="curve" smooth="yes"/>
      <point x="126" y="705"/>
      <point x="57" y="557"/>
      <point x="57" y="357" type="curve" smooth="yes"/>
      <point x="57" y="146"/>
      <point x="105" y="-5"/>
    </contour>
    <contour>
      <point x="320" y="58" type="curve" smooth="yes"/>
      <point x="161" y="58"/>
      <point x="135" y="165"/>
      <point x="135" y="345" type="curve" smooth="yes"/>
      <point x="135" y="521"/>
      <point x="169" y="644"/>
      <point x="317" y="644" type="curve" smooth="yes"/>
      <point x="341" y="644"/>
      <point x="367" y="641"/>
      <point x="397" y="637" type="curve"/>
      <point x="398" y="583"/>
      <point x="399" y="494"/>
      <point x="399" y="391" type="curve" smooth="yes"/>
      <point x="399" y="278"/>
      <point x="398" y="143"/>
      <point x="397" y="65" type="curve"/>
      <point x="371" y="61"/>
      <point x="345" y="58"/>
    </contour>
  </outline>
</glyph>
<glyph name="oe" format="2">
  <advance width="846"/>
  <unicode hex="0153"/>
  <outline>
    <contour>
      <point x="266" y="-10" type="curve"/>
      <point x="346" y="-10"/>
      <point x="400" y="29"/>
      <point x="432" y="89" type="curve" smooth="yes"/>
      <point x="457" y="137"/>
      <point x="469" y="198"/>
      <point x="469" y="263" type="curve" smooth="yes"/>
      <point x="469" y="310"/>
      <point x="465" y="354"/>
      <point x="454" y="392" type="curve" smooth="yes"/>
      <point x="432" y="473"/>
      <point x="382" y="527"/>
      <point x="285" y="527" type="curve" smooth="yes"/>
      <point x="196" y="527"/>
      <point x="138" y="482"/>
      <point x="107" y="415" type="curve" smooth="yes"/>
      <point x="86" y="372"/>
      <point x="77" y="319"/>
      <point x="77" y="264" type="curve" smooth="yes"/>
      <point x="77" y="193"/>
      <point x="88" y="128"/>
      <point x="114" y="78" type="curve" smooth="yes"/>
      <point x="144" y="24"/>
      <point x="192" y="-10"/>
    </contour>
    <contour>
      <point x="267" y="53" type="curve" smooth="yes"/>
      <point x="216" y="53"/>
      <point x="184" y="82"/>
      <point x="166" y="125" type="curve" smooth="yes"/>
      <point x="153" y="158"/>
      <point x="147" y="200"/>
      <point x="147" y="243" type="curve" smooth="yes"/>
      <point x="147" y="295"/>
      <point x="152" y="346"/>
      <point x="168" y="386" type="curve" smooth="yes"/>
      <point x="187" y="434"/>
      <point x="220" y="466"/>
      <point x="278" y="466" type="curve" smooth="yes"/>
      <point x="352" y="466"/>
      <point x="382" y="426"/>
      <point x="393" y="361" type="curve" smooth="yes"/>
      <point x="398" y="333"/>
      <point x="399" y="301"/>
      <point x="399" y="266" type="curve" smooth="yes"/>
      <point x="399" y="211"/>
      <point x="394" y="161"/>
      <point x="378" y="124" type="curve" smooth="yes"/>
      <point x="359" y="80"/>
      <point x="326" y="53"/>
    </contour>
    <contour>
      <point x="593" y="-12" type="curve" smooth="yes"/>
      <point x="705" y="-12"/>
      <point x="774" y="47"/>
      <point x="774" y="142" type="curve" smooth="yes"/>
      <point x="774" y="149"/>
      <point x="774" y="157"/>
      <point x="773" y="165" type="curve"/>
      <point x="707" y="165" type="line"/>
      <point x="709" y="157"/>
      <point x="710" y="149"/>
      <point x="710" y="141" type="curve" smooth="yes"/>
      <point x="710" y="90"/>
      <point x="671" y="44"/>
      <point x="595" y="44" type="curve" smooth="yes"/>
      <point x="537" y="44"/>
      <point x="505" y="74"/>
      <point x="488" y="121" type="curve" smooth="yes"/>
      <point x="473" y="161"/>
      <point x="469" y="213"/>
      <point x="469" y="268" type="curve" smooth="yes"/>
      <point x="469" y="321"/>
      <point x="477" y="375"/>
      <point x="500" y="413" type="curve" smooth="yes"/>
      <point x="520" y="446"/>
      <point x="551" y="467"/>
      <point x="597" y="467" type="curve" smooth="yes"/>
      <point x="682" y="467"/>
      <point x="708" y="417"/>
      <point x="708" y="347" type="curve" smooth="yes"/>
      <point x="708" y="330"/>
      <point x="706" y="313"/>
      <point x="704" y="294" type="curve"/>
      <point x="766" y="243" type="line"/>
      <point x="771" y="274"/>
      <point x="774" y="304"/>
      <point x="774" y="332" type="curve" smooth="yes"/>
      <point x="774" y="440"/>
      <point x="733" y="524"/>
      <point x="611" y="524" type="curve" smooth="yes"/>
      <point x="532" y="524"/>
      <point x="478" y="494"/>
      <point x="444" y="445" type="curve" smooth="yes"/>
      <point x="413" y="400"/>
      <point x="399" y="338"/>
      <point x="399" y="269" type="curve" smooth="yes"/>
      <point x="399" y="197"/>
      <point x="408" y="131"/>
      <point x="434" y="80" type="curve" smooth="yes"/>
      <point x="462" y="24"/>
      <point x="512" y="-12"/>
    </contour>
    <contour>
      <point x="434" y="236" type="line"/>
      <point x="573" y="241"/>
      <point x="766" y="243"/>
      <point x="766" y="243" type="curve"/>
      <point x="766" y="300" type="line"/>
      <point x="433" y="298" type="line"/>
    </contour>
  </outline>
</glyph>
<glyph name="longs" format="2">
  <advance width="369"/>
  <unicode hex="017F"/>
  <outline>
    <contour>
      <point x="30" y="448" type="line"/>
      <point x="64" y="448"/>
      <point x="114" y="451"/>
      <point x="175" y="451" type="curve"/>
      <point x="178" y="508" type="line"/>
      <point x="123" y="508"/>
      <point x="81" y="510"/>
      <point x="36" y="510" type="curve"/>
    </contour>
    <contour>
      <point x="296" y="716" type="curve" smooth="yes"/>
      <point x="178" y="716"/>
      <point x="136" y="616"/>
      <point x="135" y="537" type="curve" smooth="yes"/>
      <point x="134" y="428"/>
      <point x="134" y="393"/>
      <point x="134" y="270" type="curve" smooth="yes"/>
      <point x="134" y="151"/>
      <point x="131" y="82"/>
      <point x="125" y="-3" type="curve"/>
      <point x="210" y="0" type="line"/>
      <point x="207" y="73"/>
      <point x="203" y="160"/>
      <point x="203" y="272" type="curve" smooth="yes"/>
      <point x="203" y="361"/>
      <point x="202" y="418"/>
      <point x="207" y="551" type="curve" smooth="yes"/>
      <point x="209" y="600"/>
      <point x="229" y="660"/>
      <point x="295" y="660" type="curve" smooth="yes"/>
      <point x="336" y="660"/>
      <point x="374" y="646"/>
      <point x="374" y="601" type="curve"/>
      <point x="440" y="599" type="line"/>
      <point x="444" y="656"/>
      <point x="407" y="716"/>
    </contour>
  </outline>
</glyph>
<glyph name="Schwa" format="2">
  <advance width="564"/>
  <unicode hex="018F"/>
  <outline>
    <contour>
      <point x="266" y="-10" type="curve" smooth="yes"/>
      <point x="377" y="-10"/>
      <point x="442" y="48"/>
      <point x="476" y="138" type="curve" smooth="yes"/>
      <point x="498" y="198"/>
      <point x="507" y="271"/>
      <point x="507" y="351" type="curve" smooth="yes"/>
      <point x="507" y="431"/>
      <point x="499" y="506"/>
      <point x="475" y="566" type="curve" smooth="yes"/>
      <point x="444" y="647"/>
      <point x="384" y="701"/>
      <point x="278" y="701" type="curve"/>
      <point x="150" y="701"/>
      <point x="77" y="642"/>
      <point x="77" y="507" type="curve" smooth="yes"/>
      <point x="77" y="500"/>
      <point x="78" y="491"/>
      <point x="78" y="483" type="curve"/>
      <point x="148" y="483" type="line"/>
      <point x="146" y="495"/>
      <point x="146" y="507"/>
      <point x="146" y="518" type="curve" smooth="yes"/>
      <point x="146" y="603"/>
      <point x="197" y="637"/>
      <point x="272" y="637" type="curve" smooth="yes"/>
      <point x="346" y="637"/>
      <point x="385" y="598"/>
      <point x="406" y="539" type="curve" smooth="yes"/>
      <point x="425" y="488"/>
      <point x="429" y="423"/>
      <point x="429" y="355" type="curve" smooth="yes"/>
      <point x="429" y="282"/>
      <point x="425" y="219"/>
      <point x="409" y="168" type="curve" smooth="yes"/>
      <point x="386" y="96"/>
      <point x="348" y="53"/>
      <point x="272" y="53" type="curve" smooth="yes"/>
      <point x="174" y="53"/>
      <point x="145" y="117"/>
      <point x="145" y="219" type="curve" smooth="yes"/>
      <point x="145" y="254"/>
      <point x="149" y="297"/>
      <point x="154" y="338" type="curve"/>
      <point x="81" y="339" type="line"/>
      <point x="74" y="298"/>
      <point x="70" y="258"/>
      <point x="70" y="220" type="curve" smooth="yes"/>
      <point x="70" y="90"/>
      <point x="118" y="-10"/>
    </contour>
    <contour>
      <point x="87" y="281" type="line"/>
      <point x="473" y="283" type="line"/>
      <point x="472" y="346" type="line"/>
      <point x="390" y="341"/>
      <point x="81" y="339"/>
      <point x="81" y="339" type="curve"/>
    </contour>
  </outline>
</glyph>
<glyph name="uhorn" format="2">
  <advance width="541"/>
  <unicode hex="01B0"/>
  <anchor x="273" y="0" name="bottom"/>
  <anchor x="439" y="-3" name="ogonek"/>
  <anchor x="272" y="515" name="top"/>
  <anchor x="371" y="515" name="topright"/>
  <outline>
    <contour>
      <point x="231" y="-8" type="curve" smooth="yes"/>
      <point x="417" y="-8"/>
      <point x="427" y="206"/>
      <point x="427" y="288" type="curve"/>
      <point x="388" y="315" type="line"/>
      <point x="383" y="105"/>
      <point x="310" y="48"/>
      <point x="241" y="48" type="curve" smooth="yes"/>
      <point x="161" y="48"/>
      <point x="147" y="106"/>
      <point x="146" y="215" type="curve" smooth="yes"/>
      <point x="146" y="255"/>
      <point x="144" y="299"/>
      <point x="147" y="347" type="curve" smooth="yes"/>
      <point x="151" y="416"/>
      <point x="153" y="451"/>
      <point x="161" y="524" type="curve"/>
      <point x="86" y="518" type="line"/>
      <point x="84" y="485"/>
      <point x="83" y="447"/>
      <point x="80" y="369" type="curve" smooth="yes"/>
      <point x="78" y="310"/>
      <point x="79" y="252"/>
      <point x="79" y="212" type="curve" smooth="yes"/>
      <point x="79" y="60"/>
      <point x="115" y="-8"/>
    </contour>
    <contour>
      <point x="389" y="0" type="line"/>
      <point x="462" y="0" type="line"/>
      <point x="456" y="95"/>
      <point x="454" y="189"/>
      <point x="452" y="284" type="curve" smooth="yes"/>
      <point x="451" y="314"/>
      <point x="454" y="459"/>
      <point x="457" y="524" type="curve"/>
      <point x="379" y="525" type="line"/>
      <point x="381" y="434"/>
      <point x="385" y="343"/>
      <point x="385" y="281" type="curve" smooth="yes"/>
      <point x="385" y="222"/>
      <point x="385" y="164"/>
      <point x="383" y="105" type="curve"/>
    </contour>
    <contour>
      <point x="416" y="420" type="line"/>
      <point x="498" y="434"/>
      <point x="551" y="481"/>
      <point x="556" y="541" type="curve"/>
      <point x="557" y="563"/>
      <point x="558" y="608"/>
      <point x="559" y="636" type="curve"/>
      <point x="472" y="641" type="line"/>
      <point x="478" y="551" type="line"/>
      <point x="518" y="550" type="line"/>
      <point x="518" y="483"/>
      <point x="441" y="458"/>
      <point x="408" y="451" type="curve"/>
    </contour>
  </outline>
</glyph>
<glyph name="jdotless" format="2">
  <advance width="263"/>
  <unicode hex="0237"/>
  <anchor x="138" y="515" name="top"/>
  <outline>
    <contour>
      <point x="-25" y="-166" type="line"/>
      <point x="90" y="-168"/>
      <point x="165" y="-120"/>
      <point x="169" y="12" type="curve" smooth="yes"/>
      <point x="172" y="103"/>
      <point x="170" y="117"/>
      <point x="170" y="263" type="curve"/>
      <point x="170" y="409"/>
      <point x="178" y="514"/>
      <point x="178" y="514" type="curve"/>
      <point x="98" y="515" type="line"/>
      <point x="98" y="515"/>
      <point x="102" y="405"/>
      <point x="102" y="262" type="curve"/>
      <point x="102" y="144"/>
      <point x="103" y="68"/>
      <point x="99" y="0" type="curve" smooth="yes"/>
      <point x="95" y="-74"/>
      <point x="53" y="-114"/>
      <point x="-27" y="-108" type="curve"/>
    </contour>
  </outline>
</glyph>
<glyph name="nhookleft" format="2">
  <advance width="562"/>
  <unicode hex="0272"/>
  <outline>
    <contour>
      <point x="473" y="0" type="line"/>
      <point x="469" y="82"/>
      <point x="468" y="115"/>
      <point x="468" y="186" type="curve" smooth="yes"/>
      <point x="468" y="246"/>
      <point x="467" y="272"/>
      <point x="468" y="334" type="curve" smooth="yes"/>
      <point x="470" y="434"/>
      <point x="428" y="520"/>
      <point x="321" y="520" type="curve" smooth="yes"/>
      <point x="150" y="520"/>
      <point x="112" y="329"/>
      <point x="112" y="213" type="curve"/>
      <point x="169" y="269" type="line"/>
      <point x="169" y="400"/>
      <point x="241" y="460"/>
      <point x="310" y="460" type="curve" smooth="yes"/>
      <point x="364" y="460"/>
      <point x="400" y="411"/>
      <point x="400" y="325" type="curve" smooth="yes"/>
      <point x="400" y="258"/>
      <point x="400" y="237"/>
      <point x="400" y="185" type="curve" smooth="yes"/>
      <point x="400" y="112"/>
      <point x="397" y="86"/>
      <point x="393" y="1" type="curve"/>
    </contour>
    <contour>
      <point x="-25" y="-166" type="line"/>
      <point x="90" y="-168"/>
      <point x="165" y="-120"/>
      <point x="169" y="12" type="curve" smooth="yes"/>
      <point x="172" y="103"/>
      <point x="169" y="123"/>
      <point x="169" y="269" type="curve"/>
      <point x="168" y="402"/>
      <point x="166" y="475"/>
      <point x="168" y="518" type="curve"/>
      <point x="98" y="515" type="line"/>
      <point x="98" y="515"/>
      <point x="102" y="385"/>
      <point x="102" y="242" type="curve"/>
      <point x="102" y="98"/>
      <point x="101" y="63"/>
      <point x="100" y="-2" type="curve" smooth="yes"/>
      <point x="98" y="-95"/>
      <point x="36" y="-112"/>
      <point x="-27" y="-108" type="curve"/>
    </contour>
  </outline>
</glyph>
<glyph name="primemod" format="2">
  <advance width="436"/>
  <unicode hex="02B9"/>
  <outline>
    <contour>
      <point x="184" y="529" type="line"/>
      <point x="184" y="529"/>
      <point x="226" y="588"/>
      <point x="254" y="619" type="curve" smooth="yes"/>
      <point x="281" y="652"/>
      <point x="314" y="684"/>
      <point x="314" y="684" type="curve"/>
      <point x="232" y="731" type="line"/>
      <point x="232" y="731"/>
      <point x="209" y="690"/>
      <point x="183" y="648" type="curve" smooth="yes"/>
      <point x="155" y="603"/>
      <point x="123" y="554"/>
      <point x="123" y="554" type="curve"/>
    </contour>
  </outline>
</glyph>
<glyph name="doubleprimemod" format="2">
  <advance width="626"/>
  <unicode hex="02BA"/>
  <outline>
    <contour>
      <point x="374" y="529" type="line"/>
      <point x="374" y="529"/>
      <point x="416" y="588"/>
      <point x="444" y="619" type="curve"/>
      <point x="471" y="652"/>
      <point x="504" y="684"/>
      <point x="504" y="684" type="curve"/>
      <point x="422" y="731" type="line"/>
      <point x="422" y="731"/>
      <point x="399" y="690"/>
      <point x="373" y="648" type="curve"/>
      <point x="345" y="603"/>
      <point x="313" y="554"/>
      <point x="313" y="554" type="curve"/>
    </contour>
    <contour>
      <point x="184" y="529" type="line"/>
      <point x="184" y="529"/>
      <point x="226" y="588"/>
      <point x="254" y="619" type="curve"/>
      <point x="281" y="652"/>
      <point x="314" y="684"/>
      <point x="314" y="684" type="curve"/>
      <point x="232" y="731" type="line"/>
      <point x="232" y="731"/>
      <point x="209" y="690"/>
      <point x="183" y="648" type="curve"/>
      <point x="155" y="603"/>
      <point x="123" y="554"/>
      <point x="123" y="554" type="curve"/>
    </contour>
  </outline>
</glyph>
<glyph name="breve" format="2">
  <advance width="305"/>
  <unicode hex="02D8"/>
  <anchor x="153" y="555" name="_top"/>
  <outline>
    <contour>
      <point x="153" y="631" type="curve" smooth="yes"/>
      <point x="211" y="631"/>
      <point x="269" y="649"/>
      <point x="307" y="685" type="curve"/>
      <point x="283" y="717" type="line"/>
      <point x="249" y="693"/>
      <point x="200" y="681"/>
      <point x="152" y="681" type="curve" smooth="yes"/>
      <point x="106" y="681"/>
      <point x="58" y="692"/>
      <point x="22" y="716" type="curve"/>
      <point x="-2" y="681" type="line"/>
      <point x="39" y="648"/>
      <point x="96" y="631"/>
    </contour>
  </outline>
</glyph>
<glyph name="ring" format="2">
  <advance width="305"/>
  <unicode hex="02DA"/>
  <anchor x="153" y="555" name="_top"/>
  <outline>
    <contour>
      <point x="149" y="612" type="curve" smooth="yes"/>
      <point x="202" y="612"/>
      <point x="230" y="644"/>
      <point x="230" y="675" type="curve" smooth="yes"/>
      <point x="230" y="704"/>
      <point x="205" y="733"/>
      <point x="152" y="733" type="curve" smooth="yes"/>
      <point x="99" y="733"/>
      <point x="73" y="702"/>
      <point x="73" y="671" type="curve" smooth="yes"/>
      <point x="73" y="642"/>
      <point x="98" y="612"/>
    </contour>
    <contour>
      <point x="151" y="644" type="curve" smooth="yes"/>
      <point x="129" y="644"/>
      <point x="117" y="659"/>
      <point x="117" y="674" type="curve" smooth="yes"/>
      <point x="117" y="688"/>
      <point x="128" y="701"/>
      <point x="152" y="701" type="curve" smooth="yes"/>
      <point x="175" y="701"/>
      <point x="186" y="687"/>
      <point x="186" y="673" type="curve" smooth="yes"/>
      <point x="186" y="659"/>
      <point x="174" y="644"/>
    </contour>
  </outline>
</glyph>
<glyph name="ogonek" format="2">
  <advance width="305"/>
  <unicode hex="02DB"/>
  <anchor x="163" y="0" name="_ogonek"/>
  <outline>
    <contour>
      <point x="145" y="-127" type="curve" smooth="yes"/>
      <point x="168" y="-127"/>
      <point x="191" y="-125"/>
      <point x="212" y="-121" type="curve"/>
      <point x="212" y="-79" type="line"/>
      <point x="197" y="-81"/>
      <point x="168" y="-83"/>
      <point x="149" y="-83" type="curve" smooth="yes"/>
      <point x="118" y="-83"/>
      <point x="89" y="-78"/>
      <point x="89" y="-60" type="curve" smooth="yes"/>
      <point x="89" y="-26"/>
      <point x="141" y="-14"/>
      <point x="181" y="3" type="curve"/>
      <point x="127" y="8" type="line"/>
      <point x="70" y="-13"/>
      <point x="32" y="-37"/>
      <point x="32" y="-73" type="curve" smooth="yes"/>
      <point x="32" y="-112"/>
      <point x="84" y="-127"/>
    </contour>
  </outline>
</glyph>
<glyph name="hungarumlaut" format="2">
  <advance width="286"/>
  <unicode hex="02DD"/>
  <anchor x="107" y="555" name="_top"/>
  <outline>
    <contour>
      <point x="184" y="608" type="line"/>
      <point x="184" y="608"/>
      <point x="213" y="633"/>
      <point x="233" y="648" type="curve"/>
      <point x="255" y="662"/>
      <point x="287" y="684"/>
      <point x="287" y="684" type="curve"/>
      <point x="239" y="727" type="line"/>
      <point x="239" y="727"/>
      <point x="214" y="699"/>
      <point x="192" y="679" type="curve"/>
      <point x="170" y="658"/>
      <point x="150" y="641"/>
      <point x="150" y="641" type="curve"/>
    </contour>
    <contour>
      <point x="33" y="618" type="line"/>
      <point x="33" y="618"/>
      <point x="62" y="643"/>
      <point x="83" y="658" type="curve"/>
      <point x="104" y="672"/>
      <point x="137" y="694"/>
      <point x="137" y="694" type="curve"/>
      <point x="88" y="737" type="line"/>
      <point x="88" y="737"/>
      <point x="63" y="709"/>
      <point x="42" y="689" type="curve"/>
      <point x="19" y="668"/>
      <point x="0" y="651"/>
      <point x="0" y="651" type="curve"/>
    </contour>
  </outline>
</glyph>
<glyph name="acutecomb" format="2">
  <unicode hex="0301"/>
  <anchor x="-123" y="555" name="_top"/>
  <outline>
    <contour>
      <point x="-176" y="613" type="line"/>
      <point x="-153" y="623"/>
      <point x="-124" y="636"/>
      <point x="-94" y="648" type="curve" smooth="yes"/>
      <point x="-63" y="661"/>
      <point x="-31" y="673"/>
      <point x="-1" y="686" type="curve"/>
      <point x="-40" y="743" type="line"/>
      <point x="-65" y="727"/>
      <point x="-94" y="709"/>
      <point x="-121" y="693" type="curve" smooth="yes"/>
      <point x="-149" y="678"/>
      <point x="-176" y="663"/>
      <point x="-200" y="651" type="curve"/>
    </contour>
  </outline>
</glyph>
<glyph name="circumflexcomb" format="2">
  <unicode hex="0302"/>
  <anchor x="-152" y="555" name="_top"/>
  <outline>
    <contour>
      <point x="-59" y="619" type="line"/>
      <point x="-32" y="649" type="line"/>
      <point x="-115" y="716" type="line"/>
      <point x="-191" y="718" type="line"/>
      <point x="-272" y="647" type="line"/>
      <point x="-244" y="621" type="line"/>
      <point x="-153" y="670" type="line"/>
    </contour>
  </outline>
</glyph>
